<?xml version="1.0" encoding="UTF-8"?>
<!-- 2021-04-18 11:37:19 Generated by QCAD 3.25.2 SVG Exporter -->
<svg width="343.8509mm" height="140.251mm" viewBox="0 -140.251 343.8509 140.251" version="1.1" xmlns="http://www.w3.org/2000/svg" style="stroke-linecap:round;stroke-linejoin:round;fill:none">
    <g transform="scale(1,-1)">
        <!-- Polyline -->
        <path d="M343.8009,136.876 L343.7409,137.185 L343.6549,137.488 L343.5469,137.782 L343.4149,138.067 L343.2609,138.341 L343.0879,138.603 L342.8919,138.848 L342.6799,139.08 L342.4479,139.294 L342.2029,139.488 L341.9409,139.662 L341.6669,139.816 L341.3819,139.947 L341.0879,140.056 L340.7849,140.141 L340.4759,140.202 L340.1649,140.239 L339.8519,140.251 L4.0005,140.251 L3.6863,140.239 L3.3748,140.202 L3.0661,140.141 L2.763,140.056 L2.4694,139.947 L2.1842,139.816 L1.91,139.662 L1.6481,139.488 L1.4028,139.294 L1.1713,139.08 L0.9577,138.848 L0.7634,138.603 L0.5898,138.341 L0.4355,138.067 L0.3045,137.782 L0.1957,137.488 L0.1102,137.185 L0.0496,136.876 L0.0124,136.565 L0,136.251 L0,4.0004 L0.0124,3.6863 L0.0496,3.3748 L0.1102,3.0661 L0.1957,2.7643 L0.3045,2.4694 L0.4355,2.1842 L0.5898,1.9113 L0.7634,1.6481 L0.9577,1.4028 L1.1713,1.1713 L1.4028,0.9591 L1.6481,0.7634 L1.91,0.5898 L2.1842,0.4355 L2.4694,0.3045 L2.763,0.1957 L3.0661,0.1102 L3.3748,0.0496 L3.6863,0.0124 L4.0005,0 L339.8519,0.0014 L340.1649,0.0124 L340.4759,0.0496 L340.7849,0.1102 L341.0879,0.1957 L341.3819,0.3045 L341.6669,0.4355 L341.9409,0.5898 L342.2029,0.7634 L342.4479,0.9591 L342.6799,1.1713 L342.8919,1.4028 L343.0879,1.6481 L343.2609,1.9113 L343.4149,2.1842 L343.5469,2.4694 L343.6549,2.7643 L343.7409,3.0661 L343.8009,3.3748 L343.8389,3.6863 L343.8509,4.0004 L343.8509,136.251 L343.8389,136.565 Z" style="stroke:#000000;stroke-width:0.25;"/>
        <!-- Circle -->
        <circle cx="338.85524464161847" cy="135.26360913373622" r="1" style="stroke:#000000;stroke-width:0.25;"/>
        <!-- Circle -->
        <circle cx="116.28066124611166" cy="135.26360913373622" r="1" style="stroke:#000000;stroke-width:0.25;"/>
        <!-- Circle -->
        <circle cx="321.47980489624456" cy="121.68267061879837" r="1" style="stroke:#000000;stroke-width:0.25;"/>
        <!-- Circle -->
        <circle cx="171.98550331584215" cy="121.40137893717926" r="1" style="stroke:#000000;stroke-width:0.25;"/>
        <!-- Circle -->
        <circle cx="116.26419375695846" cy="5.022237420576894" r="1" style="stroke:#000000;stroke-width:0.25;"/>
        <!-- Circle -->
        <circle cx="338.83877715246524" cy="70.1182220434267" r="1" style="stroke:#000000;stroke-width:0.25;"/>
        <!-- Circle -->
        <circle cx="4.993369548358295" cy="135.24714164458314" r="1" style="stroke:#000000;stroke-width:0.25;"/>
        <!-- Circle -->
        <circle cx="4.993369548358295" cy="5.022237420576894" r="1" style="stroke:#000000;stroke-width:0.25;"/>
        <!-- Circle -->
        <circle cx="4.976902059205095" cy="70.13468953257998" r="1" style="stroke:#000000;stroke-width:0.25;"/>
        <!-- Circle -->
        <circle cx="227.55148545471172" cy="5.038704909730147" r="1" style="stroke:#000000;stroke-width:0.25;"/>
        <!-- Circle -->
        <circle cx="22.118238001872488" cy="121.68267061879837" r="1" style="stroke:#000000;stroke-width:0.25;"/>
        <!-- Circle -->
        <circle cx="227.56795294386512" cy="135.26360913373622" r="1" style="stroke:#000000;stroke-width:0.25;"/>
        <!-- Circle -->
        <circle cx="338.83877715246524" cy="5.022237420576894" r="1" style="stroke:#000000;stroke-width:0.25;"/>
    </g>
</svg>
