<?xml version="1.0" encoding="UTF-8"?>
<!-- 2021-04-18 11:38:02 Generated by QCAD 3.25.2 SVG Exporter -->
<svg width="343.8509mm" height="140.251mm" viewBox="-47.3247 -43.983 343.8509 140.251" version="1.1" xmlns="http://www.w3.org/2000/svg" style="stroke-linecap:round;stroke-linejoin:round;fill:none">
    <g transform="scale(1,-1)">
        <!-- Polyline -->
        <path d="M296.3302,-93.5036 L296.4162,-93.2018 L296.4762,-92.8931 L296.5142,-92.5817 L296.5262,-92.2675 L296.5262,39.983 L296.5142,40.297 L296.4762,40.608 L296.4162,40.917 L296.3302,41.22 L296.2222,41.514 L296.0902,41.799 L295.9362,42.073 L295.7632,42.335 L295.5672,42.58 L295.3552,42.812 L295.1232,43.026 L294.8782,43.22 L294.6162,43.394 L294.3422,43.548 L294.0572,43.679 L293.7632,43.788 L293.4602,43.873 L293.1512,43.934 L292.8402,43.971 L292.5272,43.983 L-43.3243,43.983 L-43.6385,43.971 L-43.9499,43.934 L-44.2586,43.873 L-44.5618,43.788 L-44.8553,43.679 L-45.1405,43.548 L-45.4148,43.394 L-45.6766,43.22 L-45.9219,43.026 L-46.1534,42.812 L-46.367,42.58 L-46.5613,42.335 L-46.7349,42.073 L-46.8893,41.799 L-47.0202,41.514 L-47.129,41.22 L-47.2145,40.917 L-47.2751,40.608 L-47.3123,40.297 L-47.3247,39.983 L-47.3247,-92.2675 L-47.3123,-92.5817 L-47.2751,-92.8931 L-47.2145,-93.2018 L-47.129,-93.5036 L-47.0202,-93.7985 L-46.8893,-94.0837 L-46.7349,-94.3566 L-46.5613,-94.6198 L-46.367,-94.8651 L-46.1534,-95.0966 L-45.9219,-95.3088 L-45.6766,-95.5045 L-45.4148,-95.6781 L-45.1405,-95.8325 L-44.8553,-95.9634 L-44.5618,-96.0722 L-44.2586,-96.1577 L-43.9499,-96.2183 L-43.6385,-96.2555 L-43.3243,-96.2679 L292.5272,-96.2665 L292.8402,-96.2555 L293.1512,-96.2183 L293.4602,-96.1577 L293.7632,-96.0722 L294.0572,-95.9634 L294.3422,-95.8325 L294.6162,-95.6781 L294.8782,-95.5045 L295.1232,-95.3088 L295.3552,-95.0966 L295.5672,-94.8651 L295.7632,-94.6198 L295.9362,-94.3566 L296.0902,-94.0837 L296.2222,-93.7985 Z" style="stroke:#000000;stroke-width:0.25;"/>
        <!-- Polyline -->
        <path d="M-43.9747,-91.2684 L-43.8948,-90.7585 L-43.6591,-90.2983 L-43.294,-89.9331 L-42.8337,-89.6974 L-42.3238,-89.6175 L-41.8153,-89.6974 L-41.3551,-89.9331 L-40.9899,-90.2983 L-40.7556,-90.7585 L-40.6743,-91.2684 L-40.7556,-91.7769 L-40.9899,-92.2372 L-41.3551,-92.6023 L-41.8153,-92.8366 L-42.3238,-92.9179 L-42.8337,-92.8366 L-43.294,-92.6023 L-43.6591,-92.2372 L-43.8948,-91.7769 Z" style="stroke:#000000;stroke-width:0.25;"/>
        <!-- Polyline -->
        <path d="M290.5562,-92.6023 L290.1912,-92.2372 L289.9572,-91.7769 L289.8772,-91.2684 L289.9572,-90.7585 L290.1912,-90.2983 L290.5562,-89.9331 L291.0172,-89.6974 L291.5262,-89.6175 L292.0352,-89.6974 L292.4952,-89.9331 L292.8602,-90.2983 L293.0962,-90.7585 L293.1762,-91.2684 L293.0962,-91.7769 L292.8602,-92.2372 L292.4952,-92.6023 L292.0352,-92.8366 L291.5262,-92.9179 L291.0172,-92.8366 Z" style="stroke:#000000;stroke-width:0.25;"/>
        <!-- Polyline -->
        <path d="M181.5772,-90.2983 L181.8112,-90.7585 L181.8932,-91.2684 L181.8112,-91.7769 L181.5772,-92.2372 L181.2132,-92.6023 L180.7532,-92.8366 L180.2432,-92.9179 L179.7332,-92.8366 L179.2732,-92.6023 L178.9082,-92.2372 L178.6742,-91.7769 L178.5922,-91.2684 L178.6742,-90.7585 L178.9082,-90.2983 L179.2732,-89.9331 L179.7332,-89.6974 L180.2432,-89.6175 L180.7532,-89.6974 L181.2132,-89.9331 Z" style="stroke:#000000;stroke-width:0.25;"/>
        <!-- Polyline -->
        <path d="M67.6242,-90.2983 L67.9882,-89.9331 L68.4482,-89.6974 L68.9582,-89.6175 L69.4682,-89.6974 L69.9282,-89.9331 L70.2932,-90.2983 L70.5282,-90.7585 L70.6092,-91.2684 L70.5282,-91.7769 L70.2932,-92.2372 L69.9282,-92.6023 L69.4682,-92.8366 L68.9582,-92.9179 L68.4482,-92.8366 L67.9882,-92.6023 L67.6242,-92.2372 L67.3902,-91.7769 L67.3092,-91.2684 L67.3902,-90.7585 Z" style="stroke:#000000;stroke-width:0.25;"/>
        <!-- Polyline -->
        <path d="M-42.3238,-27.792 L-42.8337,-27.7105 L-43.294,-27.4777 L-43.6591,-27.1126 L-43.8948,-26.6522 L-43.9747,-26.1424 L-43.8948,-25.6323 L-43.6591,-25.1723 L-43.294,-24.8072 L-42.8337,-24.5729 L-42.3238,-24.4914 L-41.8153,-24.5729 L-41.3551,-24.8072 L-40.9899,-25.1723 L-40.7556,-25.6323 L-40.6743,-26.1424 L-40.7556,-26.6522 L-40.9899,-27.1126 L-41.3551,-27.4777 L-41.8153,-27.7105 Z" style="stroke:#000000;stroke-width:0.25;"/>
        <!-- Polyline -->
        <path d="M292.0352,-27.7105 L291.5262,-27.792 L291.0172,-27.7105 L290.5562,-27.4777 L290.1912,-27.1126 L289.9572,-26.6522 L289.8772,-26.1424 L289.9572,-25.6323 L290.1912,-25.1723 L290.5562,-24.8072 L291.0172,-24.5729 L291.5262,-24.4914 L292.0352,-24.5729 L292.4952,-24.8072 L292.8602,-25.1723 L293.0962,-25.6323 L293.1762,-26.1424 L293.0962,-26.6522 L292.8602,-27.1126 L292.4952,-27.4777 Z" style="stroke:#000000;stroke-width:0.25;"/>
        <!-- Polyline -->
        <path d="M286.5272,33.983 L-37.3243,33.983 L-37.3243,-86.2676 L286.5272,-86.2676 Z" style="stroke:#000000;stroke-width:0.25;"/>
        <!-- Polyline -->
        <path d="M-43.6591,39.953 L-43.294,40.318 L-42.8337,40.553 L-42.3238,40.633 L-41.8153,40.553 L-41.3551,40.318 L-40.9899,39.953 L-40.7556,39.492 L-40.6743,38.982 L-40.7556,38.474 L-40.9899,38.014 L-41.3551,37.648 L-41.8153,37.414 L-42.3238,37.333 L-42.8337,37.414 L-43.294,37.648 L-43.6591,38.014 L-43.8948,38.474 L-43.9747,38.982 L-43.8948,39.492 Z" style="stroke:#000000;stroke-width:0.25;"/>
        <!-- Polyline -->
        <path d="M289.8772,38.982 L289.9572,39.492 L290.1912,39.953 L290.5562,40.318 L291.0172,40.553 L291.5262,40.633 L292.0352,40.553 L292.4952,40.318 L292.8602,39.953 L293.0962,39.492 L293.1762,38.982 L293.0962,38.474 L292.8602,38.014 L292.4952,37.648 L292.0352,37.414 L291.5262,37.333 L291.0172,37.414 L290.5562,37.648 L290.1912,38.014 L289.9572,38.474 Z" style="stroke:#000000;stroke-width:0.25;"/>
        <!-- Polyline -->
        <path d="M178.6742,39.492 L178.9082,39.953 L179.2732,40.318 L179.7332,40.553 L180.2432,40.633 L180.7532,40.553 L181.2132,40.318 L181.5772,39.953 L181.8112,39.492 L181.8932,38.982 L181.8112,38.474 L181.5772,38.014 L181.2132,37.648 L180.7532,37.414 L180.2432,37.333 L179.7332,37.414 L179.2732,37.648 L178.9082,38.014 L178.6742,38.474 L178.5922,38.982 Z" style="stroke:#000000;stroke-width:0.25;"/>
        <!-- Polyline -->
        <path d="M67.3902,39.492 L67.6242,39.953 L67.9882,40.318 L68.4482,40.553 L68.9582,40.633 L69.4682,40.553 L69.9282,40.318 L70.2932,39.953 L70.5282,39.492 L70.6092,38.982 L70.5282,38.474 L70.2932,38.014 L69.9282,37.648 L69.4682,37.414 L68.9582,37.333 L68.4482,37.414 L67.9882,37.648 L67.6242,38.014 L67.3902,38.474 L67.3092,38.982 Z" style="stroke:#000000;stroke-width:0.25;"/>
    </g>
</svg>
