<?xml version="1.0" encoding="UTF-8"?>
<!-- 2021-04-18 11:39:18 Generated by QCAD 3.25.2 SVG Exporter -->
<svg width="343.8454mm" height="140.2487mm" viewBox="-59.9708 -7.5079 343.8454 140.2487" version="1.1" xmlns="http://www.w3.org/2000/svg" style="stroke-linecap:round;stroke-linejoin:round;fill:none">
    <g transform="scale(1,-1)">
        <!-- Line -->
        <path d="M281.9646,6.9189 L282.2266,6.7449 " style="stroke:#000000;stroke-width:0.25;"/>
        <!-- Line -->
        <path d="M280.1886,7.4959 L280.4996,7.4589 " style="stroke:#000000;stroke-width:0.25;"/>
        <!-- Line -->
        <path d="M282.2266,6.7449 L282.4716,6.5509 " style="stroke:#000000;stroke-width:0.25;"/>
        <!-- Line -->
        <path d="M281.4056,7.2039 L281.6906,7.0729 " style="stroke:#000000;stroke-width:0.25;"/>
        <!-- Line -->
        <path d="M279.8756,7.5079 L280.1886,7.4959 " style="stroke:#000000;stroke-width:0.25;"/>
        <!-- Line -->
        <path d="M282.7036,6.3369 L282.9156,6.1049 " style="stroke:#000000;stroke-width:0.25;"/>
        <!-- Line -->
        <path d="M-56.2846,-132.7285 L-56.5961,-132.6913 " style="stroke:#000000;stroke-width:0.25;"/>
        <!-- Line -->
        <path d="M-59.7751,4.7449 L-59.6663,5.0389 " style="stroke:#000000;stroke-width:0.25;"/>
        <!-- Line -->
        <path d="M-59.5354,5.3239 L-59.381,5.5979 " style="stroke:#000000;stroke-width:0.25;"/>
        <!-- Line -->
        <path d="M-59.381,5.5979 L-59.2074,5.8599 " style="stroke:#000000;stroke-width:0.25;"/>
        <!-- Line -->
        <path d="M-59.2074,5.8599 L-59.0131,6.1049 " style="stroke:#000000;stroke-width:0.25;"/>
        <!-- Line -->
        <path d="M280.8086,7.3979 L281.1116,7.3129 " style="stroke:#000000;stroke-width:0.25;"/>
        <!-- Line -->
        <path d="M280.4996,7.4589 L280.8086,7.3979 " style="stroke:#000000;stroke-width:0.25;"/>
        <!-- Line -->
        <path d="M-58.7995,6.3369 L-58.568,6.5509 " style="stroke:#000000;stroke-width:0.25;"/>
        <!-- Line -->
        <path d="M281.1116,7.3129 L281.4056,7.2039 " style="stroke:#000000;stroke-width:0.25;"/>
        <!-- Line -->
        <path d="M282.4716,6.5509 L282.7036,6.3369 " style="stroke:#000000;stroke-width:0.25;"/>
        <!-- Line -->
        <path d="M281.6906,7.0729 L281.9646,6.9189 " style="stroke:#000000;stroke-width:0.25;"/>
        <!-- Line -->
        <path d="M-59.5354,-130.5567 L-59.6663,-130.2714 " style="stroke:#000000;stroke-width:0.25;"/>
        <!-- Line -->
        <path d="M283.7645,-129.6747 L283.6785,-129.9765 " style="stroke:#000000;stroke-width:0.25;"/>
        <!-- Line -->
        <path d="M283.5705,5.0389 L283.6785,4.7449 " style="stroke:#000000;stroke-width:0.25;"/>
        <!-- Line -->
        <path d="M283.5705,-130.2714 L283.4385,-130.5567 " style="stroke:#000000;stroke-width:0.25;"/>
        <!-- Line -->
        <path d="M-59.381,-130.8295 L-59.5354,-130.5567 " style="stroke:#000000;stroke-width:0.25;"/>
        <!-- Line -->
        <path d="M-56.9048,-132.6306 L-57.2079,-132.5452 " style="stroke:#000000;stroke-width:0.25;"/>
        <!-- Line -->
        <path d="M-59.7751,-129.9765 L-59.8606,-129.6747 " style="stroke:#000000;stroke-width:0.25;"/>
        <!-- Line -->
        <path d="M280.1886,-132.7285 L279.8756,-132.7395 " style="stroke:#000000;stroke-width:0.25;"/>
        <!-- Line -->
        <path d="M-59.0131,6.1049 L-58.7995,6.3369 " style="stroke:#000000;stroke-width:0.25;"/>
        <!-- Line -->
        <path d="M283.4385,5.3239 L283.5705,5.0389 " style="stroke:#000000;stroke-width:0.25;"/>
        <!-- Line -->
        <path d="M-59.0131,-131.338 L-59.2074,-131.0927 " style="stroke:#000000;stroke-width:0.25;"/>
        <!-- Line -->
        <path d="M283.7645,4.4419 L283.8245,4.1329 " style="stroke:#000000;stroke-width:0.25;"/>
        <!-- Line -->
        <path d="M283.6785,-129.9765 L283.5705,-130.2714 " style="stroke:#000000;stroke-width:0.25;"/>
        <!-- Line -->
        <path d="M-59.6663,-130.2714 L-59.7751,-129.9765 " style="stroke:#000000;stroke-width:0.25;"/>
        <!-- Line -->
        <path d="M-59.8606,-129.6747 L-59.9212,-129.366 " style="stroke:#000000;stroke-width:0.25;"/>
        <!-- Line -->
        <path d="M283.8245,-129.366 L283.7645,-129.6747 " style="stroke:#000000;stroke-width:0.25;"/>
        <!-- Line -->
        <path d="M-55.9705,-132.7409 L-56.2846,-132.7285 " style="stroke:#000000;stroke-width:0.25;"/>
        <!-- Line -->
        <path d="M-58.568,-131.7817 L-58.7995,-131.5695 " style="stroke:#000000;stroke-width:0.25;"/>
        <!-- Line -->
        <path d="M-58.061,-132.1511 L-58.3227,-131.9774 " style="stroke:#000000;stroke-width:0.25;"/>
        <!-- Line -->
        <path d="M281.4056,-132.4363 L281.1116,-132.5452 " style="stroke:#000000;stroke-width:0.25;"/>
        <!-- Line -->
        <path d="M283.8745,3.5079 L283.8745,-128.7404 " style="stroke:#000000;stroke-width:0.25;"/>
        <!-- Line -->
        <path d="M-58.7995,-131.5695 L-59.0131,-131.338 " style="stroke:#000000;stroke-width:0.25;"/>
        <!-- Line -->
        <path d="M-59.2074,-131.0927 L-59.381,-130.8295 " style="stroke:#000000;stroke-width:0.25;"/>
        <!-- Line -->
        <path d="M283.8625,-129.0546 L283.8245,-129.366 " style="stroke:#000000;stroke-width:0.25;"/>
        <!-- Line -->
        <path d="M283.2845,-130.8295 L283.1116,-131.0927 " style="stroke:#000000;stroke-width:0.25;"/>
        <!-- Line -->
        <path d="M-57.2079,-132.5452 L-57.5015,-132.4363 " style="stroke:#000000;stroke-width:0.25;"/>
        <!-- Line -->
        <path d="M283.8625,3.8219 L283.8745,3.5079 " style="stroke:#000000;stroke-width:0.25;"/>
        <!-- Line -->
        <path d="M-59.9708,3.5079 L-59.9584,3.8219 " style="stroke:#000000;stroke-width:0.25;"/>
        <!-- Line -->
        <path d="M282.7036,-131.5695 L282.4716,-131.7817 " style="stroke:#000000;stroke-width:0.25;"/>
        <!-- Line -->
        <path d="M283.6785,4.7449 L283.7645,4.4419 " style="stroke:#000000;stroke-width:0.25;"/>
        <!-- Line -->
        <path d="M-58.3227,-131.9774 L-58.568,-131.7817 " style="stroke:#000000;stroke-width:0.25;"/>
        <!-- Line -->
        <path d="M-59.6663,5.0389 L-59.5354,5.3239 " style="stroke:#000000;stroke-width:0.25;"/>
        <!-- Line -->
        <path d="M283.1116,-131.0927 L282.9156,-131.338 " style="stroke:#000000;stroke-width:0.25;"/>
        <!-- Line -->
        <path d="M283.4385,-130.5567 L283.2845,-130.8295 " style="stroke:#000000;stroke-width:0.25;"/>
        <!-- Line -->
        <path d="M283.2845,5.5979 L283.4385,5.3239 " style="stroke:#000000;stroke-width:0.25;"/>
        <!-- Line -->
        <path d="M282.2266,-131.9774 L281.9646,-132.1511 " style="stroke:#000000;stroke-width:0.25;"/>
        <!-- Line -->
        <path d="M-56.5961,-132.6913 L-56.9048,-132.6306 " style="stroke:#000000;stroke-width:0.25;"/>
        <!-- Line -->
        <path d="M-57.5015,-132.4363 L-57.7867,-132.3054 " style="stroke:#000000;stroke-width:0.25;"/>
        <!-- Line -->
        <path d="M283.8745,-128.7404 L283.8625,-129.0546 " style="stroke:#000000;stroke-width:0.25;"/>
        <!-- Line -->
        <path d="M283.1116,5.8599 L283.2845,5.5979 " style="stroke:#000000;stroke-width:0.25;"/>
        <!-- Line -->
        <path d="M281.1116,-132.5452 L280.8086,-132.6306 " style="stroke:#000000;stroke-width:0.25;"/>
        <!-- Line -->
        <path d="M280.4996,-132.6913 L280.1886,-132.7285 " style="stroke:#000000;stroke-width:0.25;"/>
        <!-- Line -->
        <path d="M282.9156,-131.338 L282.7036,-131.5695 " style="stroke:#000000;stroke-width:0.25;"/>
        <!-- Line -->
        <path d="M279.8756,-132.7395 L-55.9705,-132.7409 " style="stroke:#000000;stroke-width:0.25;"/>
        <!-- Line -->
        <path d="M-59.9584,-129.0546 L-59.9708,-128.7404 " style="stroke:#000000;stroke-width:0.25;"/>
        <!-- Line -->
        <path d="M-59.9212,-129.366 L-59.9584,-129.0546 " style="stroke:#000000;stroke-width:0.25;"/>
        <!-- Line -->
        <path d="M274.0087,-25.8746 L-30.2559,-25.8746 " style="stroke:#000000;stroke-width:0.25;"/>
        <!-- Line -->
        <path d="M282.9156,6.1049 L283.1116,5.8599 " style="stroke:#000000;stroke-width:0.25;"/>
        <!-- Line -->
        <path d="M281.9646,-132.1511 L281.6906,-132.3054 " style="stroke:#000000;stroke-width:0.25;"/>
        <!-- Circle -->
        <circle cx="-54.907502153633686" cy="-62.63113268971888" r="0.9239823833873629" style="stroke:#000000;stroke-width:0.25;"/>
        <!-- Line -->
        <path d="M-58.3227,6.7449 L-58.061,6.9189 " style="stroke:#000000;stroke-width:0.25;"/>
        <!-- Line -->
        <path d="M-59.9584,3.8219 L-59.9212,4.1329 " style="stroke:#000000;stroke-width:0.25;"/>
        <!-- Line -->
        <path d="M-59.8606,4.4419 L-59.7751,4.7449 " style="stroke:#000000;stroke-width:0.25;"/>
        <!-- Line -->
        <path d="M-56.9048,7.3979 L-56.5961,7.4589 " style="stroke:#000000;stroke-width:0.25;"/>
        <!-- Circle -->
        <circle cx="278.87818486966626" cy="2.4820174862549393" r="0.9239823833873629" style="stroke:#000000;stroke-width:0.25;"/>
        <!-- Line -->
        <path d="M282.4716,-131.7817 L282.2266,-131.9774 " style="stroke:#000000;stroke-width:0.25;"/>
        <!-- Circle -->
        <circle cx="278.87818486966626" cy="-62.5967776034097" r="0.9239823833873629" style="stroke:#000000;stroke-width:0.25;"/>
        <!-- Line -->
        <path d="M283.8245,4.1329 L283.8625,3.8219 " style="stroke:#000000;stroke-width:0.25;"/>
        <!-- Line -->
        <path d="M-57.7867,-132.3054 L-58.061,-132.1511 " style="stroke:#000000;stroke-width:0.25;"/>
        <!-- Line -->
        <path d="M280.8086,-132.6306 L280.4996,-132.6913 " style="stroke:#000000;stroke-width:0.25;"/>
        <!-- Line -->
        <path d="M-49.972,-48.3802 L-49.972,-122.7406 " style="stroke:#000000;stroke-width:0.25;"/>
        <!-- Line -->
        <path d="M-57.5015,7.2039 L-57.2079,7.3129 " style="stroke:#000000;stroke-width:0.25;"/>
        <!-- Line -->
        <path d="M-58.568,6.5509 L-58.3227,6.7449 " style="stroke:#000000;stroke-width:0.25;"/>
        <!-- Circle -->
        <circle cx="167.58581139008277" cy="-127.71374207435856" r="0.9239823833873629" style="stroke:#000000;stroke-width:0.25;"/>
        <!-- Line -->
        <path d="M273.8757,-122.7406 L274.0087,-25.8746 " style="stroke:#000000;stroke-width:0.25;"/>
        <!-- Line -->
        <path d="M-30.9759,-26.5967 L-30.9223,-44.7003 " style="stroke:#000000;stroke-width:0.25;"/>
        <!-- Circle -->
        <circle cx="167.57626904476177" cy="2.510644522218044" r="0.9239823833873629" style="stroke:#000000;stroke-width:0.25;"/>
        <!-- Line -->
        <path d="M-32.7622,-46.5403 L-48.1321,-46.5403 " style="stroke:#000000;stroke-width:0.25;"/>
        <!-- Line -->
        <path d="M-58.061,6.9189 L-57.7867,7.0729 " style="stroke:#000000;stroke-width:0.25;"/>
        <!-- Circle -->
        <circle cx="278.84001548838205" cy="-127.72328441967964" r="0.9239823833873629" style="stroke:#000000;stroke-width:0.25;"/>
        <!-- Circle -->
        <circle cx="56.293437910499534" cy="-127.74236911032176" r="0.9239823833873629" style="stroke:#000000;stroke-width:0.25;"/>
        <!-- Arc -->
        <path d="M-32.7622,-46.5403 A1.8399,1.8399 0 0,1 -30.9223,-44.7003" style="stroke:#000000;stroke-width:0.25;"/>
        <!-- Line -->
        <path d="M-56.2846,7.4959 L-55.9705,7.5079 " style="stroke:#000000;stroke-width:0.25;"/>
        <!-- Line -->
        <path d="M-57.7867,7.0729 L-57.5015,7.2039 " style="stroke:#000000;stroke-width:0.25;"/>
        <!-- Line -->
        <path d="M-49.972,-122.7406 L273.8757,-122.7406 " style="stroke:#000000;stroke-width:0.25;"/>
        <!-- Circle -->
        <circle cx="-55.00820526894883" cy="2.4998030111659197" r="0.9239823833873629" style="stroke:#000000;stroke-width:0.25;"/>
        <!-- Line -->
        <path d="M-56.5961,7.4589 L-56.2846,7.4959 " style="stroke:#000000;stroke-width:0.25;"/>
        <!-- Arc -->
        <path d="M-48.1321,-46.5403 A1.8399,1.8399 0 0,1 -49.972,-48.3802" style="stroke:#000000;stroke-width:0.25;"/>
        <!-- Line -->
        <path d="M-59.9708,-128.7404 L-59.9708,3.5079 " style="stroke:#000000;stroke-width:0.25;"/>
        <!-- Line -->
        <path d="M-57.2079,7.3129 L-56.9048,7.3979 " style="stroke:#000000;stroke-width:0.25;"/>
        <!-- Circle -->
        <circle cx="-55.00292560684436" cy="-127.72328441967964" r="0.9239823833873629" style="stroke:#000000;stroke-width:0.25;"/>
        <!-- Line -->
        <path d="M281.6906,-132.3054 L281.4056,-132.4363 " style="stroke:#000000;stroke-width:0.25;"/>
        <!-- Circle -->
        <circle cx="56.293437910499534" cy="2.4820174862549393" r="0.9239823833873629" style="stroke:#000000;stroke-width:0.25;"/>
        <!-- Line -->
        <path d="M-55.9705,7.5079 L279.8756,7.5079 " style="stroke:#000000;stroke-width:0.25;"/>
        <!-- Line -->
        <path d="M-59.9212,4.1329 L-59.8606,4.4419 " style="stroke:#000000;stroke-width:0.25;"/>
        <!-- Arc -->
        <path d="M-30.2559,-25.8746 A0.72,0.72 0 0,1 -30.9759,-26.5967" style="stroke:#000000;stroke-width:0.25;"/>
    </g>
</svg>
