0
SECTION
2
HEADER
9
$INSUNITS
70
4
9
$ACADVER
1
AC1014
9
$HANDSEED
5
FFFF
0
ENDSEC
0
SECTION
2
TABLES
0
TABLE
2
VPORT
5
8
100
AcDbSymbolTable
0
ENDTAB
0
TABLE
2
LTYPE
5
5
100
AcDbSymbolTable
0
LTYPE
5
14
100
AcDbSymbolTableRecord
100
AcDbLinetypeTableRecord
2
BYBLOCK
70
0
0
LTYPE
5
15
100
AcDbSymbolTableRecord
100
AcDbLinetypeTableRecord
2
BYLAYER
70
0
0
ENDTAB
0
TABLE
2
LAYER
5
2
100
AcDbSymbolTable
70
2
0
LAYER
5
50
100
AcDbSymbolTableRecord
100
AcDbLayerTableRecord
2
0
70
0
6
CONTINUOUS
0
ENDTAB
0
TABLE
2
STYLE
5
3
100
AcDbSymbolTable
70
1
0
STYLE
5
11
100
AcDbSymbolTableRecord
100
AcDbTextStyleTableRecord
2
STANDARD
70
0
0
ENDTAB
0
TABLE
2
VIEW
5
6
100
AcDbSymbolTable
70
0
0
ENDTAB
0
TABLE
2
UCS
5
7
100
AcDbSymbolTable
70
0
0
ENDTAB
0
TABLE
2
APPID
5
9
100
AcDbSymbolTable
70
2
0
APPID
5
12
100
AcDbSymbolTableRecord
100
AcDbRegAppTableRecord
2
ACAD
70
0
0
ENDTAB
0
TABLE
2
DIMSTYLE
5
A
100
AcDbSymbolTable
70
1
0
ENDTAB
0
TABLE
2
BLOCK_RECORD
5
1
100
AcDbSymbolTable
70
1
0
BLOCK_RECORD
5
1F
100
AcDbSymbolTableRecord
100
AcDbBlockTableRecord
2
*MODEL_SPACE
0
BLOCK_RECORD
5
1B
100
AcDbSymbolTableRecord
100
AcDbBlockTableRecord
2
*PAPER_SPACE
0
ENDTAB
0
ENDSEC
0
SECTION
2
BLOCKS
0
BLOCK
5
20
100
AcDbEntity
100
AcDbBlockBegin
2
*MODEL_SPACE
0
ENDBLK
5
21
100
AcDbEntity
100
AcDbBlockEnd
0
BLOCK
5
1C
100
AcDbEntity
100
AcDbBlockBegin
2
*PAPER_SPACE
0
ENDBLK
5
1D
100
AcDbEntity
100
AcDbBlockEnd
0
ENDSEC
0
SECTION
2
ENTITIES
0
LWPOLYLINE
5
100
100
AcDbEntity
8
0
100
AcDbPolyline
90
84
70
1
43
0.0
10
343.80091540000001
20
136.87596600000003
10
343.74091540000001
20
137.18496600000003
10
343.65491539999999
20
137.48796600000003
10
343.54691540000005
20
137.78196600000004
10
343.41491539999998
20
138.06696600000004
10
343.26091539999999
20
138.34096599999992
10
343.08791540000004
20
138.60296600000004
10
342.89191540000002
20
138.84796600000004
10
342.67991539999997
20
139.07996600000004
10
342.4479154
20
139.29396600000004
10
342.20291540000005
20
139.48796600000003
10
341.94091539999999
20
139.66196599999992
10
341.66691539999999
20
139.81596599999992
10
341.38191539999991
20
139.94696600000003
10
341.08791539999999
20
140.05596600000004
10
340.78491540000005
20
140.14096600000005
10
340.47591539999996
20
140.20196600000003
10
340.16491540000004
20
140.23896599999995
10
339.85191540000005
20
140.25096600000006
10
4.0004553999999182
20
140.25096600000006
10
3.6862653999999218
20
140.23896599999995
10
3.3748153999999886
20
140.20196600000003
10
3.0661353999999896
20
140.14096600000005
10
2.7629653999999881
20
140.05596600000004
10
2.4694453999999944
20
139.94696600000003
10
2.184195399999993
20
139.81596599999992
10
1.9099553999999941
20
139.66196599999992
10
1.6481353999999904
20
139.48796600000003
10
1.402845399999979
20
139.29396600000004
10
1.1713353999999043
20
139.07996600000004
10
0.95773539999997936
20
138.84796600000004
10
0.76343139999998755
20
138.60296600000004
10
0.58980139999999182
20
138.34096599999992
10
0.43546139999998346
20
138.06696600000004
10
0.30454539999999142
20
137.78196600000004
10
0.19568139999998735
20
137.48796600000003
10
0.11024339999998745
20
137.18496600000003
10
0.049609399999983594
20
136.87596600000003
10
0.012402399999995595
20
136.56496600000003
10
0
20
136.25096600000003
10
0
20
4.0004360000000139
10
0.012402399999995595
20
3.6862559999999966
10
0.049609399999983594
20
3.3748259999999952
10
0.11024339999998745
20
3.0661359999999993
10
0.19568139999998735
20
2.7643459999999953
10
0.30454539999999142
20
2.4694460000000173
10
0.43546139999998346
20
2.1841959999999983
10
0.58980139999999182
20
1.9113360000000146
10
0.76343139999998755
20
1.6481359999999956
10
0.95773539999997936
20
1.4028459999999843
10
1.1713353999999043
20
1.1713359999999984
10
1.402845399999979
20
0.95911599999999986
10
1.6481353999999904
20
0.7634359999999818
10
1.9099553999999941
20
0.58979600000001575
10
2.184195399999993
20
0.43545799999998192
10
2.4694453999999944
20
0.30454599999999665
10
2.7629653999999881
20
0.19568200000001479
10
3.0661353999999896
20
0.11024299999999876
10
3.3748153999999886
20
0.049606999999984858
10
3.6862653999999218
20
0.012403999999999193
10
4.0004553999999359
20
0
10
339.85191540000005
20
0.00137899999999469
10
340.16491540000004
20
0.012403999999999193
10
340.47591539999996
20
0.049606999999984858
10
340.78491540000005
20
0.11024299999999876
10
341.08791539999999
20
0.19568200000001479
10
341.38191539999991
20
0.30454599999999665
10
341.66691539999999
20
0.43545799999998192
10
341.94091539999999
20
0.58979600000001575
10
342.20291540000005
20
0.7634359999999818
10
342.4479154
20
0.95911599999999986
10
342.67991539999997
20
1.1713359999999984
10
342.89191540000002
20
1.4028459999999843
10
343.08791540000004
20
1.6481359999999956
10
343.26091539999999
20
1.9113360000000146
10
343.41491539999998
20
2.1841959999999983
10
343.54691540000005
20
2.4694460000000173
10
343.65491539999999
20
2.7643459999999953
10
343.74091540000001
20
3.0661359999999993
10
343.80091540000001
20
3.3748259999999952
10
343.83891540000002
20
3.6862559999999966
10
343.85091540000008
20
4.0004360000000005
10
343.85091540000008
20
136.25096600000003
10
343.83891540000002
20
136.56496600000003
0
CIRCLE
5
101
100
AcDbEntity
8
0
100
AcDbCircle
10
338.85524464161847
20
135.26360913373622
30
0
40
1
210
0
220
0
230
1
0
CIRCLE
5
102
100
AcDbEntity
8
0
100
AcDbCircle
10
116.28066124611166
20
135.26360913373622
30
0
40
1
210
0
220
0
230
1
0
CIRCLE
5
103
100
AcDbEntity
8
0
100
AcDbCircle
10
321.47980489624456
20
121.68267061879837
30
0
40
1
210
0
220
0
230
1
0
CIRCLE
5
104
100
AcDbEntity
8
0
100
AcDbCircle
10
171.98550331584215
20
121.40137893717926
30
0
40
1
210
0
220
0
230
1
0
CIRCLE
5
105
100
AcDbEntity
8
0
100
AcDbCircle
10
116.26419375695846
20
5.0222374205768938
30
0
40
1
210
0
220
0
230
1
0
CIRCLE
5
106
100
AcDbEntity
8
0
100
AcDbCircle
10
338.83877715246524
20
70.118222043426698
30
0
40
1
210
0
220
0
230
1
0
CIRCLE
5
107
100
AcDbEntity
8
0
100
AcDbCircle
10
4.9933695483582952
20
135.24714164458314
30
0
40
1
210
0
220
0
230
1
0
CIRCLE
5
108
100
AcDbEntity
8
0
100
AcDbCircle
10
4.9933695483582952
20
5.0222374205768938
30
0
40
1
210
0
220
0
230
1
0
CIRCLE
5
109
100
AcDbEntity
8
0
100
AcDbCircle
10
4.976902059205095
20
70.134689532579984
30
0
40
1
210
0
220
0
230
1
0
CIRCLE
5
110
100
AcDbEntity
8
0
100
AcDbCircle
10
227.55148545471172
20
5.0387049097301473
30
0
40
1
210
0
220
0
230
1
0
CIRCLE
5
111
100
AcDbEntity
8
0
100
AcDbCircle
10
22.118238001872488
20
121.68267061879837
30
0
40
1
210
0
220
0
230
1
0
CIRCLE
5
112
100
AcDbEntity
8
0
100
AcDbCircle
10
227.56795294386512
20
135.26360913373622
30
0
40
1
210
0
220
0
230
1
0
CIRCLE
5
113
100
AcDbEntity
8
0
100
AcDbCircle
10
338.83877715246524
20
5.0222374205768938
30
0
40
1
210
0
220
0
230
1
0
ENDSEC
0
SECTION
2
OBJECTS
0
DICTIONARY
5
C
100
AcDbDictionary
3
ACAD_GROUP
350
D
3
ACAD_MLINESTYLE
350
17
0
DICTIONARY
5
D
100
AcDbDictionary
0
DICTIONARY
5
1A
330
C
100
AcDbDictionary
0
DICTIONARY
5
17
100
AcDbDictionary
0
ENDSEC
0
EOF
