0
SECTION
2
HEADER
9
$INSUNITS
70
4
9
$ACADVER
1
AC1014
9
$HANDSEED
5
FFFF
0
ENDSEC
0
SECTION
2
TABLES
0
TABLE
2
VPORT
5
8
100
AcDbSymbolTable
0
ENDTAB
0
TABLE
2
LTYPE
5
5
100
AcDbSymbolTable
0
LTYPE
5
14
100
AcDbSymbolTableRecord
100
AcDbLinetypeTableRecord
2
BYBLOCK
70
0
0
LTYPE
5
15
100
AcDbSymbolTableRecord
100
AcDbLinetypeTableRecord
2
BYLAYER
70
0
0
ENDTAB
0
TABLE
2
LAYER
5
2
100
AcDbSymbolTable
70
2
0
LAYER
5
50
100
AcDbSymbolTableRecord
100
AcDbLayerTableRecord
2
0
70
0
6
CONTINUOUS
0
ENDTAB
0
TABLE
2
STYLE
5
3
100
AcDbSymbolTable
70
1
0
STYLE
5
11
100
AcDbSymbolTableRecord
100
AcDbTextStyleTableRecord
2
STANDARD
70
0
0
ENDTAB
0
TABLE
2
VIEW
5
6
100
AcDbSymbolTable
70
0
0
ENDTAB
0
TABLE
2
UCS
5
7
100
AcDbSymbolTable
70
0
0
ENDTAB
0
TABLE
2
APPID
5
9
100
AcDbSymbolTable
70
2
0
APPID
5
12
100
AcDbSymbolTableRecord
100
AcDbRegAppTableRecord
2
ACAD
70
0
0
ENDTAB
0
TABLE
2
DIMSTYLE
5
A
100
AcDbSymbolTable
70
1
0
ENDTAB
0
TABLE
2
BLOCK_RECORD
5
1
100
AcDbSymbolTable
70
1
0
BLOCK_RECORD
5
1F
100
AcDbSymbolTableRecord
100
AcDbBlockTableRecord
2
*MODEL_SPACE
0
BLOCK_RECORD
5
1B
100
AcDbSymbolTableRecord
100
AcDbBlockTableRecord
2
*PAPER_SPACE
0
ENDTAB
0
ENDSEC
0
SECTION
2
BLOCKS
0
BLOCK
5
20
100
AcDbEntity
100
AcDbBlockBegin
2
*MODEL_SPACE
0
ENDBLK
5
21
100
AcDbEntity
100
AcDbBlockEnd
0
BLOCK
5
1C
100
AcDbEntity
100
AcDbBlockBegin
2
*PAPER_SPACE
0
ENDBLK
5
1D
100
AcDbEntity
100
AcDbBlockEnd
0
ENDSEC
0
SECTION
2
ENTITIES
0
LWPOLYLINE
5
100
100
AcDbEntity
8
0
100
AcDbPolyline
90
84
70
1
43
0.0
10
296.33018525863986
20
-93.503581525963298
10
296.41618525863987
20
-93.201791525963301
10
296.47618525863982
20
-92.893101525963289
10
296.51418525863994
20
-92.581671525963287
10
296.52618525863988
20
-92.26749152596328
10
296.52618525863988
20
39.983038474036704
10
296.51418525863994
20
40.297038474036725
10
296.47618525863982
20
40.608038474036704
10
296.41618525863987
20
40.917038474036715
10
296.33018525863986
20
41.220038474036741
10
296.22218525863991
20
41.514038474036724
10
296.09018525863985
20
41.799038474036706
10
295.93618525863985
20
42.073038474036707
10
295.76318525863996
20
42.335038474036715
10
295.56718525863982
20
42.580038474036726
10
295.35518525863984
20
42.812038474036754
10
295.12318525863986
20
43.026038474036753
10
294.87818525863992
20
43.220038474036727
10
294.61618525863992
20
43.394038474036677
10
294.3421852586398
20
43.548038474036673
10
294.05718525863989
20
43.67903847403673
10
293.76318525863996
20
43.788038474036725
10
293.46018525863991
20
43.873038474036704
10
293.15118525863988
20
43.934038474036697
10
292.84018525863991
20
43.971038474036718
10
292.52718525863986
20
43.98303847403669
10
-43.324274741360114
20
43.98303847403669
10
-43.63846474136011
20
43.971038474036703
10
-43.949914741360097
20
43.934038474036697
10
-44.258594741360113
20
43.873038474036704
10
-44.561764741360115
20
43.788038474036703
10
-44.855284741360109
20
43.67903847403673
10
-45.140534741360128
20
43.548038474036673
10
-45.414774741360127
20
43.394038474036698
10
-45.676594741360113
20
43.220038474036748
10
-45.921884741360124
20
43.026038474036753
10
-46.15339474136011
20
42.812038474036754
10
-46.366994741360088
20
42.580038474036712
10
-46.561298741360133
20
42.335038474036693
10
-46.734928741360129
20
42.073038474036707
10
-46.889268741360119
20
41.79903847403672
10
-47.020184741360112
20
41.514038474036724
10
-47.129048741360116
20
41.220038474036699
10
-47.214486741360133
20
40.91703847403673
10
-47.275120741360119
20
40.608038474036704
10
-47.312327741360107
20
40.297038474036725
10
-47.324730141360121
20
39.983038474036704
10
-47.324730141360121
20
-92.26749152596328
10
-47.312327741360107
20
-92.581671525963287
10
-47.275120741360084
20
-92.893101525963289
10
-47.214486741360098
20
-93.201791525963301
10
-47.129048741360116
20
-93.503581525963284
10
-47.020184741360112
20
-93.798481525963297
10
-46.889268741360119
20
-94.083731525963287
10
-46.734928741360093
20
-94.356591525963296
10
-46.561298741360133
20
-94.619791525963279
10
-46.366994741360124
20
-94.865081525963291
10
-46.15339474136011
20
-95.096591525963291
10
-45.921884741360124
20
-95.308811525963293
10
-45.676594741360113
20
-95.504491525963289
10
-45.414774741360091
20
-95.678131525963295
10
-45.140534741360092
20
-95.83246952596329
10
-44.855284741360109
20
-95.963381525963285
10
-44.561764741360115
20
-96.072245525963282
10
-44.258594741360113
20
-96.15768452596329
10
-43.949914741360097
20
-96.218320525963293
10
-43.63846474136011
20
-96.255523525963298
10
-43.324274741360114
20
-96.267927525963302
10
292.52718525863986
20
-96.266548525963302
10
292.84018525863991
20
-96.255523525963298
10
293.15118525863988
20
-96.218320525963293
10
293.46018525863991
20
-96.157684525963276
10
293.76318525863996
20
-96.072245525963282
10
294.05718525863989
20
-95.9633815259633
10
294.3421852586398
20
-95.83246952596329
10
294.61618525863992
20
-95.678131525963295
10
294.87818525863992
20
-95.504491525963289
10
295.12318525863986
20
-95.308811525963293
10
295.35518525863984
20
-95.096591525963291
10
295.56718525863982
20
-94.865081525963291
10
295.76318525863996
20
-94.619791525963294
10
295.93618525863985
20
-94.356591525963296
10
296.09018525863985
20
-94.083731525963287
10
296.22218525863991
20
-93.798481525963268
0
LWPOLYLINE
5
101
100
AcDbEntity
8
0
100
AcDbPolyline
90
20
70
1
43
0.0
10
-43.974714741360117
20
-91.268421525963277
10
-43.894794741360101
20
-90.758511525963286
10
-43.659134741360113
20
-90.29828152596329
10
-43.293974741360088
20
-89.933081525963289
10
-42.833704741360101
20
-89.697431525963296
10
-42.323834741360109
20
-89.617521525963298
10
-41.815344741360114
20
-89.697431525963296
10
-41.355074741360092
20
-89.933081525963289
10
-40.989874741360097
20
-90.29828152596329
10
-40.755634741360112
20
-90.758511525963286
10
-40.674314741360114
20
-91.268421525963277
10
-40.755634741360147
20
-91.776911525963271
10
-40.989874741360097
20
-92.237151525963284
10
-41.355074741360092
20
-92.602341525963283
10
-41.815344741360114
20
-92.836621525963281
10
-42.323834741360109
20
-92.917901525963288
10
-42.833704741360137
20
-92.836621525963281
10
-43.293974741360124
20
-92.602341525963283
10
-43.659134741360113
20
-92.237151525963299
10
-43.894794741360101
20
-91.776911525963271
0
LWPOLYLINE
5
102
100
AcDbEntity
8
0
100
AcDbPolyline
90
20
70
1
43
0.0
10
290.55618525863991
20
-92.602341525963283
10
290.19118525863985
20
-92.237151525963284
10
289.95718525863987
20
-91.776911525963271
10
289.87718525863988
20
-91.268421525963277
10
289.95718525863987
20
-90.758511525963286
10
290.19118525863985
20
-90.298281525963304
10
290.55618525863991
20
-89.933081525963289
10
291.01718525863987
20
-89.697431525963296
10
291.52618525863988
20
-89.617521525963298
10
292.0351852586399
20
-89.697431525963296
10
292.49518525863994
20
-89.933081525963274
10
292.86018525863989
20
-90.29828152596329
10
293.09618525863988
20
-90.758511525963286
10
293.17618525863992
20
-91.268421525963277
10
293.09618525863988
20
-91.776911525963271
10
292.86018525863989
20
-92.237151525963284
10
292.49518525863994
20
-92.602341525963283
10
292.0351852586399
20
-92.836621525963281
10
291.52618525863988
20
-92.917901525963273
10
291.01718525863987
20
-92.836621525963281
0
LWPOLYLINE
5
103
100
AcDbEntity
8
0
100
AcDbPolyline
90
20
70
1
43
0.0
10
181.57718525863993
20
-90.29828152596329
10
181.81118525863991
20
-90.758511525963286
10
181.8931852586399
20
-91.268421525963277
10
181.81118525863991
20
-91.776911525963271
10
181.57718525863993
20
-92.237151525963284
10
181.21318525863987
20
-92.602341525963283
10
180.75318525863992
20
-92.836621525963281
10
180.2431852586399
20
-92.917901525963288
10
179.73318525863988
20
-92.836621525963281
10
179.2731852586399
20
-92.602341525963283
10
178.90818525863992
20
-92.237151525963284
10
178.67418525863994
20
-91.776911525963271
10
178.59218525863992
20
-91.268421525963277
10
178.67418525863994
20
-90.758511525963286
10
178.90818525863992
20
-90.29828152596329
10
179.2731852586399
20
-89.933081525963289
10
179.73318525863988
20
-89.697431525963296
10
180.2431852586399
20
-89.617521525963298
10
180.75318525863992
20
-89.697431525963296
10
181.21318525863987
20
-89.933081525963289
0
LWPOLYLINE
5
104
100
AcDbEntity
8
0
100
AcDbPolyline
90
20
70
1
43
0.0
10
67.624185258639869
20
-90.298281525963304
10
67.988185258639859
20
-89.933081525963289
10
68.448185258639882
20
-89.697431525963296
10
68.958185258639872
20
-89.617521525963298
10
69.468185258639892
20
-89.697431525963296
10
69.928185258639886
20
-89.933081525963289
10
70.29318525863988
20
-90.29828152596329
10
70.528185258639894
20
-90.758511525963286
10
70.609185258639897
20
-91.268421525963277
10
70.528185258639894
20
-91.776911525963271
10
70.29318525863988
20
-92.237151525963284
10
69.928185258639886
20
-92.602341525963283
10
69.468185258639892
20
-92.836621525963281
10
68.958185258639872
20
-92.917901525963288
10
68.448185258639882
20
-92.836621525963281
10
67.988185258639874
20
-92.602341525963283
10
67.624185258639898
20
-92.237151525963284
10
67.390185258639917
20
-91.776911525963271
10
67.3091852586399
20
-91.268421525963277
10
67.390185258639903
20
-90.758511525963286
0
LWPOLYLINE
5
105
100
AcDbEntity
8
0
100
AcDbPolyline
90
20
70
1
43
0.0
10
-42.323834741360109
20
-27.791961525963281
10
-42.833704741360101
20
-27.710461525963286
10
-43.293974741360124
20
-27.477661525963288
10
-43.659134741360113
20
-27.11256152596329
10
-43.894794741360101
20
-26.652161525963287
10
-43.974714741360117
20
-26.142361525963274
10
-43.894794741360101
20
-25.632261525963269
10
-43.659134741360113
20
-25.172261525963275
10
-43.293974741360124
20
-24.807161525963277
10
-42.833704741360101
20
-24.572861525963283
10
-42.323834741360109
20
-24.491361525963296
10
-41.815344741360079
20
-24.572861525963276
10
-41.355074741360092
20
-24.807161525963277
10
-40.989874741360097
20
-25.172261525963275
10
-40.755634741360112
20
-25.632261525963269
10
-40.674314741360114
20
-26.142361525963274
10
-40.755634741360112
20
-26.652161525963276
10
-40.989874741360097
20
-27.11256152596328
10
-41.355074741360092
20
-27.477661525963288
10
-41.815344741360114
20
-27.710461525963296
0
LWPOLYLINE
5
106
100
AcDbEntity
8
0
100
AcDbPolyline
90
20
70
1
43
0.0
10
292.0351852586399
20
-27.710461525963296
10
291.52618525863988
20
-27.791961525963291
10
291.01718525863987
20
-27.710461525963286
10
290.55618525863991
20
-27.477661525963288
10
290.19118525863985
20
-27.11256152596329
10
289.95718525863987
20
-26.652161525963276
10
289.87718525863988
20
-26.142361525963285
10
289.95718525863987
20
-25.632261525963269
10
290.19118525863985
20
-25.172261525963275
10
290.55618525863991
20
-24.807161525963302
10
291.01718525863987
20
-24.572861525963283
10
291.52618525863988
20
-24.491361525963296
10
292.0351852586399
20
-24.572861525963276
10
292.49518525863994
20
-24.807161525963277
10
292.86018525863989
20
-25.172261525963275
10
293.09618525863988
20
-25.632261525963269
10
293.17618525863992
20
-26.142361525963274
10
293.09618525863988
20
-26.652161525963276
10
292.86018525863989
20
-27.11256152596328
10
292.49518525863994
20
-27.477661525963288
0
LWPOLYLINE
5
107
100
AcDbEntity
8
0
100
AcDbPolyline
90
4
70
1
43
0.0
10
286.52718525863986
20
33.98303847403669
10
-37.324314741360105
20
33.98303847403669
10
-37.324314741360141
20
-86.267561525963288
10
286.5271852586398
20
-86.267561525963288
0
LWPOLYLINE
5
108
100
AcDbEntity
8
0
100
AcDbPolyline
90
20
70
1
43
0.0
10
-43.659134741360113
20
39.953038474036703
10
-43.293974741360124
20
40.318038474036712
10
-42.833704741360101
20
40.553038474036725
10
-42.323834741360109
20
40.633038474036681
10
-41.815344741360114
20
40.553038474036725
10
-41.355074741360127
20
40.318038474036712
10
-40.989874741360097
20
39.953038474036703
10
-40.755634741360112
20
39.492038474036718
10
-40.674314741360114
20
38.982038474036727
10
-40.755634741360112
20
38.474038474036703
10
-40.989874741360133
20
38.01403847403671
10
-41.355074741360127
20
37.648038474036696
10
-41.815344741360114
20
37.414038474036687
10
-42.323834741360109
20
37.333038474036698
10
-42.833704741360137
20
37.414038474036708
10
-43.293974741360124
20
37.64803847403671
10
-43.659134741360113
20
38.01403847403671
10
-43.894794741360101
20
38.474038474036703
10
-43.974714741360117
20
38.982038474036727
10
-43.894794741360101
20
39.492038474036718
0
LWPOLYLINE
5
109
100
AcDbEntity
8
0
100
AcDbPolyline
90
20
70
1
43
0.0
10
289.87718525863988
20
38.982038474036727
10
289.95718525863987
20
39.492038474036718
10
290.19118525863985
20
39.953038474036703
10
290.55618525863991
20
40.318038474036712
10
291.01718525863987
20
40.553038474036725
10
291.52618525863988
20
40.633038474036681
10
292.0351852586399
20
40.553038474036725
10
292.49518525863994
20
40.318038474036712
10
292.86018525863989
20
39.953038474036703
10
293.09618525863988
20
39.492038474036718
10
293.17618525863992
20
38.982038474036727
10
293.09618525863988
20
38.474038474036703
10
292.86018525863989
20
38.01403847403671
10
292.49518525863994
20
37.648038474036696
10
292.0351852586399
20
37.414038474036687
10
291.52618525863988
20
37.333038474036698
10
291.01718525863987
20
37.414038474036708
10
290.55618525863991
20
37.64803847403671
10
290.19118525863985
20
38.01403847403671
10
289.95718525863987
20
38.474038474036703
0
LWPOLYLINE
5
110
100
AcDbEntity
8
0
100
AcDbPolyline
90
20
70
1
43
0.0
10
178.67418525863994
20
39.492038474036718
10
178.90818525863992
20
39.953038474036703
10
179.2731852586399
20
40.318038474036712
10
179.73318525863988
20
40.553038474036711
10
180.2431852586399
20
40.633038474036681
10
180.75318525863992
20
40.553038474036725
10
181.21318525863987
20
40.318038474036712
10
181.57718525863993
20
39.953038474036703
10
181.81118525863991
20
39.492038474036718
10
181.8931852586399
20
38.982038474036727
10
181.81118525863991
20
38.474038474036703
10
181.57718525863993
20
38.01403847403671
10
181.21318525863987
20
37.64803847403671
10
180.75318525863992
20
37.414038474036687
10
180.2431852586399
20
37.333038474036698
10
179.73318525863988
20
37.414038474036687
10
179.2731852586399
20
37.64803847403671
10
178.90818525863992
20
38.01403847403671
10
178.67418525863994
20
38.474038474036703
10
178.59218525863992
20
38.982038474036727
0
LWPOLYLINE
5
111
100
AcDbEntity
8
0
100
AcDbPolyline
90
20
70
1
43
0.0
10
67.390185258639903
20
39.492038474036718
10
67.624185258639898
20
39.953038474036703
10
67.988185258639874
20
40.318038474036712
10
68.448185258639882
20
40.553038474036725
10
68.958185258639872
20
40.633038474036681
10
69.468185258639892
20
40.553038474036725
10
69.928185258639886
20
40.318038474036712
10
70.29318525863988
20
39.953038474036703
10
70.528185258639894
20
39.492038474036718
10
70.609185258639911
20
38.982038474036727
10
70.528185258639908
20
38.474038474036703
10
70.29318525863988
20
38.01403847403671
10
69.928185258639886
20
37.64803847403671
10
69.468185258639892
20
37.414038474036687
10
68.958185258639872
20
37.333038474036698
10
68.448185258639867
20
37.414038474036708
10
67.988185258639859
20
37.64803847403671
10
67.624185258639898
20
38.01403847403671
10
67.390185258639903
20
38.474038474036703
10
67.3091852586399
20
38.982038474036727
0
ENDSEC
0
SECTION
2
OBJECTS
0
DICTIONARY
5
C
100
AcDbDictionary
3
ACAD_GROUP
350
D
3
ACAD_MLINESTYLE
350
17
0
DICTIONARY
5
D
100
AcDbDictionary
0
DICTIONARY
5
1A
330
C
100
AcDbDictionary
0
DICTIONARY
5
17
100
AcDbDictionary
0
ENDSEC
0
EOF
