0
SECTION
2
HEADER
9
$INSUNITS
70
4
9
$ACADVER
1
AC1014
9
$HANDSEED
5
FFFF
0
ENDSEC
0
SECTION
2
TABLES
0
TABLE
2
VPORT
5
8
100
AcDbSymbolTable
0
ENDTAB
0
TABLE
2
LTYPE
5
5
100
AcDbSymbolTable
0
LTYPE
5
14
100
AcDbSymbolTableRecord
100
AcDbLinetypeTableRecord
2
BYBLOCK
70
0
0
LTYPE
5
15
100
AcDbSymbolTableRecord
100
AcDbLinetypeTableRecord
2
BYLAYER
70
0
0
ENDTAB
0
TABLE
2
LAYER
5
2
100
AcDbSymbolTable
70
2
0
LAYER
5
50
100
AcDbSymbolTableRecord
100
AcDbLayerTableRecord
2
0
70
0
6
CONTINUOUS
0
ENDTAB
0
TABLE
2
STYLE
5
3
100
AcDbSymbolTable
70
1
0
STYLE
5
11
100
AcDbSymbolTableRecord
100
AcDbTextStyleTableRecord
2
STANDARD
70
0
0
ENDTAB
0
TABLE
2
VIEW
5
6
100
AcDbSymbolTable
70
0
0
ENDTAB
0
TABLE
2
UCS
5
7
100
AcDbSymbolTable
70
0
0
ENDTAB
0
TABLE
2
APPID
5
9
100
AcDbSymbolTable
70
2
0
APPID
5
12
100
AcDbSymbolTableRecord
100
AcDbRegAppTableRecord
2
ACAD
70
0
0
ENDTAB
0
TABLE
2
DIMSTYLE
5
A
100
AcDbSymbolTable
70
1
0
ENDTAB
0
TABLE
2
BLOCK_RECORD
5
1
100
AcDbSymbolTable
70
1
0
BLOCK_RECORD
5
1F
100
AcDbSymbolTableRecord
100
AcDbBlockTableRecord
2
*MODEL_SPACE
0
BLOCK_RECORD
5
1B
100
AcDbSymbolTableRecord
100
AcDbBlockTableRecord
2
*PAPER_SPACE
0
ENDTAB
0
ENDSEC
0
SECTION
2
BLOCKS
0
BLOCK
5
20
100
AcDbEntity
100
AcDbBlockBegin
2
*MODEL_SPACE
0
ENDBLK
5
21
100
AcDbEntity
100
AcDbBlockEnd
0
BLOCK
5
1C
100
AcDbEntity
100
AcDbBlockBegin
2
*PAPER_SPACE
0
ENDBLK
5
1D
100
AcDbEntity
100
AcDbBlockEnd
0
ENDSEC
0
SECTION
2
ENTITIES
0
LINE
5
100
100
AcDbEntity
8
0
100
AcDbLine
10
296.35553887056017
20
44.969913898210891
30
32.259146004223673
11
296.56865281871308
21
44.737100341405345
31
32.259146004223673
0
LINE
5
101
100
AcDbEntity
8
0
100
AcDbLine
10
-42.63532682643973
20
-94.15588590176128
30
32.259146004223673
11
-42.946938817856392
21
-94.118277557969606
31
32.259146004223673
0
LINE
5
102
100
AcDbEntity
8
0
100
AcDbLine
10
68.991610167768584
20
42.475227093363671
30
32.259146004223673
11
68.633435464990797
21
42.117052390585883
31
32.259146004223673
0
LINE
5
103
100
AcDbEntity
8
0
100
AcDbLine
10
-42.320133087995274
20
-94.168422016358477
30
32.259146004223673
11
-42.63532682643973
21
-94.15588590176128
31
32.259146004223673
0
LINE
5
104
100
AcDbEntity
8
0
100
AcDbLine
10
297.47662569025459
20
-90.792625442677988
30
32.259146004223673
11
297.41752686429641
21
-91.10065568706689
31
32.259146004223673
0
LINE
5
105
100
AcDbEntity
8
0
100
AcDbLine
10
297.33156493562973
20
-91.403313310914115
30
32.259146004223673
11
297.22232165128253
21
-91.698807440705693
31
32.259146004223673
0
LINE
5
106
100
AcDbEntity
8
0
100
AcDbLine
10
294.76345231671303
20
-93.973216803344584
30
32.259146004223673
11
294.46079469286576
21
-94.059178732011276
31
32.259146004223673
0
LINE
5
107
100
AcDbEntity
8
0
100
AcDbLine
10
295.87916651586573
20
-93.405509899441782
30
32.259146004223673
11
295.61590810932415
21
-93.584597250830711
31
32.259146004223673
0
LINE
5
108
100
AcDbEntity
8
0
100
AcDbLine
10
71.296464380143547
20
40.17037288098868
30
32.259146004223673
11
71.531068810462997
21
40.630627374058115
31
32.259146004223673
0
LINE
5
109
100
AcDbEntity
8
0
100
AcDbLine
10
295.87916651586573
20
45.378233059377564
30
32.259146004223673
11
296.12451618726845
21
45.184818719877541
31
32.259146004223673
0
LINE
5
110
100
AcDbEntity
8
0
100
AcDbLine
10
293.84115245706022
20
46.128609061696991
30
32.259146004223673
11
294.15097357496307
21
46.092791591419214
31
32.259146004223673
0
LINE
5
111
100
AcDbEntity
8
0
100
AcDbLine
10
296.56865281871308
20
-92.764377181469584
30
32.259146004223673
11
296.35553887056017
21
-92.997190738275194
31
32.259146004223673
0
LINE
5
112
100
AcDbEntity
8
0
100
AcDbLine
10
296.35553887056017
20
-92.993608991247413
30
32.259146004223673
11
296.12451618726845
21
-93.204932065886283
31
32.259146004223673
0
LINE
5
113
100
AcDbEntity
8
0
100
AcDbLine
10
297.22232165128253
20
-91.698807440705693
30
32.259146004223673
11
297.0915878847685
21
-91.983556329414128
31
32.259146004223673
0
LINE
5
114
100
AcDbEntity
8
0
100
AcDbLine
10
-40.351963096231401
20
39.803243810641447
30
32.259146004223673
11
-39.99378839345362
21
40.170372880988658
31
32.259146004223673
0
LINE
5
115
100
AcDbEntity
8
0
100
AcDbLine
10
-41.829433745189732
20
42.709831523683128
30
32.259146004223673
11
-42.289688238259174
21
42.475227093363671
31
32.259146004223673
0
LINE
5
116
100
AcDbEntity
8
0
100
AcDbLine
10
-42.655026435092509
20
40.17037288098868
30
32.259146004223673
11
-42.296851732314707
21
39.803243810641469
31
32.259146004223673
0
LINE
5
117
100
AcDbEntity
8
0
100
AcDbLine
10
181.24535289183808
20
42.79042083180812
30
32.259146004223673
11
180.73495394037977
21
42.709831523683128
31
32.259146004223673
0
LINE
5
118
100
AcDbEntity
8
0
100
AcDbLine
10
-41.320825667245273
20
39.488050072197026
30
32.259146004223673
11
-40.812217589300815
21
39.570430253835909
31
32.259146004223673
0
LINE
5
119
100
AcDbEntity
8
0
100
AcDbLine
10
297.47662569025459
20
42.765348602613699
30
32.259146004223673
11
297.5142340340463
21
42.453736611197016
31
32.259146004223673
0
LINE
5
120
100
AcDbEntity
8
0
100
AcDbLine
10
296.56865281871308
20
44.737100341405345
30
32.259146004223673
11
296.76385803172678
21
44.49175067000256
31
32.259146004223673
0
LINE
5
121
100
AcDbEntity
8
0
100
AcDbLine
10
295.61590810932415
20
45.551947790224787
30
32.259146004223673
11
295.87916651586573
21
45.3728604388359
31
32.259146004223673
0
LINE
5
122
100
AcDbEntity
8
0
100
AcDbLine
10
296.76385803172678
20
-92.519027510066906
30
32.259146004223673
11
296.56865281871308
21
-92.764377181469584
31
32.259146004223673
0
LINE
5
123
100
AcDbEntity
8
0
100
AcDbLine
10
71.531068810462997
20
40.630627374058115
30
32.259146004223673
11
71.611658118588011
21
41.137444578488655
31
32.259146004223673
0
LINE
5
124
100
AcDbEntity
8
0
100
AcDbLine
10
-39.986624899398066
20
42.109888896530364
30
32.259146004223673
11
-40.344799602175854
21
42.468063599308138
31
32.259146004223673
0
LINE
5
125
100
AcDbEntity
8
0
100
AcDbLine
10
297.22232165128253
20
43.671530600641439
30
32.259146004223673
11
297.33156493562956
21
43.377827344363681
31
32.259146004223673
0
LINE
5
126
100
AcDbEntity
8
0
100
AcDbLine
10
294.15097357496302
20
-94.118277557969563
30
32.259146004223673
11
293.84115245706022
21
-94.155885901761266
31
32.259146004223673
0
LINE
5
127
100
AcDbEntity
8
0
100
AcDbLine
10
69.960472738782457
20
39.488050072197026
30
32.259146004223673
11
70.470871690240799
21
39.570430253835909
31
32.259146004223673
0
LINE
5
128
100
AcDbEntity
8
0
100
AcDbLine
10
69.960472738782457
20
42.79042083180812
30
32.259146004223673
11
69.450073787324129
21
42.709831523683128
31
32.259146004223673
0
LINE
5
129
100
AcDbEntity
8
0
100
AcDbLine
10
296.93757276257418
20
44.230283136974776
30
32.259146004223673
11
297.0915878847685
21
43.956279489349782
31
32.259146004223673
0
LINE
5
130
100
AcDbEntity
8
0
100
AcDbLine
10
-43.254969062245301
20
-94.068133099580692
30
32.259146004223673
11
-43.557626686092526
21
-93.982171170914128
31
32.259146004223673
0
LINE
5
131
100
AcDbEntity
8
0
100
AcDbLine
10
-43.557626686092512
20
-93.973216803344584
30
32.259146004223673
11
-43.851329942370285
21
-93.863973518997398
31
32.259146004223673
0
LINE
5
132
100
AcDbEntity
8
0
100
AcDbLine
10
69.450073787324129
20
39.570430253835909
30
32.259146004223673
11
69.960472738782457
21
39.488050072197026
31
32.259146004223673
0
LINE
5
133
100
AcDbEntity
8
0
100
AcDbLine
10
-42.946938817856392
20
-94.118277557969606
30
32.259146004223673
11
-43.25496906224528
21
-94.059178732011276
31
32.259146004223673
0
LINE
5
134
100
AcDbEntity
8
0
100
AcDbLine
10
297.41752686429641
20
43.073378847002587
30
32.259146004223673
11
297.47662569025459
21
42.765348602613699
31
32.259146004223673
0
LINE
5
135
100
AcDbEntity
8
0
100
AcDbLine
10
71.61165811858794
20
41.142817199030347
30
32.259146004223673
11
71.531068810462983
21
41.653216150488689
31
32.259146004223673
0
LINE
5
136
100
AcDbEntity
8
0
100
AcDbLine
10
297.0915878847685
20
43.956279489349782
30
32.259146004223673
11
297.22232165128253
21
43.671530600641439
31
32.259146004223673
0
LINE
5
137
100
AcDbEntity
8
0
100
AcDbLine
10
296.76385803172678
20
44.49175067000256
30
32.259146004223673
11
296.94294538311567
21
44.230283136974776
31
32.259146004223673
0
LINE
5
138
100
AcDbEntity
8
0
100
AcDbLine
10
295.34190446169907
20
-93.73323975248347
30
32.259146004223673
11
295.05715557299089
21
-93.863973518997383
31
32.259146004223673
0
LINE
5
139
100
AcDbEntity
8
0
100
AcDbLine
10
294.15097357496307
20
46.092791591419214
30
32.259146004223673
11
294.46079469286576
21
46.031901891946987
31
32.259146004223673
0
LINE
5
140
100
AcDbEntity
8
0
100
AcDbLine
10
71.531068810463012
20
41.647843529946996
30
32.259146004223673
11
71.296464380143561
21
42.109888896530322
31
32.259146004223673
0
LINE
5
141
100
AcDbEntity
8
0
100
AcDbLine
10
294.76345231671303
20
45.945939963280331
30
32.259146004223673
11
295.05715557299089
21
45.836696678933109
31
32.259146004223673
0
LINE
5
142
100
AcDbEntity
8
0
100
AcDbLine
10
70.931126183310226
20
42.475227093363671
30
32.259146004223673
11
70.470871690240799
21
42.709831523683107
31
32.259146004223673
0
LINE
5
143
100
AcDbEntity
8
0
100
AcDbLine
10
295.05715557299089
20
-93.863973518997383
30
32.259146004223673
11
294.76345231671303
21
-93.973216803344584
31
32.259146004223673
0
LINE
5
144
100
AcDbEntity
8
0
100
AcDbLine
10
294.46079469286576
20
-94.068133099580692
30
32.259146004223673
11
294.15097357496302
21
-94.127231925539121
31
32.259146004223673
0
LINE
5
145
100
AcDbEntity
8
0
100
AcDbLine
10
71.296464380143561
20
42.109888896530322
30
32.259146004223673
11
70.938289677365788
21
42.468063599308138
31
32.259146004223673
0
LINE
5
146
100
AcDbEntity
8
0
100
AcDbLine
10
68.626271970935278
20
40.17037288098868
30
32.259146004223673
11
68.984446673713023
21
39.803243810641469
31
32.259146004223673
0
LINE
5
147
100
AcDbEntity
8
0
100
AcDbLine
10
70.470871690240799
20
42.709831523683107
30
32.259146004223673
11
69.960472738782457
21
42.79042083180812
31
32.259146004223673
0
LINE
5
148
100
AcDbEntity
8
0
100
AcDbLine
10
296.12451618726845
20
-93.208513812914106
30
32.259146004223673
11
295.87916651586573
21
-93.405509899441782
31
32.259146004223673
0
LINE
5
149
100
AcDbEntity
8
0
100
AcDbLine
10
293.52774959212968
20
-94.166631142844551
30
32.259146004223673
11
-42.320133087995274
21
-94.166631142844551
31
32.259146004223673
0
LINE
5
150
100
AcDbEntity
8
0
100
AcDbLine
10
296.93757276257418
20
-92.255769103525182
30
32.259146004223673
11
296.75848541118523
21
-92.519027510066906
31
32.259146004223673
0
LINE
5
151
100
AcDbEntity
8
0
100
AcDbLine
10
297.41752686429641
20
-91.10065568706689
30
32.259146004223673
11
297.33156493562973
21
-91.403313310914115
31
32.259146004223673
0
LINE
5
152
100
AcDbEntity
8
0
100
AcDbLine
10
297.5142340340463
20
-90.486386071802968
30
32.259146004223673
11
297.47662569025459
21
-90.797998063219566
31
32.259146004223673
0
LINE
5
153
100
AcDbEntity
8
0
100
AcDbLine
10
68.991610167768584
20
39.803243810641447
30
32.259146004223673
11
69.450073787324129
21
39.570430253835909
31
32.259146004223673
0
LINE
5
154
100
AcDbEntity
8
0
100
AcDbLine
10
68.393458414129654
20
-89.675120370011271
30
32.259146004223673
11
68.626271970935221
21
-90.135374863080813
31
32.259146004223673
0
LINE
5
155
100
AcDbEntity
8
0
100
AcDbLine
10
-45.558032401106388
20
-92.519027510066906
30
32.259146004223673
11
-45.737119752495289
21
-92.255769103525182
31
32.259146004223673
0
LINE
5
156
100
AcDbEntity
8
0
100
AcDbLine
10
-46.320944518023055
20
42.14033374626645
30
32.259146004223673
11
-46.30840840342583
21
42.453736611196987
31
32.259146004223673
0
LINE
5
157
100
AcDbEntity
8
0
100
AcDbLine
10
70.470871690240799
20
39.570430253835909
30
32.259146004223673
11
70.931126183310226
21
39.803243810641469
31
32.259146004223673
0
LINE
5
158
100
AcDbEntity
8
0
100
AcDbLine
10
-39.752020469078609
20
-88.656113340608499
30
32.259146004223673
11
-39.986624899398066
21
-88.195858847539114
31
32.259146004223673
0
LINE
5
159
100
AcDbEntity
8
0
100
AcDbLine
10
-46.016496020661968
20
-91.698807440705693
30
32.259146004223673
11
-46.125739305009191
21
-91.403313310914115
31
32.259146004223673
0
LINE
5
160
100
AcDbEntity
8
0
100
AcDbLine
10
-43.851329942370285
20
-93.863973518997398
30
32.259146004223673
11
-44.136078831078606
21
-93.73323975248347
31
32.259146004223673
0
LINE
5
161
100
AcDbEntity
8
0
100
AcDbLine
10
297.0915878847685
20
-91.983556329414128
30
32.259146004223673
11
296.93757276257418
21
-92.255769103525182
31
32.259146004223673
0
LINE
5
162
100
AcDbEntity
8
0
100
AcDbLine
10
297.52677014864344
20
42.14033374626645
30
32.259146004223673
11
297.52677014864344
21
-90.165819712816898
31
32.259146004223673
0
LINE
5
163
100
AcDbEntity
8
0
100
AcDbLine
10
297.5142340340463
20
42.453736611197016
30
32.259146004223673
11
297.52677014864344
21
42.14033374626645
31
32.259146004223673
0
LINE
5
164
100
AcDbEntity
8
0
100
AcDbLine
10
68.393458414129654
20
40.630627374058115
30
32.259146004223673
11
68.626271970935278
21
40.17037288098868
31
32.259146004223673
0
LINE
5
165
100
AcDbEntity
8
0
100
AcDbLine
10
70.931126183310226
20
39.803243810641469
30
32.259146004223673
11
71.289300886088043
21
40.170372880988658
31
32.259146004223673
0
LINE
5
166
100
AcDbEntity
8
0
100
AcDbLine
10
295.34190446169907
20
45.705962912419231
30
32.259146004223673
11
295.61590810932415
21
45.551947790224787
31
32.259146004223673
0
LINE
5
167
100
AcDbEntity
8
0
100
AcDbLine
10
297.33156493562956
20
43.377827344363681
30
32.259146004223673
11
297.41752686429641
21
43.073378847002587
31
32.259146004223673
0
LINE
5
168
100
AcDbEntity
8
0
100
AcDbLine
10
294.46079469286576
20
46.031901891946987
30
32.259146004223673
11
294.76345231671303
21
45.945939963280331
31
32.259146004223673
0
LINE
5
169
100
AcDbEntity
8
0
100
AcDbLine
10
295.05715557299089
20
45.836696678933109
30
32.259146004223673
11
295.34190446169907
21
45.705962912419231
31
32.259146004223673
0
LINE
5
170
100
AcDbEntity
8
0
100
AcDbLine
10
295.61590810932415
20
-93.579224630289104
30
32.259146004223673
11
295.34190446169907
21
-93.73323975248347
31
32.259146004223673
0
LINE
5
171
100
AcDbEntity
8
0
100
AcDbLine
10
293.84115245706022
20
-94.155885901761266
30
32.259146004223673
11
293.52774959212968
21
-94.166631142844551
31
32.259146004223673
0
LINE
5
172
100
AcDbEntity
8
0
100
AcDbLine
10
297.52677014864344
20
-90.165819712816898
30
32.259146004223673
11
297.5142340340463
21
-90.481013451261262
31
32.259146004223673
0
LINE
5
173
100
AcDbEntity
8
0
100
AcDbLine
10
293.52774959212968
20
46.141145176294209
30
32.259146004223673
11
293.84115245706022
21
46.128609061696991
31
32.259146004223673
0
LINE
5
174
100
AcDbEntity
8
0
100
AcDbLine
10
296.12451618726845
20
45.184818719877541
30
32.259146004223673
11
296.35553887056017
21
44.969913898210891
31
32.259146004223673
0
LINE
5
175
100
AcDbEntity
8
0
100
AcDbLine
10
68.311078232490772
20
41.142817199030347
30
32.259146004223673
11
68.393458414129668
21
40.635999994599757
31
32.259146004223673
0
LINE
5
176
100
AcDbEntity
8
0
100
AcDbLine
10
-45.36282718809251
20
44.737100341405345
30
32.259146004223673
11
-45.149713239939722
21
44.969913898210891
31
32.259146004223673
0
LINE
5
177
100
AcDbEntity
8
0
100
AcDbLine
10
-42.970220173536958
20
-89.166512292066869
30
32.259146004223673
11
-42.89142173892585
21
-89.675120370011271
31
32.259146004223673
0
LINE
5
178
100
AcDbEntity
8
0
100
AcDbLine
10
-42.655026435092509
20
-90.12821136902518
30
32.259146004223673
11
-42.296851732314707
21
-90.486386071802968
31
32.259146004223673
0
LINE
5
179
100
AcDbEntity
8
0
100
AcDbLine
10
-44.918690556648066
20
45.184818719877541
30
32.259146004223673
11
-44.673340885245295
21
45.378233059377564
31
32.259146004223673
0
LINE
5
180
100
AcDbEntity
8
0
100
AcDbLine
10
-46.125739305009191
20
-91.403313310914115
30
32.259146004223673
11
-46.209910360161956
21
-91.100655687066791
31
32.259146004223673
0
LINE
5
181
100
AcDbEntity
8
0
100
AcDbLine
10
-45.149713239939722
20
-92.993608991247413
30
32.259146004223673
11
-45.36282718809251
21
-92.760795434441903
31
32.259146004223673
0
LINE
5
182
100
AcDbEntity
8
0
100
AcDbLine
10
-46.308408403425851
20
-90.486386071802968
30
32.259146004223673
11
-46.320944518023069
21
-90.165819712816884
31
32.259146004223673
0
LINE
5
183
100
AcDbEntity
8
0
100
AcDbLine
10
-43.557626686092512
20
45.945939963280331
30
32.259146004223673
11
-43.25496906224528
21
46.031901891947022
31
32.259146004223673
0
LINE
5
184
100
AcDbEntity
8
0
100
AcDbLine
10
-46.125739305009176
20
43.377827344363681
30
32.259146004223673
11
-46.016496020661954
21
43.671530600641439
31
32.259146004223673
0
LINE
5
185
100
AcDbEntity
8
0
100
AcDbLine
10
-46.270800059634176
20
42.765348602613699
30
32.259146004223673
11
-46.209910360161956
21
43.073378847002587
31
32.259146004223673
0
LINE
5
186
100
AcDbEntity
8
0
100
AcDbLine
10
-45.731747131953625
20
-92.255769103525182
30
32.259146004223673
11
-45.885762254148055
21
-91.983556329414114
31
32.259146004223673
0
LINE
5
187
100
AcDbEntity
8
0
100
AcDbLine
10
-41.320825667245273
20
-90.817697671872381
30
32.259146004223673
11
-40.812217589300815
21
-90.73531749023347
31
32.259146004223673
0
LINE
5
188
100
AcDbEntity
8
0
100
AcDbLine
10
-43.851329942370285
20
45.836696678933109
30
32.259146004223673
11
-43.557626686092512
21
45.945939963280331
31
32.259146004223673
0
LINE
5
189
100
AcDbEntity
8
0
100
AcDbLine
10
-46.30840840342583
20
42.453736611196987
30
32.259146004223673
11
-46.270800059634176
21
42.765348602613699
31
32.259146004223673
0
LINE
5
190
100
AcDbEntity
8
0
100
AcDbLine
10
68.991610167768584
20
-90.500713059914105
30
32.259146004223673
11
69.450073787324129
21
-90.735317490233484
31
32.259146004223673
0
LINE
5
191
100
AcDbEntity
8
0
100
AcDbLine
10
-42.89142173892585
20
-88.656113340608499
30
32.259146004223673
11
-42.970220173536958
21
-89.166512292066869
31
32.259146004223673
0
LINE
5
192
100
AcDbEntity
8
0
100
AcDbLine
10
-45.885762254148055
20
-91.983556329414114
30
32.259146004223673
11
-46.016496020661968
21
-91.698807440705693
31
32.259146004223673
0
LINE
5
193
100
AcDbEntity
8
0
100
AcDbLine
10
-45.558032401106388
20
44.49175067000256
30
32.259146004223673
11
-45.36282718809251
21
44.737100341405345
31
32.259146004223673
0
LINE
5
194
100
AcDbEntity
8
0
100
AcDbLine
10
-39.986624899398066
20
-90.12821136902518
30
32.259146004223673
11
-39.752020469078609
21
-89.66795687595571
31
32.259146004223673
0
LINE
5
195
100
AcDbEntity
8
0
100
AcDbLine
10
-45.731747131953625
20
44.230283136974776
30
32.259146004223673
11
-45.552659780564738
21
44.491750670002546
31
32.259146004223673
0
LINE
5
196
100
AcDbEntity
8
0
100
AcDbLine
10
-44.673340885245295
20
45.378233059377564
30
32.259146004223673
11
-44.411873352217512
21
45.557320410766451
31
32.259146004223673
0
LINE
5
197
100
AcDbEntity
8
0
100
AcDbLine
10
-46.320944518023069
20
-90.165819712816884
30
32.259146004223673
11
-46.320944518023055
21
42.14033374626645
31
32.259146004223673
0
LINE
5
198
100
AcDbEntity
8
0
100
AcDbLine
10
-42.89142173892585
20
-89.675120370011271
30
32.259146004223673
11
-42.655026435092509
21
-90.12821136902518
31
32.259146004223673
0
LINE
5
199
100
AcDbEntity
8
0
100
AcDbLine
10
-14.827359252178614
20
46.141145176294209
30
32.259146004223673
11
293.52774959212968
21
46.141145176294209
31
32.259146004223673
0
LINE
5
200
100
AcDbEntity
8
0
100
AcDbLine
10
-41.829433745189732
20
-87.595916220386272
30
32.259146004223673
11
-42.289688238259174
21
-87.830520650705694
31
32.259146004223673
0
LINE
5
201
100
AcDbEntity
8
0
100
AcDbLine
10
-46.209910360161956
20
-91.100655687066791
30
32.259146004223673
11
-46.270800059634155
21
-90.792625442677988
31
32.259146004223673
0
LINE
5
202
100
AcDbEntity
8
0
100
AcDbLine
10
-44.673340885245295
20
-93.405509899441782
30
32.259146004223673
11
-44.918690556648066
21
-93.20851381291412
31
32.259146004223673
0
LINE
5
203
100
AcDbEntity
8
0
100
AcDbLine
10
297.41752686429641
20
-91.10065568706689
30
32.259146004223673
11
297.33156493562973
21
-91.403313310914115
31
32.259146004223673
0
LINE
5
204
100
AcDbEntity
8
0
100
AcDbLine
10
295.87916651586573
20
45.378233059377564
30
32.259146004223673
11
296.12451618726845
21
45.184818719877541
31
32.259146004223673
0
LINE
5
205
100
AcDbEntity
8
0
100
AcDbLine
10
294.46079469286576
20
-94.068133099580692
30
32.259146004223673
11
294.15097357496302
21
-94.127231925539121
31
32.259146004223673
0
LINE
5
206
100
AcDbEntity
8
0
100
AcDbLine
10
294.46079469286576
20
46.031901891946987
30
32.259146004223673
11
294.76345231671303
21
45.945939963280331
31
32.259146004223673
0
LINE
5
207
100
AcDbEntity
8
0
100
AcDbLine
10
295.61590810932415
20
45.551947790224787
30
32.259146004223673
11
295.87916651586573
21
45.3728604388359
31
32.259146004223673
0
LINE
5
208
100
AcDbEntity
8
0
100
AcDbLine
10
294.76345231671303
20
-93.973216803344584
30
32.259146004223673
11
294.46079469286576
21
-94.059178732011276
31
32.259146004223673
0
LINE
5
209
100
AcDbEntity
8
0
100
AcDbLine
10
295.61590810932415
20
-93.579224630289104
30
32.259146004223673
11
295.34190446169907
21
-93.73323975248347
31
32.259146004223673
0
LINE
5
210
100
AcDbEntity
8
0
100
AcDbLine
10
296.35553887056017
20
44.969913898210891
30
32.259146004223673
11
296.56865281871308
21
44.737100341405345
31
32.259146004223673
0
LINE
5
211
100
AcDbEntity
8
0
100
AcDbLine
10
296.35553887056017
20
-92.993608991247413
30
32.259146004223673
11
296.12451618726845
21
-93.204932065886283
31
32.259146004223673
0
LINE
5
212
100
AcDbEntity
8
0
100
AcDbLine
10
297.0915878847685
20
-91.983556329414128
30
32.259146004223673
11
296.93757276257418
21
-92.255769103525182
31
32.259146004223673
0
LINE
5
213
100
AcDbEntity
8
0
100
AcDbLine
10
-42.946938817856392
20
-94.118277557969606
30
32.259146004223673
11
-43.25496906224528
21
-94.059178732011276
31
32.259146004223673
0
LINE
5
214
100
AcDbEntity
8
0
100
AcDbLine
10
296.93757276257418
20
44.230283136974776
30
32.259146004223673
11
297.0915878847685
21
43.956279489349782
31
32.259146004223673
0
LINE
5
215
100
AcDbEntity
8
0
100
AcDbLine
10
293.84115245706022
20
46.128609061696991
30
32.259146004223673
11
294.15097357496307
21
46.092791591419214
31
32.259146004223673
0
LINE
5
216
100
AcDbEntity
8
0
100
AcDbLine
10
294.76345231671303
20
45.945939963280331
30
32.259146004223673
11
295.05715557299089
21
45.836696678933109
31
32.259146004223673
0
LINE
5
217
100
AcDbEntity
8
0
100
AcDbLine
10
287.52832332060188
20
-84.164602567775191
30
32.259146004223673
11
287.52832332060188
21
35.798857797079897
31
32.259146004223673
0
LINE
5
218
100
AcDbEntity
8
0
100
AcDbLine
10
-14.827359252178614
20
46.141145176294209
30
32.259146004223673
11
293.52774959212968
21
46.141145176294209
31
32.259146004223673
0
LINE
5
219
100
AcDbEntity
8
0
100
AcDbLine
10
293.52774959212968
20
-94.166631142844551
30
32.259146004223673
11
-42.320133087995274
21
-94.166631142844551
31
32.259146004223673
0
LINE
5
220
100
AcDbEntity
8
0
100
AcDbLine
10
295.34190446169907
20
45.705962912419231
30
32.259146004223673
11
295.61590810932415
21
45.551947790224787
31
32.259146004223673
0
LINE
5
221
100
AcDbEntity
8
0
100
AcDbLine
10
297.47662569025459
20
-90.792625442677988
30
32.259146004223673
11
297.41752686429641
21
-91.10065568706689
31
32.259146004223673
0
LINE
5
222
100
AcDbEntity
8
0
100
AcDbLine
10
294.15097357496307
20
46.092791591419214
30
32.259146004223673
11
294.46079469286576
21
46.031901891946987
31
32.259146004223673
0
LINE
5
223
100
AcDbEntity
8
0
100
AcDbLine
10
297.33156493562973
20
-91.403313310914115
30
32.259146004223673
11
297.22232165128253
21
-91.698807440705693
31
32.259146004223673
0
LINE
5
224
100
AcDbEntity
8
0
100
AcDbLine
10
-42.63532682643973
20
-94.15588590176128
30
32.259146004223673
11
-42.946938817856392
21
-94.118277557969606
31
32.259146004223673
0
LINE
5
225
100
AcDbEntity
8
0
100
AcDbLine
10
-44.918690556648066
20
-93.20851381291412
30
32.259146004223673
11
-45.149713239939722
21
-92.993608991247413
31
32.259146004223673
0
LINE
5
226
100
AcDbEntity
8
0
100
AcDbLine
10
293.52774959212968
20
46.141145176294209
30
32.259146004223673
11
293.84115245706022
21
46.128609061696991
31
32.259146004223673
0
LINE
5
227
100
AcDbEntity
8
0
100
AcDbLine
10
297.47662569025459
20
42.765348602613699
30
32.259146004223673
11
297.5142340340463
21
42.453736611197016
31
32.259146004223673
0
LINE
5
228
100
AcDbEntity
8
0
100
AcDbLine
10
294.15097357496302
20
-94.118277557969563
30
32.259146004223673
11
293.84115245706022
21
-94.155885901761266
31
32.259146004223673
0
LINE
5
229
100
AcDbEntity
8
0
100
AcDbLine
10
-36.320706816467492
20
-84.164602567775191
30
32.259146004223673
11
287.52832332060188
21
-84.164602567775191
31
32.259146004223673
0
LINE
5
230
100
AcDbEntity
8
0
100
AcDbLine
10
296.12451618726845
20
45.184818719877541
30
32.259146004223673
11
296.35553887056017
21
44.969913898210891
31
32.259146004223673
0
LINE
5
231
100
AcDbEntity
8
0
100
AcDbLine
10
297.22232165128253
20
-91.698807440705693
30
32.259146004223673
11
297.0915878847685
21
-91.983556329414128
31
32.259146004223673
0
LINE
5
232
100
AcDbEntity
8
0
100
AcDbLine
10
297.33156493562956
20
43.377827344363681
30
32.259146004223673
11
297.41752686429641
21
43.073378847002587
31
32.259146004223673
0
LINE
5
233
100
AcDbEntity
8
0
100
AcDbLine
10
293.84115245706022
20
-94.155885901761266
30
32.259146004223673
11
293.52774959212968
21
-94.166631142844551
31
32.259146004223673
0
LINE
5
234
100
AcDbEntity
8
0
100
AcDbLine
10
295.05715557299089
20
45.836696678933109
30
32.259146004223673
11
295.34190446169907
21
45.705962912419231
31
32.259146004223673
0
LINE
5
235
100
AcDbEntity
8
0
100
AcDbLine
10
-44.136078831078606
20
-93.73323975248347
30
32.259146004223673
11
-44.411873352217512
21
-93.579224630289104
31
32.259146004223673
0
LINE
5
236
100
AcDbEntity
8
0
100
AcDbLine
10
-36.320706816467492
20
-8.8744820068783881
30
32.259146004223673
11
-36.320706816467492
21
-84.164602567775191
31
32.259146004223673
0
LINE
5
237
100
AcDbEntity
8
0
100
AcDbLine
10
287.1988097575404
20
36.128371360141465
30
32.259146004223673
11
-14.827359252178658
21
36.128371360141465
31
32.259146004223673
0
LINE
5
238
100
AcDbEntity
8
0
100
AcDbLine
10
296.56865281871308
20
44.737100341405345
30
32.259146004223673
11
296.76385803172678
21
44.49175067000256
31
32.259146004223673
0
LINE
5
239
100
AcDbEntity
8
0
100
AcDbLine
10
297.5142340340463
20
42.453736611197016
30
32.259146004223673
11
297.52677014864344
21
42.14033374626645
31
32.259146004223673
0
LINE
5
240
100
AcDbEntity
8
0
100
AcDbLine
10
295.34190446169907
20
-93.73323975248347
30
32.259146004223673
11
295.05715557299089
21
-93.863973518997383
31
32.259146004223673
0
LINE
5
241
100
AcDbEntity
8
0
100
AcDbLine
10
-44.411873352217512
20
-93.579224630289104
30
32.259146004223673
11
-44.673340885245295
21
-93.400137278900189
31
32.259146004223673
0
LINE
5
242
100
AcDbEntity
8
0
100
AcDbLine
10
-42.320133087995274
20
-94.168422016358477
30
32.259146004223673
11
-42.63532682643973
21
-94.15588590176128
31
32.259146004223673
0
LINE
5
243
100
AcDbEntity
8
0
100
AcDbLine
10
-46.320944518023055
20
42.14033374626645
30
32.259146004223673
11
-46.30840840342583
21
42.453736611196987
31
32.259146004223673
0
LINE
5
244
100
AcDbEntity
8
0
100
AcDbLine
10
-45.36282718809251
20
-92.764377181469584
30
32.259146004223673
11
-45.558032401106388
21
-92.519027510066906
31
32.259146004223673
0
LINE
5
245
100
AcDbEntity
8
0
100
AcDbLine
10
-45.885762254148055
20
-91.983556329414114
30
32.259146004223673
11
-46.016496020661968
21
-91.698807440705693
31
32.259146004223673
0
LINE
5
246
100
AcDbEntity
8
0
100
AcDbLine
10
-46.016496020661968
20
-91.698807440705693
30
32.259146004223673
11
-46.125739305009191
21
-91.403313310914115
31
32.259146004223673
0
LINE
5
247
100
AcDbEntity
8
0
100
AcDbLine
10
-46.308408403425851
20
-90.486386071802968
30
32.259146004223673
11
-46.320944518023069
21
-90.165819712816884
31
32.259146004223673
0
LINE
5
248
100
AcDbEntity
8
0
100
AcDbLine
10
-46.125739305009191
20
-91.403313310914115
30
32.259146004223673
11
-46.209910360161956
21
-91.100655687066791
31
32.259146004223673
0
LINE
5
249
100
AcDbEntity
8
0
100
AcDbLine
10
296.12451618726845
20
-93.208513812914106
30
32.259146004223673
11
295.87916651586573
21
-93.405509899441782
31
32.259146004223673
0
LINE
5
250
100
AcDbEntity
8
0
100
AcDbLine
10
-46.209910360161956
20
-91.100655687066791
30
32.259146004223673
11
-46.270800059634155
21
-90.792625442677988
31
32.259146004223673
0
LINE
5
251
100
AcDbEntity
8
0
100
AcDbLine
10
-45.558032401106388
20
-92.519027510066906
30
32.259146004223673
11
-45.737119752495289
21
-92.255769103525182
31
32.259146004223673
0
LINE
5
252
100
AcDbEntity
8
0
100
AcDbLine
10
-45.731747131953625
20
-92.255769103525182
30
32.259146004223673
11
-45.885762254148055
21
-91.983556329414114
31
32.259146004223673
0
LINE
5
253
100
AcDbEntity
8
0
100
AcDbLine
10
-43.254969062245301
20
-94.068133099580692
30
32.259146004223673
11
-43.557626686092526
21
-93.982171170914128
31
32.259146004223673
0
LINE
5
254
100
AcDbEntity
8
0
100
AcDbLine
10
-43.557626686092512
20
-93.973216803344584
30
32.259146004223673
11
-43.851329942370285
21
-93.863973518997398
31
32.259146004223673
0
LINE
5
255
100
AcDbEntity
8
0
100
AcDbLine
10
296.93757276257418
20
-92.255769103525182
30
32.259146004223673
11
296.75848541118523
21
-92.519027510066906
31
32.259146004223673
0
LINE
5
256
100
AcDbEntity
8
0
100
AcDbLine
10
295.05715557299089
20
-93.863973518997383
30
32.259146004223673
11
294.76345231671303
21
-93.973216803344584
31
32.259146004223673
0
LINE
5
257
100
AcDbEntity
8
0
100
AcDbLine
10
-43.851329942370285
20
-93.863973518997398
30
32.259146004223673
11
-44.136078831078606
21
-93.73323975248347
31
32.259146004223673
0
LINE
5
258
100
AcDbEntity
8
0
100
AcDbLine
10
-45.731747131953625
20
44.230283136974776
30
32.259146004223673
11
-45.552659780564738
21
44.491750670002546
31
32.259146004223673
0
LINE
5
259
100
AcDbEntity
8
0
100
AcDbLine
10
-46.30840840342583
20
42.453736611196987
30
32.259146004223673
11
-46.270800059634176
21
42.765348602613699
31
32.259146004223673
0
LINE
5
260
100
AcDbEntity
8
0
100
AcDbLine
10
297.5142340340463
20
-90.486386071802968
30
32.259146004223673
11
297.47662569025459
21
-90.797998063219566
31
32.259146004223673
0
LINE
5
261
100
AcDbEntity
8
0
100
AcDbLine
10
296.56865281871308
20
-92.764377181469584
30
32.259146004223673
11
296.35553887056017
21
-92.997190738275194
31
32.259146004223673
0
LINE
5
262
100
AcDbEntity
8
0
100
AcDbLine
10
-45.558032401106388
20
44.49175067000256
30
32.259146004223673
11
-45.36282718809251
21
44.737100341405345
31
32.259146004223673
0
LINE
5
263
100
AcDbEntity
8
0
100
AcDbLine
10
-44.673340885245295
20
-93.405509899441782
30
32.259146004223673
11
-44.918690556648066
21
-93.20851381291412
31
32.259146004223673
0
LINE
5
264
100
AcDbEntity
8
0
100
AcDbLine
10
-45.149713239939722
20
-92.993608991247413
30
32.259146004223673
11
-45.36282718809251
21
-92.760795434441903
31
32.259146004223673
0
LINE
5
265
100
AcDbEntity
8
0
100
AcDbLine
10
-46.320944518023069
20
-90.165819712816884
30
32.259146004223673
11
-46.320944518023055
21
42.14033374626645
31
32.259146004223673
0
LINE
5
266
100
AcDbEntity
8
0
100
AcDbLine
10
297.41752686429641
20
43.073378847002587
30
32.259146004223673
11
297.47662569025459
21
42.765348602613699
31
32.259146004223673
0
LINE
5
267
100
AcDbEntity
8
0
100
AcDbLine
10
-46.270800059634176
20
42.765348602613699
30
32.259146004223673
11
-46.209910360161956
21
43.073378847002587
31
32.259146004223673
0
LINE
5
268
100
AcDbEntity
8
0
100
AcDbLine
10
297.52677014864344
20
-90.165819712816898
30
32.259146004223673
11
297.5142340340463
21
-90.481013451261262
31
32.259146004223673
0
LINE
5
269
100
AcDbEntity
8
0
100
AcDbLine
10
-46.209910360161956
20
43.073378847002587
30
32.259146004223673
11
-46.125739305009176
21
43.377827344363681
31
32.259146004223673
0
LINE
5
270
100
AcDbEntity
8
0
100
AcDbLine
10
295.87916651586573
20
-93.405509899441782
30
32.259146004223673
11
295.61590810932415
21
-93.584597250830711
31
32.259146004223673
0
LINE
5
271
100
AcDbEntity
8
0
100
AcDbLine
10
296.76385803172678
20
44.49175067000256
30
32.259146004223673
11
296.94294538311567
21
44.230283136974776
31
32.259146004223673
0
LINE
5
272
100
AcDbEntity
8
0
100
AcDbLine
10
-46.270800059634155
20
-90.792625442677988
30
32.259146004223673
11
-46.308408403425851
21
-90.486386071802968
31
32.259146004223673
0
LINE
5
273
100
AcDbEntity
8
0
100
AcDbLine
10
296.76385803172678
20
-92.519027510066906
30
32.259146004223673
11
296.56865281871308
21
-92.764377181469584
31
32.259146004223673
0
LINE
5
274
100
AcDbEntity
8
0
100
AcDbLine
10
297.0915878847685
20
43.956279489349782
30
32.259146004223673
11
297.22232165128253
21
43.671530600641439
31
32.259146004223673
0
LINE
5
275
100
AcDbEntity
8
0
100
AcDbLine
10
-46.125739305009176
20
43.377827344363681
30
32.259146004223673
11
-46.016496020661954
21
43.671530600641439
31
32.259146004223673
0
LINE
5
276
100
AcDbEntity
8
0
100
AcDbLine
10
-46.016496020661954
20
43.671530600641439
30
32.259146004223673
11
-45.885762254148084
21
43.956279489349782
31
32.259146004223673
0
LINE
5
277
100
AcDbEntity
8
0
100
AcDbLine
10
179.90936125047699
20
-88.195858847539114
30
32.259146004223673
11
179.67654769367132
21
-88.656113340608499
31
32.259146004223673
0
LINE
5
278
100
AcDbEntity
8
0
100
AcDbLine
10
-42.655026435092509
20
-88.195858847539114
30
32.259146004223673
11
-42.89142173892585
21
-88.656113340608499
31
32.259146004223673
0
LINE
5
279
100
AcDbEntity
8
0
100
AcDbLine
10
69.960472738782457
20
-87.515326912261287
30
32.259146004223673
11
69.450073787324129
21
-87.5959162203863
31
32.259146004223673
0
LINE
5
280
100
AcDbEntity
8
0
100
AcDbLine
10
71.296464380143547
20
-88.195858847539114
30
32.259146004223673
11
70.938289677365788
21
-87.837684144761269
31
32.259146004223673
0
LINE
5
281
100
AcDbEntity
8
0
100
AcDbLine
10
70.470871690240784
20
-87.595916220386272
30
32.259146004223673
11
69.960472738782457
21
-87.515326912261287
31
32.259146004223673
0
LINE
5
282
100
AcDbEntity
8
0
100
AcDbLine
10
297.22232165128253
20
43.671530600641439
30
32.259146004223673
11
297.33156493562956
21
43.377827344363681
31
32.259146004223673
0
LINE
5
283
100
AcDbEntity
8
0
100
AcDbLine
10
297.52677014864344
20
42.14033374626645
30
32.259146004223673
11
297.52677014864344
21
-90.165819712816898
31
32.259146004223673
0
LINE
5
284
100
AcDbEntity
8
0
100
AcDbLine
10
-44.918690556648066
20
45.184818719877541
30
32.259146004223673
11
-44.673340885245295
21
45.378233059377564
31
32.259146004223673
0
LINE
5
285
100
AcDbEntity
8
0
100
AcDbLine
10
-42.946938817856392
20
46.092791591419214
30
32.259146004223673
11
-42.63532682643973
21
46.12860906169697
31
32.259146004223673
0
LINE
5
286
100
AcDbEntity
8
0
100
AcDbLine
10
68.393458414129654
20
-89.675120370011271
30
32.259146004223673
11
68.626271970935221
21
-90.135374863080813
31
32.259146004223673
0
LINE
5
287
100
AcDbEntity
8
0
100
AcDbLine
10
-45.149713239939722
20
44.969913898210891
30
32.259146004223673
11
-44.918690556648066
21
45.184818719877541
31
32.259146004223673
0
LINE
5
288
100
AcDbEntity
8
0
100
AcDbLine
10
-44.411873352217512
20
45.551947790224787
30
32.259146004223673
11
-44.136078831078606
21
45.705962912419253
31
32.259146004223673
0
LINE
5
289
100
AcDbEntity
8
0
100
AcDbLine
10
68.626271970935278
20
-88.195858847539114
30
32.259146004223673
11
68.393458414129668
21
-88.656113340608499
31
32.259146004223673
0
LINE
5
290
100
AcDbEntity
8
0
100
AcDbLine
10
-43.851329942370285
20
45.836696678933109
30
32.259146004223673
11
-43.557626686092512
21
45.945939963280331
31
32.259146004223673
0
LINE
5
291
100
AcDbEntity
8
0
100
AcDbLine
10
-44.136078831078606
20
45.705962912419253
30
32.259146004223673
11
-43.851329942370285
21
45.836696678933109
31
32.259146004223673
0
LINE
5
292
100
AcDbEntity
8
0
100
AcDbLine
10
69.450073787324129
20
-87.5959162203863
30
32.259146004223673
11
68.99161016776857
21
-87.830520650705694
31
32.259146004223673
0
LINE
5
293
100
AcDbEntity
8
0
100
AcDbLine
10
68.311078232490772
20
-89.166512292066869
30
32.259146004223673
11
68.393458414129654
21
-89.675120370011271
31
32.259146004223673
0
LINE
5
294
100
AcDbEntity
8
0
100
AcDbLine
10
68.626271970935278
20
-90.12821136902518
30
32.259146004223673
11
68.984446673713023
21
-90.486386071802968
31
32.259146004223673
0
LINE
5
295
100
AcDbEntity
8
0
100
AcDbLine
10
-42.89142173892585
20
-89.675120370011271
30
32.259146004223673
11
-42.655026435092509
21
-90.12821136902518
31
32.259146004223673
0
LINE
5
296
100
AcDbEntity
8
0
100
AcDbLine
10
71.296464380143547
20
-90.12821136902518
30
32.259146004223673
11
71.531068810462997
21
-89.66795687595571
31
32.259146004223673
0
LINE
5
297
100
AcDbEntity
8
0
100
AcDbLine
10
69.450073787324129
20
-90.735317490233484
30
32.259146004223673
11
69.960472738782471
21
-90.817697671872381
31
32.259146004223673
0
LINE
5
298
100
AcDbEntity
8
0
100
AcDbLine
10
-41.320825667245273
20
-87.515326912261287
30
32.259146004223673
11
-41.829433745189732
21
-87.595916220386272
31
32.259146004223673
0
LINE
5
299
100
AcDbEntity
8
0
100
AcDbLine
10
-40.351963096231401
20
-87.830520650705708
30
32.259146004223673
11
-40.812217589300857
21
-87.5959162203863
31
32.259146004223673
0
LINE
5
300
100
AcDbEntity
8
0
100
AcDbLine
10
71.531068810463012
20
-88.656113340608499
30
32.259146004223673
11
71.296464380143547
21
-88.195858847539114
31
32.259146004223673
0
LINE
5
301
100
AcDbEntity
8
0
100
AcDbLine
10
-43.25496906224528
20
46.031901891947022
30
32.259146004223673
11
-42.946938817856392
21
46.092791591419214
31
32.259146004223673
0
LINE
5
302
100
AcDbEntity
8
0
100
AcDbLine
10
179.59416751203247
20
-89.166512292066869
30
32.259146004223673
11
179.67654769367132
21
-89.675120370011271
31
32.259146004223673
0
LINE
5
303
100
AcDbEntity
8
0
100
AcDbLine
10
70.931126183310226
20
-90.500713059914105
30
32.259146004223673
11
71.289300886088043
21
-90.142538357136303
31
32.259146004223673
0
LINE
5
304
100
AcDbEntity
8
0
100
AcDbLine
10
-45.36282718809251
20
44.737100341405345
30
32.259146004223673
11
-45.149713239939722
21
44.969913898210891
31
32.259146004223673
0
LINE
5
305
100
AcDbEntity
8
0
100
AcDbLine
10
-41.320825667245273
20
-90.817697671872381
30
32.259146004223673
11
-40.812217589300815
21
-90.73531749023347
31
32.259146004223673
0
LINE
5
306
100
AcDbEntity
8
0
100
AcDbLine
10
-44.673340885245295
20
45.378233059377564
30
32.259146004223673
11
-44.411873352217512
21
45.557320410766451
31
32.259146004223673
0
LINE
5
307
100
AcDbEntity
8
0
100
AcDbLine
10
-39.986624899398066
20
-90.12821136902518
30
32.259146004223673
11
-39.752020469078609
21
-89.66795687595571
31
32.259146004223673
0
LINE
5
308
100
AcDbEntity
8
0
100
AcDbLine
10
-45.885762254148084
20
43.956279489349782
30
32.259146004223673
11
-45.731747131953625
21
44.230283136974776
31
32.259146004223673
0
LINE
5
309
100
AcDbEntity
8
0
100
AcDbLine
10
71.61165811858794
20
-89.166512292066869
30
32.259146004223673
11
71.531068810463012
21
-88.656113340608499
31
32.259146004223673
0
LINE
5
310
100
AcDbEntity
8
0
100
AcDbLine
10
181.75396096978247
20
-90.73531749023347
30
32.259146004223673
11
182.21421546285197
21
-90.500713059914105
31
32.259146004223673
0
LINE
5
311
100
AcDbEntity
8
0
100
AcDbLine
10
-42.89142173892585
20
-88.656113340608499
30
32.259146004223673
11
-42.970220173536958
21
-89.166512292066869
31
32.259146004223673
0
LINE
5
312
100
AcDbEntity
8
0
100
AcDbLine
10
-42.970220173536958
20
-89.166512292066869
30
32.259146004223673
11
-42.89142173892585
21
-89.675120370011271
31
32.259146004223673
0
LINE
5
313
100
AcDbEntity
8
0
100
AcDbLine
10
179.67654769367132
20
-88.656113340608499
30
32.259146004223673
11
179.59416751203247
21
-89.166512292066869
31
32.259146004223673
0
LINE
5
314
100
AcDbEntity
8
0
100
AcDbLine
10
70.931126183310226
20
-87.830520650705708
30
32.259146004223673
11
70.470871690240784
21
-87.595916220386272
31
32.259146004223673
0
LINE
5
315
100
AcDbEntity
8
0
100
AcDbLine
10
-41.829433745189732
20
-87.595916220386272
30
32.259146004223673
11
-42.289688238259174
21
-87.830520650705694
31
32.259146004223673
0
LINE
5
316
100
AcDbEntity
8
0
100
AcDbLine
10
182.81236721649088
20
-89.675120370011271
30
32.259146004223673
11
182.89474739812977
21
-89.166512292066869
31
32.259146004223673
0
LINE
5
317
100
AcDbEntity
8
0
100
AcDbLine
10
68.991610167768584
20
-90.500713059914105
30
32.259146004223673
11
69.450073787324129
21
-90.735317490233484
31
32.259146004223673
0
LINE
5
318
100
AcDbEntity
8
0
100
AcDbLine
10
-42.289688238259174
20
-90.500713059914105
30
32.259146004223673
11
-41.829433745189732
21
-90.735317490233484
31
32.259146004223673
0
LINE
5
319
100
AcDbEntity
8
0
100
AcDbLine
10
-39.752020469078609
20
-88.656113340608499
30
32.259146004223673
11
-39.986624899398066
21
-88.195858847539114
31
32.259146004223673
0
LINE
5
320
100
AcDbEntity
8
0
100
AcDbLine
10
182.21421546285197
20
-90.500713059914105
30
32.259146004223673
11
182.5723901656296
21
-90.142538357136303
31
32.259146004223673
0
LINE
5
321
100
AcDbEntity
8
0
100
AcDbLine
10
182.89474739812977
20
-89.166512292066869
30
32.259146004223673
11
182.81236721649088
21
-88.656113340608471
31
32.259146004223673
0
LINE
5
322
100
AcDbEntity
8
0
100
AcDbLine
10
68.99161016776857
20
-87.830520650705694
30
32.259146004223673
11
68.633435464990797
21
-88.188695353483496
31
32.259146004223673
0
LINE
5
323
100
AcDbEntity
8
0
100
AcDbLine
10
-43.557626686092512
20
45.945939963280331
30
32.259146004223673
11
-43.25496906224528
21
46.031901891947022
31
32.259146004223673
0
LINE
5
324
100
AcDbEntity
8
0
100
AcDbLine
10
179.67654769367132
20
-89.675120370011271
30
32.259146004223673
11
179.90936125047699
21
-90.135374863080813
31
32.259146004223673
0
LINE
5
325
100
AcDbEntity
8
0
100
AcDbLine
10
-42.63532682643973
20
46.12860906169697
30
32.259146004223673
11
-42.320133087995274
21
46.141145176294209
31
32.259146004223673
0
LINE
5
326
100
AcDbEntity
8
0
100
AcDbLine
10
-39.671431160953617
20
-89.166512292066869
30
32.259146004223673
11
-39.752020469078609
21
-88.656113340608499
31
32.259146004223673
0
LINE
5
327
100
AcDbEntity
8
0
100
AcDbLine
10
-42.289688238259174
20
-87.830520650705694
30
32.259146004223673
11
-42.647862941036969
21
-88.188695353483496
31
32.259146004223673
0
LINE
5
328
100
AcDbEntity
8
0
100
AcDbLine
10
-40.812217589300857
20
-87.5959162203863
30
32.259146004223673
11
-41.320825667245273
21
-87.515326912261287
31
32.259146004223673
0
LINE
5
329
100
AcDbEntity
8
0
100
AcDbLine
10
-39.752020469078609
20
-89.675120370011271
30
32.259146004223673
11
-39.671431160953617
21
-89.166512292066869
31
32.259146004223673
0
LINE
5
330
100
AcDbEntity
8
0
100
AcDbLine
10
182.57955365968525
20
-90.12821136902518
30
32.259146004223673
11
182.81236721649083
21
-89.66795687595571
31
32.259146004223673
0
LINE
5
331
100
AcDbEntity
8
0
100
AcDbLine
10
69.960472738782471
20
-90.817697671872381
30
32.259146004223673
11
70.470871690240799
21
-90.73531749023347
31
32.259146004223673
0
LINE
5
332
100
AcDbEntity
8
0
100
AcDbLine
10
180.27469944731024
20
-87.830520650705708
30
32.259146004223673
11
179.91652474453235
21
-88.188695353483496
31
32.259146004223673
0
LINE
5
333
100
AcDbEntity
8
0
100
AcDbLine
10
71.531068810463012
20
-89.675120370011271
30
32.259146004223673
11
71.61165811858794
21
-89.166512292066869
31
32.259146004223673
0
LINE
5
334
100
AcDbEntity
8
0
100
AcDbLine
10
-41.829433745189732
20
-90.735317490233484
30
32.259146004223673
11
-41.320825667245273
21
-90.817697671872381
31
32.259146004223673
0
LINE
5
335
100
AcDbEntity
8
0
100
AcDbLine
10
181.24535289183808
20
-90.817697671872381
30
32.259146004223673
11
181.75396096978247
21
-90.73531749023347
31
32.259146004223673
0
LINE
5
336
100
AcDbEntity
8
0
100
AcDbLine
10
-42.289688238259174
20
-22.678542215427989
30
32.259146004223673
11
-42.647862941036969
21
-23.036716918205773
31
32.259146004223673
0
LINE
5
337
100
AcDbEntity
8
0
100
AcDbLine
10
-42.655026435092509
20
-23.043880412261288
30
32.259146004223673
11
-42.891421738925821
21
-23.507716652358532
31
32.259146004223673
0
LINE
5
338
100
AcDbEntity
8
0
100
AcDbLine
10
-42.655026435092509
20
-24.98339642780298
30
32.259146004223673
11
-42.296851732314707
21
-25.341571130580746
31
32.259146004223673
0
LINE
5
339
100
AcDbEntity
8
0
100
AcDbLine
10
179.90936125047699
20
-90.12821136902518
30
32.259146004223673
11
180.26753595325462
21
-90.486386071802968
31
32.259146004223673
0
LINE
5
340
100
AcDbEntity
8
0
100
AcDbLine
10
180.73495394037965
20
-87.595916220386272
30
32.259146004223673
11
180.27469944731024
21
-87.830520650705708
31
32.259146004223673
0
LINE
5
341
100
AcDbEntity
8
0
100
AcDbLine
10
180.27469944731024
20
-90.500713059914105
30
32.259146004223673
11
180.73495394037965
21
-90.735317490233484
31
32.259146004223673
0
LINE
5
342
100
AcDbEntity
8
0
100
AcDbLine
10
293.860852065713
20
-23.043880412261288
30
32.259146004223673
11
293.50267736293517
21
-22.685705709483528
31
32.259146004223673
0
LINE
5
343
100
AcDbEntity
8
0
100
AcDbLine
10
68.393458414129668
20
-88.656113340608499
30
32.259146004223673
11
68.311078232490772
21
-89.166512292066869
31
32.259146004223673
0
LINE
5
344
100
AcDbEntity
8
0
100
AcDbLine
10
294.17604580415741
20
-24.012742983275217
30
32.259146004223673
11
294.09724736954627
21
-23.504134905330758
31
32.259146004223673
0
LINE
5
345
100
AcDbEntity
8
0
100
AcDbLine
10
290.95784609969917
20
-89.675120370011271
30
32.259146004223673
11
291.1924505300185
21
-90.135374863080813
31
32.259146004223673
0
LINE
5
346
100
AcDbEntity
8
0
100
AcDbLine
10
292.52665129786573
20
-90.817697671872381
30
32.259146004223673
11
293.0352593758102
21
-90.73531749023347
31
32.259146004223673
0
LINE
5
347
100
AcDbEntity
8
0
100
AcDbLine
10
293.860852065713
20
-90.12821136902518
30
32.259146004223673
11
294.09724736954627
21
-89.66795687595571
31
32.259146004223673
0
LINE
5
348
100
AcDbEntity
8
0
100
AcDbLine
10
291.1924505300185
20
-88.195858847539114
30
32.259146004223673
11
290.95784609969917
21
-88.656113340608499
31
32.259146004223673
0
LINE
5
349
100
AcDbEntity
8
0
100
AcDbLine
10
293.0352593758102
20
-90.73531749023347
30
32.259146004223673
11
293.4955138688797
21
-90.500713059914105
31
32.259146004223673
0
LINE
5
350
100
AcDbEntity
8
0
100
AcDbLine
10
294.09724736954627
20
-88.656113340608499
30
32.259146004223673
11
293.860852065713
21
-88.195858847539114
31
32.259146004223673
0
LINE
5
351
100
AcDbEntity
8
0
100
AcDbLine
10
-42.655026435092509
20
-90.12821136902518
30
32.259146004223673
11
-42.296851732314707
21
-90.486386071802968
31
32.259146004223673
0
LINE
5
352
100
AcDbEntity
8
0
100
AcDbLine
10
182.81236721649088
20
-88.656113340608471
30
32.259146004223673
11
182.57955365968527
21
-88.195858847539114
31
32.259146004223673
0
LINE
5
353
100
AcDbEntity
8
0
100
AcDbLine
10
70.470871690240799
20
-90.73531749023347
30
32.259146004223673
11
70.931126183310226
21
-90.500713059914105
31
32.259146004223673
0
LINE
5
354
100
AcDbEntity
8
0
100
AcDbLine
10
-41.320825667245273
20
-25.656764869025189
30
32.259146004223673
11
-40.812217589300815
21
-25.574384687386313
31
32.259146004223673
0
LINE
5
355
100
AcDbEntity
8
0
100
AcDbLine
10
-39.986624899398066
20
-23.043880412261288
30
32.259146004223673
11
-40.344799602175854
21
-22.685705709483528
31
32.259146004223673
0
LINE
5
356
100
AcDbEntity
8
0
100
AcDbLine
10
180.73495394037965
20
-90.735317490233484
30
32.259146004223673
11
181.24535289183808
21
-90.817697671872381
31
32.259146004223673
0
LINE
5
357
100
AcDbEntity
8
0
100
AcDbLine
10
-39.671431160953617
20
-24.012742983275217
30
32.259146004223673
11
-39.752020469078609
21
-23.507716652358539
31
32.259146004223673
0
LINE
5
358
100
AcDbEntity
8
0
100
AcDbLine
10
-39.986624899398066
20
-88.195858847539114
30
32.259146004223673
11
-40.344799602175854
21
-87.837684144761269
31
32.259146004223673
0
LINE
5
359
100
AcDbEntity
8
0
100
AcDbLine
10
-40.812217589300836
20
-22.443937785108517
30
32.259146004223673
11
-41.320825667245288
21
-22.361557603469606
31
32.259146004223673
0
LINE
5
360
100
AcDbEntity
8
0
100
AcDbLine
10
290.95784609969917
20
-88.656113340608499
30
32.259146004223673
11
290.87725679157421
21
-89.166512292066898
31
32.259146004223673
0
LINE
5
361
100
AcDbEntity
8
0
100
AcDbLine
10
-40.812217589300815
20
-90.73531749023347
30
32.259146004223673
11
-40.351963096231387
21
-90.500713059914105
31
32.259146004223673
0
LINE
5
362
100
AcDbEntity
8
0
100
AcDbLine
10
-40.351963096231387
20
-90.500713059914105
30
32.259146004223673
11
-39.99378839345362
21
-90.142538357136303
31
32.259146004223673
0
LINE
5
363
100
AcDbEntity
8
0
100
AcDbLine
10
-42.891421738925821
20
-23.507716652358532
30
32.259146004223673
11
-42.970220173536958
21
-24.016324730302987
31
32.259146004223673
0
LINE
5
364
100
AcDbEntity
8
0
100
AcDbLine
10
292.01804321992137
20
-22.443937785108517
30
32.259146004223673
11
291.55599785333806
21
-22.678542215427939
31
32.259146004223673
0
LINE
5
365
100
AcDbEntity
8
0
100
AcDbLine
10
291.1924505300185
20
-24.98339642780298
30
32.259146004223673
11
291.55062523279639
21
-25.341571130580746
31
32.259146004223673
0
LINE
5
366
100
AcDbEntity
8
0
100
AcDbLine
10
-40.351963096231401
20
-25.348734624636293
30
32.259146004223673
11
-39.99378839345362
21
-24.990559921858537
31
32.259146004223673
0
LINE
5
367
100
AcDbEntity
8
0
100
AcDbLine
10
293.860852065713
20
-24.98339642780298
30
32.259146004223673
11
294.09724736954627
21
-24.523141934733523
31
32.259146004223673
0
LINE
5
368
100
AcDbEntity
8
0
100
AcDbLine
10
-41.829433745189732
20
-22.443937785108517
30
32.259146004223673
11
-42.289688238259174
21
-22.678542215427989
31
32.259146004223673
0
LINE
5
369
100
AcDbEntity
8
0
100
AcDbLine
10
294.17604580415741
20
-89.166512292066869
30
32.259146004223673
11
294.09724736954627
21
-88.656113340608499
31
32.259146004223673
0
LINE
5
370
100
AcDbEntity
8
0
100
AcDbLine
10
291.55599785333806
20
-90.500713059914105
30
32.259146004223673
11
292.01804321992131
21
-90.735317490233484
31
32.259146004223673
0
LINE
5
371
100
AcDbEntity
8
0
100
AcDbLine
10
-39.752020469078609
20
-23.507716652358539
30
32.259146004223673
11
-39.986624899398066
21
-23.047462159289065
31
32.259146004223673
0
LINE
5
372
100
AcDbEntity
8
0
100
AcDbLine
10
291.1924505300185
20
-90.12821136902518
30
32.259146004223673
11
291.55062523279639
21
-90.486386071802968
31
32.259146004223673
0
LINE
5
373
100
AcDbEntity
8
0
100
AcDbLine
10
292.01804321992137
20
-25.581548181441882
30
32.259146004223673
11
292.52665129786573
21
-25.663928363080792
31
32.259146004223673
0
LINE
5
374
100
AcDbEntity
8
0
100
AcDbLine
10
292.52665129786573
20
-87.515326912261287
30
32.259146004223673
11
292.01804321992137
21
-87.5959162203863
31
32.259146004223673
0
LINE
5
375
100
AcDbEntity
8
0
100
AcDbLine
10
-41.829433745189732
20
-25.581548181441882
30
32.259146004223673
11
-41.320825667245273
21
-25.663928363080792
31
32.259146004223673
0
LINE
5
376
100
AcDbEntity
8
0
100
AcDbLine
10
-42.289688238259174
20
-25.348734624636293
30
32.259146004223673
11
-41.829433745189732
21
-25.581548181441882
31
32.259146004223673
0
LINE
5
377
100
AcDbEntity
8
0
100
AcDbLine
10
293.0352593758102
20
-25.581548181441882
30
32.259146004223673
11
293.4955138688797
21
-25.348734624636329
31
32.259146004223673
0
LINE
5
378
100
AcDbEntity
8
0
100
AcDbLine
10
293.4955138688797
20
-90.500713059914105
30
32.259146004223673
11
293.85368857165747
21
-90.142538357136303
31
32.259146004223673
0
LINE
5
379
100
AcDbEntity
8
0
100
AcDbLine
10
-42.970220173536958
20
-24.012742983275217
30
32.259146004223673
11
-42.89142173892585
21
-24.523141934733559
31
32.259146004223673
0
LINE
5
380
100
AcDbEntity
8
0
100
AcDbLine
10
293.0352593758102
20
-87.595916220386272
30
32.259146004223673
11
292.52665129786573
21
-87.515326912261287
31
32.259146004223673
0
LINE
5
381
100
AcDbEntity
8
0
100
AcDbLine
10
293.860852065713
20
-88.195858847539114
30
32.259146004223673
11
293.50267736293517
21
-87.837684144761269
31
32.259146004223673
0
LINE
5
382
100
AcDbEntity
8
0
100
AcDbLine
10
291.55599785333806
20
-25.348734624636293
30
32.259146004223673
11
292.01804321992137
21
-25.581548181441882
31
32.259146004223673
0
LINE
5
383
100
AcDbEntity
8
0
100
AcDbLine
10
291.1924505300185
20
-23.043880412261288
30
32.259146004223673
11
290.95784609969917
21
-23.504134905330751
31
32.259146004223673
0
LINE
5
384
100
AcDbEntity
8
0
100
AcDbLine
10
290.87725679157421
20
-24.012742983275217
30
32.259146004223673
11
290.95784609969917
21
-24.523141934733559
31
32.259146004223673
0
LINE
5
385
100
AcDbEntity
8
0
100
AcDbLine
10
294.09724736954627
20
-24.523141934733523
30
32.259146004223673
11
294.17604580415741
21
-24.012742983275217
31
32.259146004223673
0
LINE
5
386
100
AcDbEntity
8
0
100
AcDbLine
10
292.52665129786573
20
-25.656764869025189
30
32.259146004223673
11
293.0352593758102
21
-25.574384687386313
31
32.259146004223673
0
LINE
5
387
100
AcDbEntity
8
0
100
AcDbLine
10
-41.320825667245288
20
-22.361557603469606
30
32.259146004223673
11
-41.829433745189732
21
-22.443937785108517
31
32.259146004223673
0
LINE
5
388
100
AcDbEntity
8
0
100
AcDbLine
10
292.01804321992137
20
-87.5959162203863
30
32.259146004223673
11
291.55599785333806
21
-87.830520650705694
31
32.259146004223673
0
LINE
5
389
100
AcDbEntity
8
0
100
AcDbLine
10
292.01804321992131
20
-90.735317490233484
30
32.259146004223673
11
292.52665129786573
21
-90.817697671872381
31
32.259146004223673
0
LINE
5
390
100
AcDbEntity
8
0
100
AcDbLine
10
294.09724736954627
20
-23.507716652358532
30
32.259146004223673
11
293.860852065713
21
-23.047462159289065
31
32.259146004223673
0
LINE
5
391
100
AcDbEntity
8
0
100
AcDbLine
10
293.0352593758102
20
-22.443937785108517
30
32.259146004223673
11
292.52665129786578
21
-22.361557603469606
31
32.259146004223673
0
LINE
5
392
100
AcDbEntity
8
0
100
AcDbLine
10
292.52665129786578
20
-22.361557603469606
30
32.259146004223673
11
292.01804321992137
21
-22.443937785108517
31
32.259146004223673
0
LINE
5
393
100
AcDbEntity
8
0
100
AcDbLine
10
182.21421546285197
20
-87.830520650705708
30
32.259146004223673
11
181.75396096978247
21
-87.5959162203863
31
32.259146004223673
0
LINE
5
394
100
AcDbEntity
8
0
100
AcDbLine
10
291.55599785333806
20
-87.830520650705694
30
32.259146004223673
11
291.19782315056028
21
-88.188695353483496
31
32.259146004223673
0
LINE
5
395
100
AcDbEntity
8
0
100
AcDbLine
10
182.57955365968527
20
-88.195858847539114
30
32.259146004223673
11
182.22137895690739
21
-87.837684144761269
31
32.259146004223673
0
LINE
5
396
100
AcDbEntity
8
0
100
AcDbLine
10
293.4955138688797
20
-87.830520650705708
30
32.259146004223673
11
293.0352593758102
21
-87.595916220386272
31
32.259146004223673
0
LINE
5
397
100
AcDbEntity
8
0
100
AcDbLine
10
293.4955138688797
20
-22.678542215427989
30
32.259146004223673
11
293.0352593758102
21
-22.443937785108517
31
32.259146004223673
0
LINE
5
398
100
AcDbEntity
8
0
100
AcDbLine
10
181.75396096978247
20
-87.5959162203863
30
32.259146004223673
11
181.24535289183808
21
-87.515326912261287
31
32.259146004223673
0
LINE
5
399
100
AcDbEntity
8
0
100
AcDbLine
10
290.87725679157421
20
-89.166512292066898
30
32.259146004223673
11
290.95784609969917
21
-89.675120370011271
31
32.259146004223673
0
LINE
5
400
100
AcDbEntity
8
0
100
AcDbLine
10
294.09724736954627
20
-89.675120370011271
30
32.259146004223673
11
294.17604580415741
21
-89.166512292066869
31
32.259146004223673
0
LINE
5
401
100
AcDbEntity
8
0
100
AcDbLine
10
-42.89142173892585
20
-24.523141934733559
30
32.259146004223673
11
-42.655026435092509
21
-24.98339642780298
31
32.259146004223673
0
LINE
5
402
100
AcDbEntity
8
0
100
AcDbLine
10
-40.812217589300836
20
-25.581548181441882
30
32.259146004223673
11
-40.351963096231401
21
-25.348734624636293
31
32.259146004223673
0
LINE
5
403
100
AcDbEntity
8
0
100
AcDbLine
10
-39.986624899398066
20
-24.98339642780298
30
32.259146004223673
11
-39.752020469078609
21
-24.523141934733523
31
32.259146004223673
0
LINE
5
404
100
AcDbEntity
8
0
100
AcDbLine
10
182.81236721649088
20
40.630627374058115
30
32.259146004223673
11
182.89474739812977
21
41.137444578488655
31
32.259146004223673
0
LINE
5
405
100
AcDbEntity
8
0
100
AcDbLine
10
181.75396096978247
20
42.709831523683128
30
32.259146004223673
11
181.24535289183808
21
42.79042083180812
31
32.259146004223673
0
LINE
5
406
100
AcDbEntity
8
0
100
AcDbLine
10
-42.289688238259174
20
42.475227093363671
30
32.259146004223673
11
-42.647862941036969
21
42.117052390585883
31
32.259146004223673
0
LINE
5
407
100
AcDbEntity
8
0
100
AcDbLine
10
291.55599785333806
20
-22.678542215427939
30
32.259146004223673
11
291.19782315056028
21
-23.036716918205773
31
32.259146004223673
0
LINE
5
408
100
AcDbEntity
8
0
100
AcDbLine
10
293.4955138688797
20
-25.348734624636329
30
32.259146004223673
11
293.85368857165747
21
-24.990559921858537
31
32.259146004223673
0
LINE
5
409
100
AcDbEntity
8
0
100
AcDbLine
10
290.95784609969917
20
-24.523141934733559
30
32.259146004223673
11
291.1924505300185
21
-24.98339642780298
31
32.259146004223673
0
LINE
5
410
100
AcDbEntity
8
0
100
AcDbLine
10
-39.671431160953617
20
41.142817199030347
30
32.259146004223673
11
-39.752020469078609
21
41.653216150488689
31
32.259146004223673
0
LINE
5
411
100
AcDbEntity
8
0
100
AcDbLine
10
-39.752020469078609
20
-24.523141934733523
30
32.259146004223673
11
-39.671431160953617
21
-24.012742983275217
31
32.259146004223673
0
LINE
5
412
100
AcDbEntity
8
0
100
AcDbLine
10
293.860852065713
20
40.17037288098868
30
32.259146004223673
11
294.09724736954627
21
40.630627374058115
31
32.259146004223673
0
LINE
5
413
100
AcDbEntity
8
0
100
AcDbLine
10
292.01804321992137
20
39.570430253835909
30
32.259146004223673
11
292.52665129786573
21
39.488050072197026
31
32.259146004223673
0
LINE
5
414
100
AcDbEntity
8
0
100
AcDbLine
10
181.24535289183808
20
-87.515326912261287
30
32.259146004223673
11
180.73495394037965
21
-87.595916220386272
31
32.259146004223673
0
LINE
5
415
100
AcDbEntity
8
0
100
AcDbLine
10
-40.351963096231401
20
-22.678542215427989
30
32.259146004223673
11
-40.812217589300836
21
-22.443937785108517
31
32.259146004223673
0
LINE
5
416
100
AcDbEntity
8
0
100
AcDbLine
10
290.95784609969917
20
-23.507716652358532
30
32.259146004223673
11
290.87725679157421
21
-24.016324730302987
31
32.259146004223673
0
LINE
5
417
100
AcDbEntity
8
0
100
AcDbLine
10
292.01804321992137
20
42.709831523683128
30
32.259146004223673
11
291.55599785333806
21
42.475227093363671
31
32.259146004223673
0
LINE
5
418
100
AcDbEntity
8
0
100
AcDbLine
10
294.09724736954627
20
40.630627374058115
30
32.259146004223673
11
294.17604580415741
21
41.137444578488655
31
32.259146004223673
0
LINE
5
419
100
AcDbEntity
8
0
100
AcDbLine
10
-42.655026435092509
20
42.109888896530364
30
32.259146004223673
11
-42.891421738925821
21
41.647843529947025
31
32.259146004223673
0
LINE
5
420
100
AcDbEntity
8
0
100
AcDbLine
10
294.17604580415741
20
41.142817199030347
30
32.259146004223673
11
294.09724736954627
21
41.653216150488689
31
32.259146004223673
0
LINE
5
421
100
AcDbEntity
8
0
100
AcDbLine
10
290.87725679157421
20
41.142817199030347
30
32.259146004223673
11
290.95784609969917
21
40.635999994599757
31
32.259146004223673
0
LINE
5
422
100
AcDbEntity
8
0
100
AcDbLine
10
179.90936125047699
20
42.109888896530364
30
32.259146004223673
11
179.67654769367132
21
41.647843529947025
31
32.259146004223673
0
LINE
5
423
100
AcDbEntity
8
0
100
AcDbLine
10
182.57955365968525
20
40.17037288098868
30
32.259146004223673
11
182.81236721649088
21
40.630627374058115
31
32.259146004223673
0
LINE
5
424
100
AcDbEntity
8
0
100
AcDbLine
10
68.626271970935278
20
42.109888896530364
30
32.259146004223673
11
68.393458414129668
21
41.647843529947025
31
32.259146004223673
0
LINE
5
425
100
AcDbEntity
8
0
100
AcDbLine
10
179.59416751203247
20
41.142817199030347
30
32.259146004223673
11
179.67654769367132
21
40.635999994599757
31
32.259146004223673
0
LINE
5
426
100
AcDbEntity
8
0
100
AcDbLine
10
68.393458414129668
20
41.647843529947025
30
32.259146004223673
11
68.311078232490772
21
41.137444578488655
31
32.259146004223673
0
LINE
5
427
100
AcDbEntity
8
0
100
AcDbLine
10
-41.320825667245273
20
42.79042083180812
30
32.259146004223673
11
-41.829433745189732
21
42.709831523683128
31
32.259146004223673
0
LINE
5
428
100
AcDbEntity
8
0
100
AcDbLine
10
180.73495394037977
20
42.709831523683128
30
32.259146004223673
11
180.27469944731027
21
42.475227093363671
31
32.259146004223673
0
LINE
5
429
100
AcDbEntity
8
0
100
AcDbLine
10
179.90936125047699
20
40.17037288098868
30
32.259146004223673
11
180.26753595325462
21
39.803243810641469
31
32.259146004223673
0
LINE
5
430
100
AcDbEntity
8
0
100
AcDbLine
10
294.09724736954627
20
41.647843529946996
30
32.259146004223673
11
293.860852065713
21
42.109888896530322
31
32.259146004223673
0
LINE
5
431
100
AcDbEntity
8
0
100
AcDbLine
10
180.27469944731024
20
39.803243810641447
30
32.259146004223673
11
180.73495394037965
21
39.570430253835895
31
32.259146004223673
0
LINE
5
432
100
AcDbEntity
8
0
100
AcDbLine
10
290.95784609969917
20
40.630627374058115
30
32.259146004223673
11
291.1924505300185
21
40.170372880988658
31
32.259146004223673
0
LINE
5
433
100
AcDbEntity
8
0
100
AcDbLine
10
182.21421546285197
20
39.803243810641447
30
32.259146004223673
11
182.5723901656296
21
40.170372880988658
31
32.259146004223673
0
LINE
5
434
100
AcDbEntity
8
0
100
AcDbLine
10
291.55599785333806
20
39.803243810641447
30
32.259146004223673
11
292.01804321992137
21
39.570430253835909
31
32.259146004223673
0
LINE
5
435
100
AcDbEntity
8
0
100
AcDbLine
10
-40.351963096231401
20
42.475227093363671
30
32.259146004223673
11
-40.812217589300857
21
42.709831523683107
31
32.259146004223673
0
LINE
5
436
100
AcDbEntity
8
0
100
AcDbLine
10
179.67654769367132
20
41.647843529947025
30
32.259146004223673
11
179.59416751203247
21
41.137444578488655
31
32.259146004223673
0
LINE
5
437
100
AcDbEntity
8
0
100
AcDbLine
10
293.0352593758102
20
39.570430253835909
30
32.259146004223673
11
293.4955138688797
21
39.803243810641469
31
32.259146004223673
0
LINE
5
438
100
AcDbEntity
8
0
100
AcDbLine
10
69.450073787324129
20
42.709831523683128
30
32.259146004223673
11
68.991610167768584
21
42.475227093363671
31
32.259146004223673
0
LINE
5
439
100
AcDbEntity
8
0
100
AcDbLine
10
-42.970220173536958
20
41.142817199030347
30
32.259146004223673
11
-42.89142173892585
21
40.635999994599757
31
32.259146004223673
0
LINE
5
440
100
AcDbEntity
8
0
100
AcDbLine
10
291.55599785333806
20
42.475227093363671
30
32.259146004223673
11
291.19782315056028
21
42.117052390585883
31
32.259146004223673
0
LINE
5
441
100
AcDbEntity
8
0
100
AcDbLine
10
293.4955138688797
20
39.803243810641469
30
32.259146004223673
11
293.85368857165747
21
40.170372880988658
31
32.259146004223673
0
LINE
5
442
100
AcDbEntity
8
0
100
AcDbLine
10
-39.752020469078609
20
41.647843529946996
30
32.259146004223673
11
-39.986624899398066
21
42.109888896530364
31
32.259146004223673
0
LINE
5
443
100
AcDbEntity
8
0
100
AcDbLine
10
292.52665129786573
20
42.79042083180812
30
32.259146004223673
11
292.01804321992137
21
42.709831523683128
31
32.259146004223673
0
LINE
5
444
100
AcDbEntity
8
0
100
AcDbLine
10
179.67654769367132
20
40.630627374058115
30
32.259146004223673
11
179.90936125047699
21
40.17037288098868
31
32.259146004223673
0
LINE
5
445
100
AcDbEntity
8
0
100
AcDbLine
10
292.52665129786573
20
39.488050072197026
30
32.259146004223673
11
293.0352593758102
21
39.570430253835909
31
32.259146004223673
0
LINE
5
446
100
AcDbEntity
8
0
100
AcDbLine
10
290.95784609969917
20
41.647843529946996
30
32.259146004223673
11
290.87725679157421
21
41.137444578488655
31
32.259146004223673
0
LINE
5
447
100
AcDbEntity
8
0
100
AcDbLine
10
182.81236721649088
20
41.647843529946996
30
32.259146004223673
11
182.57955365968527
21
42.109888896530322
31
32.259146004223673
0
LINE
5
448
100
AcDbEntity
8
0
100
AcDbLine
10
293.860852065713
20
42.109888896530322
30
32.259146004223673
11
293.50267736293517
21
42.468063599308138
31
32.259146004223673
0
LINE
5
449
100
AcDbEntity
8
0
100
AcDbLine
10
291.1924505300185
20
40.170372880988658
30
32.259146004223673
11
291.55062523279639
21
39.803243810641469
31
32.259146004223673
0
LINE
5
450
100
AcDbEntity
8
0
100
AcDbLine
10
-41.829433745189732
20
39.570430253835909
30
32.259146004223673
11
-41.320825667245273
21
39.488050072197026
31
32.259146004223673
0
LINE
5
451
100
AcDbEntity
8
0
100
AcDbLine
10
181.24535289183808
20
39.488050072197026
30
32.259146004223673
11
181.75396096978247
21
39.570430253835909
31
32.259146004223673
0
LINE
5
452
100
AcDbEntity
8
0
100
AcDbLine
10
-42.891421738925821
20
41.647843529947025
30
32.259146004223673
11
-42.970220173536958
21
41.142817199030347
31
32.259146004223673
0
LINE
5
453
100
AcDbEntity
8
0
100
AcDbLine
10
-40.812217589300815
20
39.570430253835909
30
32.259146004223673
11
-40.351963096231401
21
39.803243810641447
31
32.259146004223673
0
LINE
5
454
100
AcDbEntity
8
0
100
AcDbLine
10
181.75396096978247
20
39.570430253835909
30
32.259146004223673
11
182.21421546285197
21
39.803243810641447
31
32.259146004223673
0
LINE
5
455
100
AcDbEntity
8
0
100
AcDbLine
10
182.89474739812977
20
41.142817199030347
30
32.259146004223673
11
182.81236721649088
21
41.653216150488689
31
32.259146004223673
0
LINE
5
456
100
AcDbEntity
8
0
100
AcDbLine
10
-39.986624899398066
20
40.17037288098868
30
32.259146004223673
11
-39.752020469078609
21
40.630627374058115
31
32.259146004223673
0
LINE
5
457
100
AcDbEntity
8
0
100
AcDbLine
10
180.27469944731027
20
42.475227093363671
30
32.259146004223673
11
179.91652474453235
21
42.117052390585883
31
32.259146004223673
0
LINE
5
458
100
AcDbEntity
8
0
100
AcDbLine
10
-42.289688238259174
20
39.803243810641447
30
32.259146004223673
11
-41.829433745189732
21
39.570430253835909
31
32.259146004223673
0
LINE
5
459
100
AcDbEntity
8
0
100
AcDbLine
10
182.57955365968527
20
42.109888896530322
30
32.259146004223673
11
182.22137895690739
21
42.468063599308138
31
32.259146004223673
0
LINE
5
460
100
AcDbEntity
8
0
100
AcDbLine
10
293.0352593758102
20
42.709831523683128
30
32.259146004223673
11
292.52665129786573
21
42.79042083180812
31
32.259146004223673
0
LINE
5
461
100
AcDbEntity
8
0
100
AcDbLine
10
-42.89142173892585
20
40.630627374058115
30
32.259146004223673
11
-42.655026435092509
21
40.17037288098868
31
32.259146004223673
0
LINE
5
462
100
AcDbEntity
8
0
100
AcDbLine
10
-40.812217589300857
20
42.709831523683107
30
32.259146004223673
11
-41.320825667245273
21
42.79042083180812
31
32.259146004223673
0
LINE
5
463
100
AcDbEntity
8
0
100
AcDbLine
10
291.1924505300185
20
42.109888896530364
30
32.259146004223673
11
290.95784609969917
21
41.647843529946996
31
32.259146004223673
0
LINE
5
464
100
AcDbEntity
8
0
100
AcDbLine
10
293.4955138688797
20
42.475227093363671
30
32.259146004223673
11
293.0352593758102
21
42.709831523683128
31
32.259146004223673
0
LINE
5
465
100
AcDbEntity
8
0
100
AcDbLine
10
182.21421546285197
20
42.475227093363671
30
32.259146004223673
11
181.75396096978247
21
42.709831523683128
31
32.259146004223673
0
LINE
5
466
100
AcDbEntity
8
0
100
AcDbLine
10
-39.752020469078609
20
40.630627374058115
30
32.259146004223673
11
-39.671431160953617
21
41.137444578488655
31
32.259146004223673
0
LINE
5
467
100
AcDbEntity
8
0
100
AcDbLine
10
180.73495394037965
20
39.570430253835895
30
32.259146004223673
11
181.24535289183808
21
39.488050072197026
31
32.259146004223673
0
LINE
5
468
100
AcDbEntity
8
0
100
AcDbLine
10
-39.986624899398066
20
-88.195858847539114
30
32.259146004223673
11
-40.344799602175854
21
-87.837684144761269
31
32.259146004223673
0
LINE
5
469
100
AcDbEntity
8
0
100
AcDbLine
10
-44.136078831078606
20
-93.73323975248347
30
32.259146004223673
11
-44.411873352217512
21
-93.579224630289104
31
32.259146004223673
0
LINE
5
470
100
AcDbEntity
8
0
100
AcDbLine
10
-42.63532682643973
20
46.12860906169697
30
32.259146004223673
11
-42.320133087995274
21
46.141145176294209
31
32.259146004223673
0
LINE
5
471
100
AcDbEntity
8
0
100
AcDbLine
10
-45.36282718809251
20
-92.764377181469584
30
32.259146004223673
11
-45.558032401106388
21
-92.519027510066906
31
32.259146004223673
0
LINE
5
472
100
AcDbEntity
8
0
100
AcDbLine
10
69.450073787324129
20
-87.5959162203863
30
32.259146004223673
11
68.99161016776857
21
-87.830520650705694
31
32.259146004223673
0
LINE
5
473
100
AcDbEntity
8
0
100
AcDbLine
10
68.311078232490772
20
-89.166512292066869
30
32.259146004223673
11
68.393458414129654
21
-89.675120370011271
31
32.259146004223673
0
LINE
5
474
100
AcDbEntity
8
0
100
AcDbLine
10
68.626271970935278
20
-90.12821136902518
30
32.259146004223673
11
68.984446673713023
21
-90.486386071802968
31
32.259146004223673
0
LINE
5
475
100
AcDbEntity
8
0
100
AcDbLine
10
68.626271970935278
20
-88.195858847539114
30
32.259146004223673
11
68.393458414129668
21
-88.656113340608499
31
32.259146004223673
0
LINE
5
476
100
AcDbEntity
8
0
100
AcDbLine
10
-44.411873352217512
20
45.551947790224787
30
32.259146004223673
11
-44.136078831078606
21
45.705962912419253
31
32.259146004223673
0
LINE
5
477
100
AcDbEntity
8
0
100
AcDbLine
10
-42.289688238259174
20
-87.830520650705694
30
32.259146004223673
11
-42.647862941036969
21
-88.188695353483496
31
32.259146004223673
0
LINE
5
478
100
AcDbEntity
8
0
100
AcDbLine
10
68.393458414129668
20
-88.656113340608499
30
32.259146004223673
11
68.311078232490772
21
-89.166512292066869
31
32.259146004223673
0
LINE
5
479
100
AcDbEntity
8
0
100
AcDbLine
10
-46.016496020661954
20
43.671530600641439
30
32.259146004223673
11
-45.885762254148084
21
43.956279489349782
31
32.259146004223673
0
LINE
5
480
100
AcDbEntity
8
0
100
AcDbLine
10
-45.149713239939722
20
44.969913898210891
30
32.259146004223673
11
-44.918690556648066
21
45.184818719877541
31
32.259146004223673
0
LINE
5
481
100
AcDbEntity
8
0
100
AcDbLine
10
68.99161016776857
20
-87.830520650705694
30
32.259146004223673
11
68.633435464990797
21
-88.188695353483496
31
32.259146004223673
0
LINE
5
482
100
AcDbEntity
8
0
100
AcDbLine
10
-44.411873352217512
20
-93.579224630289104
30
32.259146004223673
11
-44.673340885245295
21
-93.400137278900189
31
32.259146004223673
0
LINE
5
483
100
AcDbEntity
8
0
100
AcDbLine
10
-46.209910360161956
20
43.073378847002587
30
32.259146004223673
11
-46.125739305009176
21
43.377827344363681
31
32.259146004223673
0
LINE
5
484
100
AcDbEntity
8
0
100
AcDbLine
10
-40.812217589300815
20
-90.73531749023347
30
32.259146004223673
11
-40.351963096231387
21
-90.500713059914105
31
32.259146004223673
0
LINE
5
485
100
AcDbEntity
8
0
100
AcDbLine
10
-46.270800059634155
20
-90.792625442677988
30
32.259146004223673
11
-46.308408403425851
21
-90.486386071802968
31
32.259146004223673
0
LINE
5
486
100
AcDbEntity
8
0
100
AcDbLine
10
-44.136078831078606
20
45.705962912419253
30
32.259146004223673
11
-43.851329942370285
21
45.836696678933109
31
32.259146004223673
0
LINE
5
487
100
AcDbEntity
8
0
100
AcDbLine
10
-40.351963096231387
20
-90.500713059914105
30
32.259146004223673
11
-39.99378839345362
21
-90.142538357136303
31
32.259146004223673
0
LINE
5
488
100
AcDbEntity
8
0
100
AcDbLine
10
-41.320825667245273
20
-87.515326912261287
30
32.259146004223673
11
-41.829433745189732
21
-87.595916220386272
31
32.259146004223673
0
LINE
5
489
100
AcDbEntity
8
0
100
AcDbLine
10
-40.812217589300857
20
-87.5959162203863
30
32.259146004223673
11
-41.320825667245273
21
-87.515326912261287
31
32.259146004223673
0
LINE
5
490
100
AcDbEntity
8
0
100
AcDbLine
10
-44.918690556648066
20
-93.20851381291412
30
32.259146004223673
11
-45.149713239939722
21
-92.993608991247413
31
32.259146004223673
0
LINE
5
491
100
AcDbEntity
8
0
100
AcDbLine
10
-42.289688238259174
20
-90.500713059914105
30
32.259146004223673
11
-41.829433745189732
21
-90.735317490233484
31
32.259146004223673
0
LINE
5
492
100
AcDbEntity
8
0
100
AcDbLine
10
-41.829433745189732
20
-90.735317490233484
30
32.259146004223673
11
-41.320825667245273
21
-90.817697671872381
31
32.259146004223673
0
LINE
5
493
100
AcDbEntity
8
0
100
AcDbLine
10
-39.752020469078609
20
-89.675120370011271
30
32.259146004223673
11
-39.671431160953617
21
-89.166512292066869
31
32.259146004223673
0
LINE
5
494
100
AcDbEntity
8
0
100
AcDbLine
10
-40.351963096231401
20
-87.830520650705708
30
32.259146004223673
11
-40.812217589300857
21
-87.5959162203863
31
32.259146004223673
0
LINE
5
495
100
AcDbEntity
8
0
100
AcDbLine
10
-43.25496906224528
20
46.031901891947022
30
32.259146004223673
11
-42.946938817856392
21
46.092791591419214
31
32.259146004223673
0
LINE
5
496
100
AcDbEntity
8
0
100
AcDbLine
10
-42.655026435092509
20
-88.195858847539114
30
32.259146004223673
11
-42.89142173892585
21
-88.656113340608499
31
32.259146004223673
0
LINE
5
497
100
AcDbEntity
8
0
100
AcDbLine
10
-45.885762254148084
20
43.956279489349782
30
32.259146004223673
11
-45.731747131953625
21
44.230283136974776
31
32.259146004223673
0
LINE
5
498
100
AcDbEntity
8
0
100
AcDbLine
10
-42.946938817856392
20
46.092791591419214
30
32.259146004223673
11
-42.63532682643973
21
46.12860906169697
31
32.259146004223673
0
LINE
5
499
100
AcDbEntity
8
0
100
AcDbLine
10
-39.671431160953617
20
-89.166512292066869
30
32.259146004223673
11
-39.752020469078609
21
-88.656113340608499
31
32.259146004223673
0
LINE
5
500
100
AcDbEntity
8
0
100
AcDbLine
10
-41.829433745189732
20
-22.443937785108517
30
32.259146004223673
11
-42.289688238259174
21
-22.678542215427989
31
32.259146004223673
0
LINE
5
501
100
AcDbEntity
8
0
100
AcDbLine
10
69.960472738782457
20
-87.515326912261287
30
32.259146004223673
11
69.450073787324129
21
-87.5959162203863
31
32.259146004223673
0
LINE
5
502
100
AcDbEntity
8
0
100
AcDbLine
10
180.27469944731024
20
-87.830520650705708
30
32.259146004223673
11
179.91652474453235
21
-88.188695353483496
31
32.259146004223673
0
LINE
5
503
100
AcDbEntity
8
0
100
AcDbLine
10
292.52665129786573
20
-87.515326912261287
30
32.259146004223673
11
292.01804321992137
21
-87.5959162203863
31
32.259146004223673
0
LINE
5
504
100
AcDbEntity
8
0
100
AcDbLine
10
291.55599785333806
20
-90.500713059914105
30
32.259146004223673
11
292.01804321992131
21
-90.735317490233484
31
32.259146004223673
0
LINE
5
505
100
AcDbEntity
8
0
100
AcDbLine
10
182.89474739812977
20
-89.166512292066869
30
32.259146004223673
11
182.81236721649088
21
-88.656113340608471
31
32.259146004223673
0
LINE
5
506
100
AcDbEntity
8
0
100
AcDbLine
10
180.73495394037965
20
-90.735317490233484
30
32.259146004223673
11
181.24535289183808
21
-90.817697671872381
31
32.259146004223673
0
LINE
5
507
100
AcDbEntity
8
0
100
AcDbLine
10
-42.289688238259174
20
-25.348734624636293
30
32.259146004223673
11
-41.829433745189732
21
-25.581548181441882
31
32.259146004223673
0
LINE
5
508
100
AcDbEntity
8
0
100
AcDbLine
10
291.55599785333806
20
-87.830520650705694
30
32.259146004223673
11
291.19782315056028
21
-88.188695353483496
31
32.259146004223673
0
LINE
5
509
100
AcDbEntity
8
0
100
AcDbLine
10
293.4955138688797
20
-90.500713059914105
30
32.259146004223673
11
293.85368857165747
21
-90.142538357136303
31
32.259146004223673
0
LINE
5
510
100
AcDbEntity
8
0
100
AcDbLine
10
294.17604580415741
20
-89.166512292066869
30
32.259146004223673
11
294.09724736954627
21
-88.656113340608499
31
32.259146004223673
0
LINE
5
511
100
AcDbEntity
8
0
100
AcDbLine
10
-41.829433745189732
20
-25.581548181441882
30
32.259146004223673
11
-41.320825667245273
21
-25.663928363080792
31
32.259146004223673
0
LINE
5
512
100
AcDbEntity
8
0
100
AcDbLine
10
292.01804321992137
20
-87.5959162203863
30
32.259146004223673
11
291.55599785333806
21
-87.830520650705694
31
32.259146004223673
0
LINE
5
513
100
AcDbEntity
8
0
100
AcDbLine
10
294.09724736954627
20
-88.656113340608499
30
32.259146004223673
11
293.860852065713
21
-88.195858847539114
31
32.259146004223673
0
LINE
5
514
100
AcDbEntity
8
0
100
AcDbLine
10
-42.289688238259174
20
-22.678542215427989
30
32.259146004223673
11
-42.647862941036969
21
-23.036716918205773
31
32.259146004223673
0
LINE
5
515
100
AcDbEntity
8
0
100
AcDbLine
10
182.57955365968525
20
-90.12821136902518
30
32.259146004223673
11
182.81236721649083
21
-89.66795687595571
31
32.259146004223673
0
LINE
5
516
100
AcDbEntity
8
0
100
AcDbLine
10
70.470871690240799
20
-90.73531749023347
30
32.259146004223673
11
70.931126183310226
21
-90.500713059914105
31
32.259146004223673
0
LINE
5
517
100
AcDbEntity
8
0
100
AcDbLine
10
290.95784609969917
20
-88.656113340608499
30
32.259146004223673
11
290.87725679157421
21
-89.166512292066898
31
32.259146004223673
0
LINE
5
518
100
AcDbEntity
8
0
100
AcDbLine
10
293.860852065713
20
-90.12821136902518
30
32.259146004223673
11
294.09724736954627
21
-89.66795687595571
31
32.259146004223673
0
LINE
5
519
100
AcDbEntity
8
0
100
AcDbLine
10
179.59416751203247
20
-89.166512292066869
30
32.259146004223673
11
179.67654769367132
21
-89.675120370011271
31
32.259146004223673
0
LINE
5
520
100
AcDbEntity
8
0
100
AcDbLine
10
292.52665129786573
20
-90.817697671872381
30
32.259146004223673
11
293.0352593758102
21
-90.73531749023347
31
32.259146004223673
0
LINE
5
521
100
AcDbEntity
8
0
100
AcDbLine
10
-42.89142173892585
20
-24.523141934733559
30
32.259146004223673
11
-42.655026435092509
21
-24.98339642780298
31
32.259146004223673
0
LINE
5
522
100
AcDbEntity
8
0
100
AcDbLine
10
71.296464380143547
20
-88.195858847539114
30
32.259146004223673
11
70.938289677365788
21
-87.837684144761269
31
32.259146004223673
0
LINE
5
523
100
AcDbEntity
8
0
100
AcDbLine
10
182.81236721649088
20
-88.656113340608471
30
32.259146004223673
11
182.57955365968527
21
-88.195858847539114
31
32.259146004223673
0
LINE
5
524
100
AcDbEntity
8
0
100
AcDbLine
10
-42.655026435092509
20
-24.98339642780298
30
32.259146004223673
11
-42.296851732314707
21
-25.341571130580746
31
32.259146004223673
0
LINE
5
525
100
AcDbEntity
8
0
100
AcDbLine
10
293.0352593758102
20
-87.595916220386272
30
32.259146004223673
11
292.52665129786573
21
-87.515326912261287
31
32.259146004223673
0
LINE
5
526
100
AcDbEntity
8
0
100
AcDbLine
10
71.61165811858794
20
-89.166512292066869
30
32.259146004223673
11
71.531068810463012
21
-88.656113340608499
31
32.259146004223673
0
LINE
5
527
100
AcDbEntity
8
0
100
AcDbLine
10
70.931126183310226
20
-90.500713059914105
30
32.259146004223673
11
71.289300886088043
21
-90.142538357136303
31
32.259146004223673
0
LINE
5
528
100
AcDbEntity
8
0
100
AcDbLine
10
181.24535289183808
20
-87.515326912261287
30
32.259146004223673
11
180.73495394037965
21
-87.595916220386272
31
32.259146004223673
0
LINE
5
529
100
AcDbEntity
8
0
100
AcDbLine
10
293.4955138688797
20
-87.830520650705708
30
32.259146004223673
11
293.0352593758102
21
-87.595916220386272
31
32.259146004223673
0
LINE
5
530
100
AcDbEntity
8
0
100
AcDbLine
10
291.1924505300185
20
-88.195858847539114
30
32.259146004223673
11
290.95784609969917
21
-88.656113340608499
31
32.259146004223673
0
LINE
5
531
100
AcDbEntity
8
0
100
AcDbLine
10
70.470871690240784
20
-87.595916220386272
30
32.259146004223673
11
69.960472738782457
21
-87.515326912261287
31
32.259146004223673
0
LINE
5
532
100
AcDbEntity
8
0
100
AcDbLine
10
180.27469944731024
20
-90.500713059914105
30
32.259146004223673
11
180.73495394037965
21
-90.735317490233484
31
32.259146004223673
0
LINE
5
533
100
AcDbEntity
8
0
100
AcDbLine
10
179.67654769367132
20
-89.675120370011271
30
32.259146004223673
11
179.90936125047699
21
-90.135374863080813
31
32.259146004223673
0
LINE
5
534
100
AcDbEntity
8
0
100
AcDbLine
10
179.90936125047699
20
-88.195858847539114
30
32.259146004223673
11
179.67654769367132
21
-88.656113340608499
31
32.259146004223673
0
LINE
5
535
100
AcDbEntity
8
0
100
AcDbLine
10
291.1924505300185
20
42.109888896530364
30
32.259146004223673
11
290.95784609969917
21
41.647843529946996
31
32.259146004223673
0
LINE
5
536
100
AcDbEntity
8
0
100
AcDbLine
10
294.17604580415741
20
41.142817199030347
30
32.259146004223673
11
294.09724736954627
21
41.653216150488689
31
32.259146004223673
0
LINE
5
537
100
AcDbEntity
8
0
100
AcDbLine
10
294.09724736954627
20
-89.675120370011271
30
32.259146004223673
11
294.17604580415741
21
-89.166512292066869
31
32.259146004223673
0
LINE
5
538
100
AcDbEntity
8
0
100
AcDbLine
10
181.24535289183808
20
-90.817697671872381
30
32.259146004223673
11
181.75396096978247
21
-90.73531749023347
31
32.259146004223673
0
LINE
5
539
100
AcDbEntity
8
0
100
AcDbLine
10
-40.812217589300815
20
39.570430253835909
30
32.259146004223673
11
-40.351963096231401
21
39.803243810641447
31
32.259146004223673
0
LINE
5
540
100
AcDbEntity
8
0
100
AcDbLine
10
294.09724736954627
20
41.647843529946996
30
32.259146004223673
11
293.860852065713
21
42.109888896530322
31
32.259146004223673
0
LINE
5
541
100
AcDbEntity
8
0
100
AcDbLine
10
179.67654769367132
20
-88.656113340608499
30
32.259146004223673
11
179.59416751203247
21
-89.166512292066869
31
32.259146004223673
0
LINE
5
542
100
AcDbEntity
8
0
100
AcDbLine
10
-39.986624899398066
20
-23.043880412261288
30
32.259146004223673
11
-40.344799602175854
21
-22.685705709483528
31
32.259146004223673
0
LINE
5
543
100
AcDbEntity
8
0
100
AcDbLine
10
182.81236721649088
20
-89.675120370011271
30
32.259146004223673
11
182.89474739812977
21
-89.166512292066869
31
32.259146004223673
0
LINE
5
544
100
AcDbEntity
8
0
100
AcDbLine
10
71.531068810463012
20
-88.656113340608499
30
32.259146004223673
11
71.296464380143547
21
-88.195858847539114
31
32.259146004223673
0
LINE
5
545
100
AcDbEntity
8
0
100
AcDbLine
10
290.87725679157421
20
-89.166512292066898
30
32.259146004223673
11
290.95784609969917
21
-89.675120370011271
31
32.259146004223673
0
LINE
5
546
100
AcDbEntity
8
0
100
AcDbLine
10
292.52665129786578
20
-22.361557603469606
30
32.259146004223673
11
292.01804321992137
21
-22.443937785108517
31
32.259146004223673
0
LINE
5
547
100
AcDbEntity
8
0
100
AcDbLine
10
-41.320825667245273
20
39.488050072197026
30
32.259146004223673
11
-40.812217589300815
21
39.570430253835909
31
32.259146004223673
0
LINE
5
548
100
AcDbEntity
8
0
100
AcDbLine
10
291.55599785333806
20
42.475227093363671
30
32.259146004223673
11
291.19782315056028
21
42.117052390585883
31
32.259146004223673
0
LINE
5
549
100
AcDbEntity
8
0
100
AcDbLine
10
182.21421546285197
20
-90.500713059914105
30
32.259146004223673
11
182.5723901656296
21
-90.142538357136303
31
32.259146004223673
0
LINE
5
550
100
AcDbEntity
8
0
100
AcDbLine
10
294.17604580415741
20
-24.012742983275217
30
32.259146004223673
11
294.09724736954627
21
-23.504134905330758
31
32.259146004223673
0
LINE
5
551
100
AcDbEntity
8
0
100
AcDbLine
10
-42.289688238259174
20
42.475227093363671
30
32.259146004223673
11
-42.647862941036969
21
42.117052390585883
31
32.259146004223673
0
LINE
5
552
100
AcDbEntity
8
0
100
AcDbLine
10
-39.752020469078609
20
41.647843529946996
30
32.259146004223673
11
-39.986624899398066
21
42.109888896530364
31
32.259146004223673
0
LINE
5
553
100
AcDbEntity
8
0
100
AcDbLine
10
70.931126183310226
20
-87.830520650705708
30
32.259146004223673
11
70.470871690240784
21
-87.595916220386272
31
32.259146004223673
0
LINE
5
554
100
AcDbEntity
8
0
100
AcDbLine
10
291.55599785333806
20
-22.678542215427939
30
32.259146004223673
11
291.19782315056028
21
-23.036716918205773
31
32.259146004223673
0
LINE
5
555
100
AcDbEntity
8
0
100
AcDbLine
10
-42.891421738925821
20
-23.507716652358532
30
32.259146004223673
11
-42.970220173536958
21
-24.016324730302987
31
32.259146004223673
0
LINE
5
556
100
AcDbEntity
8
0
100
AcDbLine
10
-40.351963096231401
20
-25.348734624636293
30
32.259146004223673
11
-39.99378839345362
21
-24.990559921858537
31
32.259146004223673
0
LINE
5
557
100
AcDbEntity
8
0
100
AcDbLine
10
291.1924505300185
20
-90.12821136902518
30
32.259146004223673
11
291.55062523279639
21
-90.486386071802968
31
32.259146004223673
0
LINE
5
558
100
AcDbEntity
8
0
100
AcDbLine
10
180.73495394037965
20
-87.595916220386272
30
32.259146004223673
11
180.27469944731024
21
-87.830520650705708
31
32.259146004223673
0
LINE
5
559
100
AcDbEntity
8
0
100
AcDbLine
10
182.21421546285197
20
-87.830520650705708
30
32.259146004223673
11
181.75396096978247
21
-87.5959162203863
31
32.259146004223673
0
LINE
5
560
100
AcDbEntity
8
0
100
AcDbLine
10
-41.320825667245273
20
-25.656764869025189
30
32.259146004223673
11
-40.812217589300815
21
-25.574384687386313
31
32.259146004223673
0
LINE
5
561
100
AcDbEntity
8
0
100
AcDbLine
10
-42.655026435092509
20
-23.043880412261288
30
32.259146004223673
11
-42.891421738925821
21
-23.507716652358532
31
32.259146004223673
0
LINE
5
562
100
AcDbEntity
8
0
100
AcDbLine
10
290.95784609969917
20
-24.523141934733559
30
32.259146004223673
11
291.1924505300185
21
-24.98339642780298
31
32.259146004223673
0
LINE
5
563
100
AcDbEntity
8
0
100
AcDbLine
10
293.0352593758102
20
-90.73531749023347
30
32.259146004223673
11
293.4955138688797
21
-90.500713059914105
31
32.259146004223673
0
LINE
5
564
100
AcDbEntity
8
0
100
AcDbLine
10
-42.970220173536958
20
-24.012742983275217
30
32.259146004223673
11
-42.89142173892585
21
-24.523141934733559
31
32.259146004223673
0
LINE
5
565
100
AcDbEntity
8
0
100
AcDbLine
10
293.0352593758102
20
-22.443937785108517
30
32.259146004223673
11
292.52665129786578
21
-22.361557603469606
31
32.259146004223673
0
LINE
5
566
100
AcDbEntity
8
0
100
AcDbLine
10
293.860852065713
20
-23.043880412261288
30
32.259146004223673
11
293.50267736293517
21
-22.685705709483528
31
32.259146004223673
0
LINE
5
567
100
AcDbEntity
8
0
100
AcDbLine
10
292.01804321992137
20
-22.443937785108517
30
32.259146004223673
11
291.55599785333806
21
-22.678542215427939
31
32.259146004223673
0
LINE
5
568
100
AcDbEntity
8
0
100
AcDbLine
10
-39.986624899398066
20
-24.98339642780298
30
32.259146004223673
11
-39.752020469078609
21
-24.523141934733523
31
32.259146004223673
0
LINE
5
569
100
AcDbEntity
8
0
100
AcDbLine
10
293.860852065713
20
-88.195858847539114
30
32.259146004223673
11
293.50267736293517
21
-87.837684144761269
31
32.259146004223673
0
LINE
5
570
100
AcDbEntity
8
0
100
AcDbLine
10
-40.812217589300836
20
-25.581548181441882
30
32.259146004223673
11
-40.351963096231401
21
-25.348734624636293
31
32.259146004223673
0
LINE
5
571
100
AcDbEntity
8
0
100
AcDbLine
10
71.531068810463012
20
-89.675120370011271
30
32.259146004223673
11
71.61165811858794
21
-89.166512292066869
31
32.259146004223673
0
LINE
5
572
100
AcDbEntity
8
0
100
AcDbLine
10
292.01804321992131
20
-90.735317490233484
30
32.259146004223673
11
292.52665129786573
21
-90.817697671872381
31
32.259146004223673
0
LINE
5
573
100
AcDbEntity
8
0
100
AcDbLine
10
290.95784609969917
20
-89.675120370011271
30
32.259146004223673
11
291.1924505300185
21
-90.135374863080813
31
32.259146004223673
0
LINE
5
574
100
AcDbEntity
8
0
100
AcDbLine
10
69.960472738782471
20
-90.817697671872381
30
32.259146004223673
11
70.470871690240799
21
-90.73531749023347
31
32.259146004223673
0
LINE
5
575
100
AcDbEntity
8
0
100
AcDbLine
10
179.90936125047699
20
-90.12821136902518
30
32.259146004223673
11
180.26753595325462
21
-90.486386071802968
31
32.259146004223673
0
LINE
5
576
100
AcDbEntity
8
0
100
AcDbLine
10
-39.752020469078609
20
-24.523141934733523
30
32.259146004223673
11
-39.671431160953617
21
-24.012742983275217
31
32.259146004223673
0
LINE
5
577
100
AcDbEntity
8
0
100
AcDbLine
10
292.01804321992137
20
-25.581548181441882
30
32.259146004223673
11
292.52665129786573
21
-25.663928363080792
31
32.259146004223673
0
LINE
5
578
100
AcDbEntity
8
0
100
AcDbLine
10
292.52665129786573
20
-25.656764869025189
30
32.259146004223673
11
293.0352593758102
21
-25.574384687386313
31
32.259146004223673
0
LINE
5
579
100
AcDbEntity
8
0
100
AcDbLine
10
-41.320825667245288
20
-22.361557603469606
30
32.259146004223673
11
-41.829433745189732
21
-22.443937785108517
31
32.259146004223673
0
LINE
5
580
100
AcDbEntity
8
0
100
AcDbLine
10
293.0352593758102
20
39.570430253835909
30
32.259146004223673
11
293.4955138688797
21
39.803243810641469
31
32.259146004223673
0
LINE
5
581
100
AcDbEntity
8
0
100
AcDbLine
10
182.57955365968527
20
-88.195858847539114
30
32.259146004223673
11
182.22137895690739
21
-87.837684144761269
31
32.259146004223673
0
LINE
5
582
100
AcDbEntity
8
0
100
AcDbLine
10
181.75396096978247
20
-90.73531749023347
30
32.259146004223673
11
182.21421546285197
21
-90.500713059914105
31
32.259146004223673
0
LINE
5
583
100
AcDbEntity
8
0
100
AcDbLine
10
71.296464380143547
20
-90.12821136902518
30
32.259146004223673
11
71.531068810462997
21
-89.66795687595571
31
32.259146004223673
0
LINE
5
584
100
AcDbEntity
8
0
100
AcDbLine
10
181.75396096978247
20
-87.5959162203863
30
32.259146004223673
11
181.24535289183808
21
-87.515326912261287
31
32.259146004223673
0
LINE
5
585
100
AcDbEntity
8
0
100
AcDbLine
10
69.450073787324129
20
-90.735317490233484
30
32.259146004223673
11
69.960472738782471
21
-90.817697671872381
31
32.259146004223673
0
LINE
5
586
100
AcDbEntity
8
0
100
AcDbLine
10
290.87725679157421
20
41.142817199030347
30
32.259146004223673
11
290.95784609969917
21
40.635999994599757
31
32.259146004223673
0
LINE
5
587
100
AcDbEntity
8
0
100
AcDbLine
10
180.27469944731027
20
42.475227093363671
30
32.259146004223673
11
179.91652474453235
21
42.117052390585883
31
32.259146004223673
0
LINE
5
588
100
AcDbEntity
8
0
100
AcDbLine
10
68.311078232490772
20
41.142817199030347
30
32.259146004223673
11
68.393458414129668
21
40.635999994599757
31
32.259146004223673
0
LINE
5
589
100
AcDbEntity
8
0
100
AcDbLine
10
71.61165811858794
20
41.142817199030347
30
32.259146004223673
11
71.531068810462983
21
41.653216150488689
31
32.259146004223673
0
LINE
5
590
100
AcDbEntity
8
0
100
AcDbLine
10
180.73495394037977
20
42.709831523683128
30
32.259146004223673
11
180.27469944731027
21
42.475227093363671
31
32.259146004223673
0
LINE
5
591
100
AcDbEntity
8
0
100
AcDbLine
10
-40.812217589300836
20
-22.443937785108517
30
32.259146004223673
11
-41.320825667245288
21
-22.361557603469606
31
32.259146004223673
0
LINE
5
592
100
AcDbEntity
8
0
100
AcDbLine
10
-39.671431160953617
20
-24.012742983275217
30
32.259146004223673
11
-39.752020469078609
21
-23.507716652358539
31
32.259146004223673
0
LINE
5
593
100
AcDbEntity
8
0
100
AcDbLine
10
293.4955138688797
20
39.803243810641469
30
32.259146004223673
11
293.85368857165747
21
40.170372880988658
31
32.259146004223673
0
LINE
5
594
100
AcDbEntity
8
0
100
AcDbLine
10
-39.671431160953617
20
41.142817199030347
30
32.259146004223673
11
-39.752020469078609
21
41.653216150488689
31
32.259146004223673
0
LINE
5
595
100
AcDbEntity
8
0
100
AcDbLine
10
292.01804321992137
20
42.709831523683128
30
32.259146004223673
11
291.55599785333806
21
42.475227093363671
31
32.259146004223673
0
LINE
5
596
100
AcDbEntity
8
0
100
AcDbLine
10
292.52665129786573
20
39.488050072197026
30
32.259146004223673
11
293.0352593758102
21
39.570430253835909
31
32.259146004223673
0
LINE
5
597
100
AcDbEntity
8
0
100
AcDbLine
10
293.4955138688797
20
-22.678542215427989
30
32.259146004223673
11
293.0352593758102
21
-22.443937785108517
31
32.259146004223673
0
LINE
5
598
100
AcDbEntity
8
0
100
AcDbLine
10
-39.986624899398066
20
42.109888896530364
30
32.259146004223673
11
-40.344799602175854
21
42.468063599308138
31
32.259146004223673
0
LINE
5
599
100
AcDbEntity
8
0
100
AcDbLine
10
291.1924505300185
20
-23.043880412261288
30
32.259146004223673
11
290.95784609969917
21
-23.504134905330751
31
32.259146004223673
0
LINE
5
600
100
AcDbEntity
8
0
100
AcDbLine
10
290.95784609969917
20
41.647843529946996
30
32.259146004223673
11
290.87725679157421
21
41.137444578488655
31
32.259146004223673
0
LINE
5
601
100
AcDbEntity
8
0
100
AcDbLine
10
-42.970220173536958
20
41.142817199030347
30
32.259146004223673
11
-42.89142173892585
21
40.635999994599757
31
32.259146004223673
0
LINE
5
602
100
AcDbEntity
8
0
100
AcDbLine
10
-39.986624899398066
20
40.17037288098868
30
32.259146004223673
11
-39.752020469078609
21
40.630627374058115
31
32.259146004223673
0
LINE
5
603
100
AcDbEntity
8
0
100
AcDbLine
10
-39.752020469078609
20
40.630627374058115
30
32.259146004223673
11
-39.671431160953617
21
41.137444578488655
31
32.259146004223673
0
LINE
5
604
100
AcDbEntity
8
0
100
AcDbLine
10
294.09724736954627
20
-23.507716652358532
30
32.259146004223673
11
293.860852065713
21
-23.047462159289065
31
32.259146004223673
0
LINE
5
605
100
AcDbEntity
8
0
100
AcDbLine
10
291.1924505300185
20
-24.98339642780298
30
32.259146004223673
11
291.55062523279639
21
-25.341571130580746
31
32.259146004223673
0
LINE
5
606
100
AcDbEntity
8
0
100
AcDbLine
10
-42.89142173892585
20
40.630627374058115
30
32.259146004223673
11
-42.655026435092509
21
40.17037288098868
31
32.259146004223673
0
LINE
5
607
100
AcDbEntity
8
0
100
AcDbLine
10
291.55599785333806
20
39.803243810641447
30
32.259146004223673
11
292.01804321992137
21
39.570430253835909
31
32.259146004223673
0
LINE
5
608
100
AcDbEntity
8
0
100
AcDbLine
10
-41.829433745189732
20
42.709831523683128
30
32.259146004223673
11
-42.289688238259174
21
42.475227093363671
31
32.259146004223673
0
LINE
5
609
100
AcDbEntity
8
0
100
AcDbLine
10
293.860852065713
20
40.17037288098868
30
32.259146004223673
11
294.09724736954627
21
40.630627374058115
31
32.259146004223673
0
LINE
5
610
100
AcDbEntity
8
0
100
AcDbLine
10
294.09724736954627
20
40.630627374058115
30
32.259146004223673
11
294.17604580415741
21
41.137444578488655
31
32.259146004223673
0
LINE
5
611
100
AcDbEntity
8
0
100
AcDbLine
10
293.0352593758102
20
-25.581548181441882
30
32.259146004223673
11
293.4955138688797
21
-25.348734624636329
31
32.259146004223673
0
LINE
5
612
100
AcDbEntity
8
0
100
AcDbLine
10
291.55599785333806
20
-25.348734624636293
30
32.259146004223673
11
292.01804321992137
21
-25.581548181441882
31
32.259146004223673
0
LINE
5
613
100
AcDbEntity
8
0
100
AcDbLine
10
292.01804321992137
20
39.570430253835909
30
32.259146004223673
11
292.52665129786573
21
39.488050072197026
31
32.259146004223673
0
LINE
5
614
100
AcDbEntity
8
0
100
AcDbLine
10
-39.752020469078609
20
-23.507716652358539
30
32.259146004223673
11
-39.986624899398066
21
-23.047462159289065
31
32.259146004223673
0
LINE
5
615
100
AcDbEntity
8
0
100
AcDbLine
10
293.4955138688797
20
-25.348734624636329
30
32.259146004223673
11
293.85368857165747
21
-24.990559921858537
31
32.259146004223673
0
LINE
5
616
100
AcDbEntity
8
0
100
AcDbLine
10
-40.351963096231401
20
42.475227093363671
30
32.259146004223673
11
-40.812217589300857
21
42.709831523683107
31
32.259146004223673
0
LINE
5
617
100
AcDbEntity
8
0
100
AcDbLine
10
290.87725679157421
20
-24.012742983275217
30
32.259146004223673
11
290.95784609969917
21
-24.523141934733559
31
32.259146004223673
0
LINE
5
618
100
AcDbEntity
8
0
100
AcDbLine
10
290.95784609969917
20
40.630627374058115
30
32.259146004223673
11
291.1924505300185
21
40.170372880988658
31
32.259146004223673
0
LINE
5
619
100
AcDbEntity
8
0
100
AcDbLine
10
-41.320825667245273
20
42.79042083180812
30
32.259146004223673
11
-41.829433745189732
21
42.709831523683128
31
32.259146004223673
0
LINE
5
620
100
AcDbEntity
8
0
100
AcDbLine
10
293.860852065713
20
-24.98339642780298
30
32.259146004223673
11
294.09724736954627
21
-24.523141934733523
31
32.259146004223673
0
LINE
5
621
100
AcDbEntity
8
0
100
AcDbLine
10
290.95784609969917
20
-23.507716652358532
30
32.259146004223673
11
290.87725679157421
21
-24.016324730302987
31
32.259146004223673
0
LINE
5
622
100
AcDbEntity
8
0
100
AcDbLine
10
70.931126183310226
20
39.803243810641469
30
32.259146004223673
11
71.289300886088043
21
40.170372880988658
31
32.259146004223673
0
LINE
5
623
100
AcDbEntity
8
0
100
AcDbLine
10
-42.655026435092509
20
42.109888896530364
30
32.259146004223673
11
-42.891421738925821
21
41.647843529947025
31
32.259146004223673
0
LINE
5
624
100
AcDbEntity
8
0
100
AcDbLine
10
294.09724736954627
20
-24.523141934733523
30
32.259146004223673
11
294.17604580415741
21
-24.012742983275217
31
32.259146004223673
0
LINE
5
625
100
AcDbEntity
8
0
100
AcDbLine
10
291.1924505300185
20
40.170372880988658
30
32.259146004223673
11
291.55062523279639
21
39.803243810641469
31
32.259146004223673
0
LINE
5
626
100
AcDbEntity
8
0
100
AcDbLine
10
-42.655026435092509
20
40.17037288098868
30
32.259146004223673
11
-42.296851732314707
21
39.803243810641469
31
32.259146004223673
0
LINE
5
627
100
AcDbEntity
8
0
100
AcDbLine
10
-42.891421738925821
20
41.647843529947025
30
32.259146004223673
11
-42.970220173536958
21
41.142817199030347
31
32.259146004223673
0
LINE
5
628
100
AcDbEntity
8
0
100
AcDbLine
10
293.860852065713
20
42.109888896530322
30
32.259146004223673
11
293.50267736293517
21
42.468063599308138
31
32.259146004223673
0
LINE
5
629
100
AcDbEntity
8
0
100
AcDbLine
10
-42.289688238259174
20
39.803243810641447
30
32.259146004223673
11
-41.829433745189732
21
39.570430253835909
31
32.259146004223673
0
LINE
5
630
100
AcDbEntity
8
0
100
AcDbLine
10
-40.812217589300857
20
42.709831523683107
30
32.259146004223673
11
-41.320825667245273
21
42.79042083180812
31
32.259146004223673
0
LINE
5
631
100
AcDbEntity
8
0
100
AcDbLine
10
-41.829433745189732
20
39.570430253835909
30
32.259146004223673
11
-41.320825667245273
21
39.488050072197026
31
32.259146004223673
0
LINE
5
632
100
AcDbEntity
8
0
100
AcDbLine
10
-40.351963096231401
20
-22.678542215427989
30
32.259146004223673
11
-40.812217589300836
21
-22.443937785108517
31
32.259146004223673
0
LINE
5
633
100
AcDbEntity
8
0
100
AcDbLine
10
-40.351963096231401
20
39.803243810641447
30
32.259146004223673
11
-39.99378839345362
21
40.170372880988658
31
32.259146004223673
0
LINE
5
634
100
AcDbEntity
8
0
100
AcDbLine
10
182.57955365968525
20
40.17037288098868
30
32.259146004223673
11
182.81236721649088
21
40.630627374058115
31
32.259146004223673
0
LINE
5
635
100
AcDbEntity
8
0
100
AcDbLine
10
68.393458414129668
20
41.647843529947025
30
32.259146004223673
11
68.311078232490772
21
41.137444578488655
31
32.259146004223673
0
LINE
5
636
100
AcDbEntity
8
0
100
AcDbLine
10
71.296464380143547
20
40.17037288098868
30
32.259146004223673
11
71.531068810462997
21
40.630627374058115
31
32.259146004223673
0
LINE
5
637
100
AcDbEntity
8
0
100
AcDbLine
10
-40.078454932647212
20
46.136337085555624
30
32.259146004223673
11
-42.63532682643973
21
46.12860906169697
31
32.259146004223673
0
ARC
5
638
100
AcDbEntity
8
0
100
AcDbCircle
10
-36.650220379529003
20
-8.8744820068783881
30
32.259146004223673
40
0.32951356306150847
210
0
220
0
230
1
100
AcDbArc
50
0
51
90
0
ARC
5
639
100
AcDbEntity
8
0
100
AcDbCircle
10
287.1988097575404
20
35.798857797079947
30
32.259146004223673
40
0.32951356306150847
210
-0
220
0
230
1
100
AcDbArc
50
0
51
90
0
LINE
5
640
100
AcDbEntity
8
0
100
AcDbLine
10
182.21421546285197
20
42.475227093363671
30
32.259146004223673
11
181.75396096978247
21
42.709831523683128
31
32.259146004223673
0
LINE
5
641
100
AcDbEntity
8
0
100
AcDbLine
10
182.89474739812977
20
41.142817199030347
30
32.259146004223673
11
182.81236721649088
21
41.653216150488689
31
32.259146004223673
0
LINE
5
642
100
AcDbEntity
8
0
100
AcDbLine
10
70.470871690240799
20
42.709831523683107
30
32.259146004223673
11
69.960472738782457
21
42.79042083180812
31
32.259146004223673
0
LINE
5
643
100
AcDbEntity
8
0
100
AcDbLine
10
68.393458414129654
20
40.630627374058115
30
32.259146004223673
11
68.626271970935278
21
40.17037288098868
31
32.259146004223673
0
LINE
5
644
100
AcDbEntity
8
0
100
AcDbLine
10
182.21421546285197
20
39.803243810641447
30
32.259146004223673
11
182.5723901656296
21
40.170372880988658
31
32.259146004223673
0
LINE
5
645
100
AcDbEntity
8
0
100
AcDbLine
10
71.531068810463012
20
41.647843529946996
30
32.259146004223673
11
71.296464380143561
21
42.109888896530322
31
32.259146004223673
0
LINE
5
646
100
AcDbEntity
8
0
100
AcDbLine
10
181.75396096978247
20
42.709831523683128
30
32.259146004223673
11
181.24535289183808
21
42.79042083180812
31
32.259146004223673
0
LINE
5
647
100
AcDbEntity
8
0
100
AcDbLine
10
-16.413356836078631
20
44.555147592394221
30
32.259146004223673
11
-16.413356836078631
21
37.714368944041453
31
32.259146004223673
0
LINE
5
648
100
AcDbEntity
8
0
100
AcDbLine
10
293.0352593758102
20
42.709831523683128
30
32.259146004223673
11
292.52665129786573
21
42.79042083180812
31
32.259146004223673
0
LINE
5
649
100
AcDbEntity
8
0
100
AcDbLine
10
182.81236721649088
20
41.647843529946996
30
32.259146004223673
11
182.57955365968527
21
42.109888896530322
31
32.259146004223673
0
ARC
5
650
100
AcDbEntity
8
0
100
AcDbCircle
10
-14.827359252178614
20
44.555147592394221
30
32.259146004223673
40
1.5859975838999913
210
0
220
-0
230
1
100
AcDbArc
50
90
51
180
0
LINE
5
651
100
AcDbEntity
8
0
100
AcDbLine
10
69.450073787324129
20
42.709831523683128
30
32.259146004223673
11
68.991610167768584
21
42.475227093363671
31
32.259146004223673
0
LINE
5
652
100
AcDbEntity
8
0
100
AcDbLine
10
180.27469944731024
20
39.803243810641447
30
32.259146004223673
11
180.73495394037965
21
39.570430253835895
31
32.259146004223673
0
LINE
5
653
100
AcDbEntity
8
0
100
AcDbLine
10
292.52665129786573
20
42.79042083180812
30
32.259146004223673
11
292.01804321992137
21
42.709831523683128
31
32.259146004223673
0
LINE
5
654
100
AcDbEntity
8
0
100
AcDbLine
10
181.24535289183808
20
42.79042083180812
30
32.259146004223673
11
180.73495394037977
21
42.709831523683128
31
32.259146004223673
0
LINE
5
655
100
AcDbEntity
8
0
100
AcDbLine
10
180.73495394037965
20
39.570430253835895
30
32.259146004223673
11
181.24535289183808
21
39.488050072197026
31
32.259146004223673
0
LINE
5
656
100
AcDbEntity
8
0
100
AcDbLine
10
179.67654769367132
20
40.630627374058115
30
32.259146004223673
11
179.90936125047699
21
40.17037288098868
31
32.259146004223673
0
LINE
5
657
100
AcDbEntity
8
0
100
AcDbLine
10
68.626271970935278
20
42.109888896530364
30
32.259146004223673
11
68.393458414129668
21
41.647843529947025
31
32.259146004223673
0
LINE
5
658
100
AcDbEntity
8
0
100
AcDbLine
10
182.57955365968527
20
42.109888896530322
30
32.259146004223673
11
182.22137895690739
21
42.468063599308138
31
32.259146004223673
0
LINE
5
659
100
AcDbEntity
8
0
100
AcDbLine
10
69.450073787324129
20
39.570430253835909
30
32.259146004223673
11
69.960472738782457
21
39.488050072197026
31
32.259146004223673
0
LINE
5
660
100
AcDbEntity
8
0
100
AcDbLine
10
182.81236721649088
20
40.630627374058115
30
32.259146004223673
11
182.89474739812977
21
41.137444578488655
31
32.259146004223673
0
LINE
5
661
100
AcDbEntity
8
0
100
AcDbLine
10
70.470871690240799
20
39.570430253835909
30
32.259146004223673
11
70.931126183310226
21
39.803243810641469
31
32.259146004223673
0
LINE
5
662
100
AcDbEntity
8
0
100
AcDbLine
10
181.75396096978247
20
39.570430253835909
30
32.259146004223673
11
182.21421546285197
21
39.803243810641447
31
32.259146004223673
0
LINE
5
663
100
AcDbEntity
8
0
100
AcDbLine
10
69.960472738782457
20
39.488050072197026
30
32.259146004223673
11
70.470871690240799
21
39.570430253835909
31
32.259146004223673
0
LINE
5
664
100
AcDbEntity
8
0
100
AcDbLine
10
179.59416751203247
20
41.142817199030347
30
32.259146004223673
11
179.67654769367132
21
40.635999994599757
31
32.259146004223673
0
LINE
5
665
100
AcDbEntity
8
0
100
AcDbLine
10
71.296464380143561
20
42.109888896530322
30
32.259146004223673
11
70.938289677365788
21
42.468063599308138
31
32.259146004223673
0
LINE
5
666
100
AcDbEntity
8
0
100
AcDbLine
10
179.90936125047699
20
40.17037288098868
30
32.259146004223673
11
180.26753595325462
21
39.803243810641469
31
32.259146004223673
0
LINE
5
667
100
AcDbEntity
8
0
100
AcDbLine
10
71.531068810462997
20
40.630627374058115
30
32.259146004223673
11
71.611658118588011
21
41.137444578488655
31
32.259146004223673
0
LINE
5
668
100
AcDbEntity
8
0
100
AcDbLine
10
68.991610167768584
20
39.803243810641447
30
32.259146004223673
11
69.450073787324129
21
39.570430253835909
31
32.259146004223673
0
LINE
5
669
100
AcDbEntity
8
0
100
AcDbLine
10
69.960472738782457
20
42.79042083180812
30
32.259146004223673
11
69.450073787324129
21
42.709831523683128
31
32.259146004223673
0
LINE
5
670
100
AcDbEntity
8
0
100
AcDbLine
10
179.67654769367132
20
41.647843529947025
30
32.259146004223673
11
179.59416751203247
21
41.137444578488655
31
32.259146004223673
0
LINE
5
671
100
AcDbEntity
8
0
100
AcDbLine
10
-36.650220379529003
20
-8.5449684438168738
30
32.259146004223673
11
-38.15815020521157
21
-8.5449684438168916
31
32.259146004223673
0
LINE
5
672
100
AcDbEntity
8
0
100
AcDbLine
10
181.24535289183808
20
39.488050072197026
30
32.259146004223673
11
181.75396096978247
21
39.570430253835909
31
32.259146004223673
0
LINE
5
673
100
AcDbEntity
8
0
100
AcDbLine
10
-38.487663768273073
20
-8.2154548807553951
30
32.259146004223673
11
-38.487663768273073
21
44.550346745823752
31
32.259146004223673
0
ARC
5
674
100
AcDbEntity
8
0
100
AcDbCircle
10
-38.15815020521157
20
-8.2154548807553951
30
32.259146004223673
40
0.32951356306150847
210
0
220
0
230
1
100
AcDbArc
50
180
51
270
0
ARC
5
675
100
AcDbEntity
8
0
100
AcDbCircle
10
-40.073661352173069
20
44.550346745823731
30
32.259146004223673
40
1.5859975838999913
210
0
220
-0
230
1
100
AcDbArc
50
0
51
90.173173244952125
0
ARC
5
676
100
AcDbEntity
8
0
100
AcDbCircle
10
-14.827359252178614
20
37.714368944041453
30
32.259146004223673
40
1.5859975839000142
210
0
220
0
230
1
100
AcDbArc
50
180
51
269.99999999999835
0
LINE
5
677
100
AcDbEntity
8
0
100
AcDbLine
10
293.4955138688797
20
42.475227093363671
30
32.259146004223673
11
293.0352593758102
21
42.709831523683128
31
32.259146004223673
0
LINE
5
678
100
AcDbEntity
8
0
100
AcDbLine
10
68.626271970935278
20
40.17037288098868
30
32.259146004223673
11
68.984446673713023
21
39.803243810641469
31
32.259146004223673
0
LINE
5
679
100
AcDbEntity
8
0
100
AcDbLine
10
179.90936125047699
20
42.109888896530364
30
32.259146004223673
11
179.67654769367132
21
41.647843529947025
31
32.259146004223673
0
LINE
5
680
100
AcDbEntity
8
0
100
AcDbLine
10
68.991610167768584
20
42.475227093363671
30
32.259146004223673
11
68.633435464990797
21
42.117052390585883
31
32.259146004223673
0
LINE
5
681
100
AcDbEntity
8
0
100
AcDbLine
10
70.931126183310226
20
42.475227093363671
30
32.259146004223673
11
70.470871690240799
21
42.709831523683107
31
32.259146004223673
0
ENDSEC
0
SECTION
2
OBJECTS
0
DICTIONARY
5
C
100
AcDbDictionary
3
ACAD_GROUP
350
D
3
ACAD_MLINESTYLE
350
17
0
DICTIONARY
5
D
100
AcDbDictionary
0
DICTIONARY
5
1A
330
C
100
AcDbDictionary
0
DICTIONARY
5
17
100
AcDbDictionary
0
ENDSEC
0
EOF
