0
SECTION
2
HEADER
9
$INSUNITS
70
4
9
$ACADVER
1
AC1014
9
$HANDSEED
5
FFFF
0
ENDSEC
0
SECTION
2
TABLES
0
TABLE
2
VPORT
5
8
100
AcDbSymbolTable
0
ENDTAB
0
TABLE
2
LTYPE
5
5
100
AcDbSymbolTable
0
LTYPE
5
14
100
AcDbSymbolTableRecord
100
AcDbLinetypeTableRecord
2
BYBLOCK
70
0
0
LTYPE
5
15
100
AcDbSymbolTableRecord
100
AcDbLinetypeTableRecord
2
BYLAYER
70
0
0
ENDTAB
0
TABLE
2
LAYER
5
2
100
AcDbSymbolTable
70
2
0
LAYER
5
50
100
AcDbSymbolTableRecord
100
AcDbLayerTableRecord
2
0
70
0
6
CONTINUOUS
0
ENDTAB
0
TABLE
2
STYLE
5
3
100
AcDbSymbolTable
70
1
0
STYLE
5
11
100
AcDbSymbolTableRecord
100
AcDbTextStyleTableRecord
2
STANDARD
70
0
0
ENDTAB
0
TABLE
2
VIEW
5
6
100
AcDbSymbolTable
70
0
0
ENDTAB
0
TABLE
2
UCS
5
7
100
AcDbSymbolTable
70
0
0
ENDTAB
0
TABLE
2
APPID
5
9
100
AcDbSymbolTable
70
2
0
APPID
5
12
100
AcDbSymbolTableRecord
100
AcDbRegAppTableRecord
2
ACAD
70
0
0
ENDTAB
0
TABLE
2
DIMSTYLE
5
A
100
AcDbSymbolTable
70
1
0
ENDTAB
0
TABLE
2
BLOCK_RECORD
5
1
100
AcDbSymbolTable
70
1
0
BLOCK_RECORD
5
1F
100
AcDbSymbolTableRecord
100
AcDbBlockTableRecord
2
*MODEL_SPACE
0
BLOCK_RECORD
5
1B
100
AcDbSymbolTableRecord
100
AcDbBlockTableRecord
2
*PAPER_SPACE
0
ENDTAB
0
ENDSEC
0
SECTION
2
BLOCKS
0
BLOCK
5
20
100
AcDbEntity
100
AcDbBlockBegin
2
*MODEL_SPACE
0
ENDBLK
5
21
100
AcDbEntity
100
AcDbBlockEnd
0
BLOCK
5
1C
100
AcDbEntity
100
AcDbBlockBegin
2
*PAPER_SPACE
0
ENDBLK
5
1D
100
AcDbEntity
100
AcDbBlockEnd
0
ENDSEC
0
SECTION
2
ENTITIES
0
LINE
5
100
100
AcDbEntity
8
0
100
AcDbLine
10
281.96456848543056
20
6.9188643448564235
30
65.656297880000011
11
282.22656426431951
21
6.7448671481898437
31
65.656297880000011
0
LINE
5
101
100
AcDbEntity
8
0
100
AcDbLine
10
280.18859709876392
20
7.4958550487453302
30
65.656297880000011
11
280.49959208820843
21
7.4588556448564347
31
65.656297880000011
0
LINE
5
102
100
AcDbEntity
8
0
100
AcDbLine
10
282.22656426431951
20
6.7448671481898437
30
65.656297880000011
11
282.47156031709727
21
6.5508702737454172
31
65.656297880000011
0
LINE
5
103
100
AcDbEntity
8
0
100
AcDbLine
10
281.40557749154164
20
7.2038597531898496
30
65.656297880000011
11
281.69057289987512
21
7.0728618637453522
31
65.656297880000011
0
LINE
5
104
100
AcDbEntity
8
0
100
AcDbLine
10
279.87560214154166
20
7.5078548554121127
30
65.656297880000011
11
280.18859709876392
21
7.4958550487453302
31
65.656297880000011
0
LINE
5
105
100
AcDbEntity
8
0
100
AcDbLine
10
282.70355657931941
20
6.3368737215231974
30
65.656297880000011
11
282.91555316376395
21
6.1048774593008837
31
65.656297880000011
0
LINE
5
106
100
AcDbEntity
8
0
100
AcDbLine
10
-56.284581857124998
20
-132.7284857449213
30
65.656297880000011
11
-56.596076838513881
21
-132.69128634425459
31
65.656297880000011
0
LINE
5
107
100
AcDbEntity
8
0
100
AcDbLine
10
-59.775125619680558
20
4.744899370412039
30
65.656297880000011
11
-59.666327372569448
21
5.0388946337453611
31
65.656297880000011
0
LINE
5
108
100
AcDbEntity
8
0
100
AcDbLine
10
-59.535429481513873
20
5.3238900420787338
30
65.656297880000011
11
-59.38103196906944
21
5.5978856276342803
31
65.656297880000011
0
LINE
5
109
100
AcDbEntity
8
0
100
AcDbLine
10
-59.38103196906944
20
5.5978856276342803
30
65.656297880000011
11
-59.20743476595834
21
5.8598814065231508
31
65.656297880000011
0
LINE
5
110
100
AcDbEntity
8
0
100
AcDbLine
10
-59.20743476595834
20
5.8598814065231508
30
65.656297880000011
11
-59.013137896347239
21
6.1048774593008837
31
65.656297880000011
0
LINE
5
111
100
AcDbEntity
8
0
100
AcDbLine
10
280.80858710987496
20
7.3978566276342761
30
65.656297880000011
11
281.11158222820831
21
7.3128579970786944
31
65.656297880000011
0
LINE
5
112
100
AcDbEntity
8
0
100
AcDbLine
10
280.49959208820843
20
7.4588556448564347
30
65.656297880000011
11
280.80858710987496
21
7.3978566276342761
31
65.656297880000011
0
LINE
5
113
100
AcDbEntity
8
0
100
AcDbLine
10
-58.799541337680552
20
6.3368737215231974
30
65.656297880000011
11
-58.568045067402764
21
6.5508702737453284
31
65.656297880000011
0
LINE
5
114
100
AcDbEntity
8
0
100
AcDbLine
10
281.11158222820831
20
7.3128579970786944
30
65.656297880000011
11
281.40557749154164
21
7.2038597531898496
31
65.656297880000011
0
LINE
5
115
100
AcDbEntity
8
0
100
AcDbLine
10
282.47156031709727
20
6.5508702737454172
30
65.656297880000011
11
282.70355657931941
21
6.3368737215231974
31
65.656297880000011
0
LINE
5
116
100
AcDbEntity
8
0
100
AcDbLine
10
281.69057289987512
20
7.0728618637453522
30
65.656297880000011
11
281.96456848543056
21
6.9188643448564235
31
65.656297880000011
0
LINE
5
117
100
AcDbEntity
8
0
100
AcDbLine
10
-59.535429481513873
20
-130.55672073503243
30
65.656297880000011
11
-59.666327372569434
21
-130.27142533153244
31
65.656297880000011
0
LINE
5
118
100
AcDbEntity
8
0
100
AcDbLine
10
283.76453948543065
20
-129.67473494503244
30
65.656297880000011
11
283.67854087098613
21
-129.97653008269907
31
65.656297880000011
0
LINE
5
119
100
AcDbEntity
8
0
100
AcDbLine
10
283.57054261098608
20
5.0388946337453078
30
65.656297880000011
11
283.67854087098613
21
4.7448993704120035
31
65.656297880000011
0
LINE
5
120
100
AcDbEntity
8
0
100
AcDbLine
10
283.57054261098608
20
-130.27142533153244
30
65.656297880000011
11
283.43854473765288
21
-130.55672073503243
31
65.656297880000011
0
LINE
5
121
100
AcDbEntity
8
0
100
AcDbLine
10
-59.38103196906944
20
-130.82951633992133
30
65.656297880000011
11
-59.535429481513873
21
-130.55672073503243
31
65.656297880000011
0
LINE
5
122
100
AcDbEntity
8
0
100
AcDbLine
10
-56.904771865013892
20
-132.63058732219906
30
65.656297880000011
11
-57.207866981736117
21
-132.54518869808788
31
65.656297880000011
0
LINE
5
123
100
AcDbEntity
8
0
100
AcDbLine
10
-59.775125619680558
20
-129.97653008269907
30
65.656297880000011
11
-59.860624242180556
21
-129.67473494503244
31
65.656297880000011
0
LINE
5
124
100
AcDbEntity
8
0
100
AcDbLine
10
280.18859709876392
20
-132.7284857449213
30
65.656297880000011
11
279.87560214154166
21
-132.73948556769906
31
65.656297880000011
0
LINE
5
125
100
AcDbEntity
8
0
100
AcDbLine
10
-59.013137896347239
20
6.1048774593008837
30
65.656297880000011
11
-58.799541337680552
21
6.3368737215231974
31
65.656297880000011
0
LINE
5
126
100
AcDbEntity
8
0
100
AcDbLine
10
283.43854473765282
20
5.3238900420787338
30
65.656297880000011
11
283.57054261098608
21
5.0388946337453078
31
65.656297880000011
0
LINE
5
127
100
AcDbEntity
8
0
100
AcDbLine
10
-59.01313789634721
20
-131.33800814742128
30
65.656297880000011
11
-59.207434765958311
21
-131.09271209947684
31
65.656297880000011
0
LINE
5
128
100
AcDbEntity
8
0
100
AcDbLine
10
283.76453948543065
20
4.4419042520787499
30
65.656297880000011
11
283.82453851876386
21
4.1329092304120962
31
65.656297880000011
0
LINE
5
129
100
AcDbEntity
8
0
100
AcDbLine
10
283.67854087098613
20
-129.97653008269907
30
65.656297880000011
11
283.57054261098608
21
-130.27142533153244
31
65.656297880000011
0
LINE
5
130
100
AcDbEntity
8
0
100
AcDbLine
10
-59.666327372569434
20
-130.27142533153244
30
65.656297880000011
11
-59.775125619680558
21
-129.97653008269907
31
65.656297880000011
0
LINE
5
131
100
AcDbEntity
8
0
100
AcDbLine
10
-59.860624242180556
20
-129.67473494503244
30
65.656297880000011
11
-59.921223265847217
21
-129.36603991853244
31
65.656297880000011
0
LINE
5
132
100
AcDbEntity
8
0
100
AcDbLine
10
283.82453851876386
20
-129.36603991853241
30
65.656297880000011
11
283.76453948543065
21
-129.67473494503244
31
65.656297880000011
0
LINE
5
133
100
AcDbEntity
8
0
100
AcDbLine
10
-55.97048691762501
20
-132.7408855451435
30
65.656297880000011
11
-56.284581857124998
21
-132.7284857449213
31
65.656297880000011
0
LINE
5
134
100
AcDbEntity
8
0
100
AcDbLine
10
-58.568045067402764
20
-131.78170099892131
30
65.656297880000011
11
-58.799541337680552
21
-131.56950441769905
31
65.656297880000011
0
LINE
5
135
100
AcDbEntity
8
0
100
AcDbLine
10
-58.060953237347206
20
-132.15109504747684
30
65.656297880000011
11
-58.322749019458307
21
-131.97739784597684
31
65.656297880000011
0
LINE
5
136
100
AcDbEntity
8
0
100
AcDbLine
10
281.40557749154164
20
-132.43629045258797
30
65.656297880000011
11
281.11158222820831
21
-132.545188698088
31
65.656297880000011
0
LINE
5
137
100
AcDbEntity
8
0
100
AcDbLine
10
283.87453771320844
20
3.5079192998564324
30
65.656297880000011
11
283.87453771320844
21
-128.74044999764354
31
65.656297880000011
0
LINE
5
138
100
AcDbEntity
8
0
100
AcDbLine
10
-58.799541337680552
20
-131.56950441769905
30
65.656297880000011
11
-59.01313789634721
21
-131.33800814742128
31
65.656297880000011
0
LINE
5
139
100
AcDbEntity
8
0
100
AcDbLine
10
-59.207434765958311
20
-131.09271209947684
30
65.656297880000011
11
-59.38103196906944
21
-130.82951633992133
31
65.656297880000011
0
LINE
5
140
100
AcDbEntity
8
0
100
AcDbLine
10
283.8625379065416
20
-129.05464493553239
30
65.656297880000011
11
283.82453851876386
21
-129.36603991853241
31
65.656297880000011
0
LINE
5
141
100
AcDbEntity
8
0
100
AcDbLine
10
283.28454721876392
20
-130.82951633992133
30
65.656297880000011
11
283.11155000598615
21
-131.09271209947684
31
65.656297880000011
0
LINE
5
142
100
AcDbEntity
8
0
100
AcDbLine
10
-57.207866981736117
20
-132.54518869808788
30
65.656297880000011
11
-57.501462251513892
21
-132.43629045258791
31
65.656297880000011
0
LINE
5
143
100
AcDbEntity
8
0
100
AcDbLine
10
283.8625379065416
20
3.8219142409675655
30
65.656297880000011
11
283.87453771320844
21
3.5079192998564324
31
65.656297880000011
0
LINE
5
144
100
AcDbEntity
8
0
100
AcDbLine
10
-59.970822466736102
20
3.5079192998564324
30
65.656297880000011
11
-59.958422666513876
21
3.8219142409675655
31
65.656297880000011
0
LINE
5
145
100
AcDbEntity
8
0
100
AcDbLine
10
282.70355657931941
20
-131.56950441769905
30
65.656297880000011
11
282.47156031709727
21
-131.78170099892125
31
65.656297880000011
0
LINE
5
146
100
AcDbEntity
8
0
100
AcDbLine
10
283.67854087098613
20
4.7448993704120035
30
65.656297880000011
11
283.76453948543065
21
4.4419042520787499
31
65.656297880000011
0
LINE
5
147
100
AcDbEntity
8
0
100
AcDbLine
10
-58.322749019458307
20
-131.97739784597684
30
65.656297880000011
11
-58.568045067402764
21
-131.78170099892131
31
65.656297880000011
0
LINE
5
148
100
AcDbEntity
8
0
100
AcDbLine
10
-59.666327372569448
20
5.0388946337453611
30
65.656297880000011
11
-59.535429481513873
21
5.3238900420787338
31
65.656297880000011
0
LINE
5
149
100
AcDbEntity
8
0
100
AcDbLine
10
283.11155000598615
20
-131.09271209947684
30
65.656297880000011
11
282.91555316376395
21
-131.33800814742128
31
65.656297880000011
0
LINE
5
150
100
AcDbEntity
8
0
100
AcDbLine
10
283.43854473765288
20
-130.55672073503243
30
65.656297880000011
11
283.28454721876392
21
-130.82951633992133
31
65.656297880000011
0
LINE
5
151
100
AcDbEntity
8
0
100
AcDbLine
10
283.28454721876392
20
5.597885627634227
30
65.656297880000011
11
283.43854473765282
21
5.3238900420787338
31
65.656297880000011
0
LINE
5
152
100
AcDbEntity
8
0
100
AcDbLine
10
282.22656426431951
20
-131.97739784597684
30
65.656297880000011
11
281.96456848543056
21
-132.1510950474769
31
65.656297880000011
0
LINE
5
153
100
AcDbEntity
8
0
100
AcDbLine
10
-56.596076838513881
20
-132.69128634425459
30
65.656297880000011
11
-56.904771865013892
21
-132.63058732219906
31
65.656297880000011
0
LINE
5
154
100
AcDbEntity
8
0
100
AcDbLine
10
-57.501462251513892
20
-132.43629045258791
30
65.656297880000011
11
-57.786657656624996
21
-132.30539256153241
31
65.656297880000011
0
LINE
5
155
100
AcDbEntity
8
0
100
AcDbLine
10
283.87453771320844
20
-128.74044999764354
30
65.656297880000011
11
283.8625379065416
21
-129.05464493553239
31
65.656297880000011
0
LINE
5
156
100
AcDbEntity
8
0
100
AcDbLine
10
283.11155000598615
20
5.8598814065231508
30
65.656297880000011
11
283.28454721876392
21
5.597885627634227
31
65.656297880000011
0
LINE
5
157
100
AcDbEntity
8
0
100
AcDbLine
10
281.11158222820831
20
-132.545188698088
30
65.656297880000011
11
280.80858710987502
21
-132.63058732219906
31
65.656297880000011
0
LINE
5
158
100
AcDbEntity
8
0
100
AcDbLine
10
280.49959208820849
20
-132.69128634425465
30
65.656297880000011
11
280.18859709876392
21
-132.7284857449213
31
65.656297880000011
0
LINE
5
159
100
AcDbEntity
8
0
100
AcDbLine
10
282.91555316376395
20
-131.33800814742128
30
65.656297880000011
11
282.70355657931941
21
-131.56950441769905
31
65.656297880000011
0
LINE
5
160
100
AcDbEntity
8
0
100
AcDbLine
10
279.87560214154166
20
-132.73948556769906
30
65.656297880000011
11
-55.97048691762501
21
-132.7408855451435
31
65.656297880000011
0
LINE
5
161
100
AcDbEntity
8
0
100
AcDbLine
10
-59.958422666513876
20
-129.05464493553239
30
65.656297880000011
11
-59.970822466736102
21
-128.74044999764348
31
65.656297880000011
0
LINE
5
162
100
AcDbEntity
8
0
100
AcDbLine
10
-59.921223265847217
20
-129.36603991853244
30
65.656297880000011
11
-59.958422666513876
21
-129.05464493553239
31
65.656297880000011
0
LINE
5
163
100
AcDbEntity
8
0
100
AcDbLine
10
274.00869666543053
20
-25.8746073073657
30
65.656297880000011
11
-30.255934669812202
21
-25.8746073073657
31
65.656297880000011
0
LINE
5
164
100
AcDbEntity
8
0
100
AcDbLine
10
282.91555316376395
20
6.1048774593008837
30
65.656297880000011
11
283.11155000598615
21
5.8598814065231508
31
65.656297880000011
0
LINE
5
165
100
AcDbEntity
8
0
100
AcDbLine
10
281.96456848543056
20
-132.1510950474769
30
65.656297880000011
11
281.69057289987512
21
-132.30539256153239
31
65.656297880000011
0
CIRCLE
5
166
100
AcDbEntity
8
0
100
AcDbCircle
10
-54.907502153633686
20
-62.631132689718882
30
65.656297880000011
40
0.92398238338736294
210
0
220
0
230
1
0
LINE
5
167
100
AcDbEntity
8
0
100
AcDbLine
10
-58.322749019458335
20
6.7448671481898792
30
65.656297880000011
11
-58.060953237347235
21
6.9188643448564768
31
65.656297880000011
0
LINE
5
168
100
AcDbEntity
8
0
100
AcDbLine
10
-59.958422666513876
20
3.8219142409675655
30
65.656297880000011
11
-59.921223265847217
21
4.1329092304120607
31
65.656297880000011
0
LINE
5
169
100
AcDbEntity
8
0
100
AcDbLine
10
-59.860624242180556
20
4.4419042520787499
30
65.656297880000011
11
-59.775125619680558
21
4.744899370412039
31
65.656297880000011
0
LINE
5
170
100
AcDbEntity
8
0
100
AcDbLine
10
-56.904771865013892
20
7.3978566276342761
30
65.656297880000011
11
-56.596076838513881
21
7.4588556448564702
31
65.656297880000011
0
CIRCLE
5
171
100
AcDbEntity
8
0
100
AcDbCircle
10
278.87818486966626
20
2.4820174862549393
30
65.656297880000011
40
0.92398238338736294
210
0
220
0
230
1
0
LINE
5
172
100
AcDbEntity
8
0
100
AcDbLine
10
282.47156031709727
20
-131.78170099892125
30
65.656297880000011
11
282.22656426431951
21
-131.97739784597684
31
65.656297880000011
0
CIRCLE
5
173
100
AcDbEntity
8
0
100
AcDbCircle
10
278.87818486966626
20
-62.596777603409699
30
65.656297880000011
40
0.92398238338736294
210
0
220
0
230
1
0
LINE
5
174
100
AcDbEntity
8
0
100
AcDbLine
10
283.82453851876386
20
4.1329092304120962
30
65.656297880000011
11
283.8625379065416
21
3.8219142409675655
31
65.656297880000011
0
LINE
5
175
100
AcDbEntity
8
0
100
AcDbLine
10
-57.786657656624996
20
-132.30539256153241
30
65.656297880000011
11
-58.060953237347206
21
-132.15109504747684
31
65.656297880000011
0
LINE
5
176
100
AcDbEntity
8
0
100
AcDbLine
10
280.80858710987502
20
-132.63058732219906
30
65.656297880000011
11
280.49959208820849
21
-132.69128634425465
31
65.656297880000011
0
LINE
5
177
100
AcDbEntity
8
0
100
AcDbLine
10
-49.97198356173611
20
-48.380204711343531
30
65.656297880000011
11
-49.97198356173611
21
-122.74064666269909
31
65.656297880000011
0
LINE
5
178
100
AcDbEntity
8
0
100
AcDbLine
10
-57.501462251513892
20
7.2038597531898496
30
65.656297880000011
11
-57.207866981736117
21
7.3128579970786944
31
65.656297880000011
0
LINE
5
179
100
AcDbEntity
8
0
100
AcDbLine
10
-58.568045067402764
20
6.5508702737453284
30
65.656297880000011
11
-58.322749019458335
21
6.7448671481898792
31
65.656297880000011
0
CIRCLE
5
180
100
AcDbEntity
8
0
100
AcDbCircle
10
167.58581139008277
20
-127.71374207435856
30
65.656297880000011
40
0.92398238338736294
210
0
220
0
230
1
0
LINE
5
181
100
AcDbEntity
8
0
100
AcDbLine
10
273.87569880820831
20
-122.74064666269909
30
65.656297880000011
11
274.00869666543053
21
-25.8746073073657
31
65.656297880000011
0
LINE
5
182
100
AcDbEntity
8
0
100
AcDbLine
10
-30.97591991067555
20
-26.596728563084522
30
65.656297880000011
11
-30.922290478402772
21
-44.70034399894358
31
65.656297880000011
0
CIRCLE
5
183
100
AcDbEntity
8
0
100
AcDbCircle
10
167.57626904476177
20
2.510644522218044
30
65.656297880000011
40
0.92398238338736294
210
0
220
0
230
1
0
LINE
5
184
100
AcDbEntity
8
0
100
AcDbLine
10
-32.762220834602779
20
-46.540274355143509
30
65.656297880000011
11
-48.132053205536103
21
-46.540274355143509
31
65.656297880000011
0
LINE
5
185
100
AcDbEntity
8
0
100
AcDbLine
10
-58.060953237347235
20
6.9188643448564768
30
65.656297880000011
11
-57.786657656624996
21
7.0728618637453522
31
65.656297880000011
0
CIRCLE
5
186
100
AcDbEntity
8
0
100
AcDbCircle
10
278.84001548838205
20
-127.72328441967964
30
65.656297880000011
40
0.92398238338736294
210
0
220
0
230
1
0
CIRCLE
5
187
100
AcDbEntity
8
0
100
AcDbCircle
10
56.293437910499534
20
-127.74236911032176
30
65.656297880000011
40
0.92398238338736294
210
0
220
0
230
1
0
ARC
5
188
100
AcDbEntity
8
0
100
AcDbCircle
10
-32.762220834602779
20
-44.70034399894358
30
65.656297880000011
40
1.8399303561999327
210
-0
220
0
230
1
100
AcDbArc
50
-90
51
0
0
LINE
5
189
100
AcDbEntity
8
0
100
AcDbLine
10
-56.284581857124998
20
7.4958550487453302
30
65.656297880000011
11
-55.97048691762501
21
7.5078548554120594
31
65.656297880000011
0
LINE
5
190
100
AcDbEntity
8
0
100
AcDbLine
10
-57.786657656624996
20
7.0728618637453522
30
65.656297880000011
11
-57.501462251513892
21
7.2038597531898496
31
65.656297880000011
0
LINE
5
191
100
AcDbEntity
8
0
100
AcDbLine
10
-49.97198356173611
20
-122.74064666269909
30
65.656297880000011
11
273.87569880820831
21
-122.74064666269909
31
65.656297880000011
0
CIRCLE
5
192
100
AcDbEntity
8
0
100
AcDbCircle
10
-55.008205268948828
20
2.4998030111659197
30
65.656297880000011
40
0.92398238338736294
210
0
220
0
230
1
0
LINE
5
193
100
AcDbEntity
8
0
100
AcDbLine
10
-56.596076838513881
20
7.4588556448564702
30
65.656297880000011
11
-56.284581857124998
21
7.4958550487453302
31
65.656297880000011
0
ARC
5
194
100
AcDbEntity
8
0
100
AcDbCircle
10
-48.132053205536103
20
-48.380204711343531
30
65.656297880000011
40
1.8399303562000335
210
0
220
-0
230
1
100
AcDbArc
50
90
51
180
0
LINE
5
195
100
AcDbEntity
8
0
100
AcDbLine
10
-59.970822466736102
20
-128.74044999764348
30
65.656297880000011
11
-59.970822466736102
21
3.5079192998564324
31
65.656297880000011
0
LINE
5
196
100
AcDbEntity
8
0
100
AcDbLine
10
-57.207866981736117
20
7.3128579970786944
30
65.656297880000011
11
-56.904771865013892
21
7.3978566276342761
31
65.656297880000011
0
CIRCLE
5
197
100
AcDbEntity
8
0
100
AcDbCircle
10
-55.002925606844357
20
-127.72328441967964
30
65.656297880000011
40
0.92398238338736294
210
0
220
0
230
1
0
LINE
5
198
100
AcDbEntity
8
0
100
AcDbLine
10
281.69057289987512
20
-132.30539256153239
30
65.656297880000011
11
281.40557749154164
21
-132.43629045258797
31
65.656297880000011
0
CIRCLE
5
199
100
AcDbEntity
8
0
100
AcDbCircle
10
56.293437910499534
20
2.4820174862549393
30
65.656297880000011
40
0.92398238338736294
210
0
220
0
230
1
0
LINE
5
200
100
AcDbEntity
8
0
100
AcDbLine
10
-55.97048691762501
20
7.5078548554120594
30
65.656297880000011
11
279.87560214154166
21
7.5078548554121127
31
65.656297880000011
0
LINE
5
201
100
AcDbEntity
8
0
100
AcDbLine
10
-59.921223265847217
20
4.1329092304120607
30
65.656297880000011
11
-59.860624242180556
21
4.4419042520787499
31
65.656297880000011
0
ARC
5
202
100
AcDbEntity
8
0
100
AcDbCircle
10
-30.255934669812223
20
-26.594595707365745
30
65.656297880000011
40
0.71998840000003395
210
0
220
-0
230
1
100
AcDbArc
50
89.999999999998295
51
180.16973024805526
0
ENDSEC
0
SECTION
2
OBJECTS
0
DICTIONARY
5
C
100
AcDbDictionary
3
ACAD_GROUP
350
D
3
ACAD_MLINESTYLE
350
17
0
DICTIONARY
5
D
100
AcDbDictionary
0
DICTIONARY
5
1A
330
C
100
AcDbDictionary
0
DICTIONARY
5
17
100
AcDbDictionary
0
ENDSEC
0
EOF
